#N canvas 0 1104 1920 1033 10;
#X floatatom 846 53 5 0 0 0 - - -, f 5;
#X floatatom 655 35 5 0 1 0 - - -, f 5;
#X floatatom 792 35 5 0 1 0 - - -, f 5;
#X floatatom 1414 70 5 0 0 0 - - -, f 5;
#X obj 706 568 hsl 128 15 0 1 0 0 empty empty empty -2 -8 0 10 -262144
-1 -1 0 1;
#X floatatom 1262 72 5 0 0 0 - - -, f 5;
#X obj 847 292 pack;
#X obj 1109 234 expr $f1 + $f2 + $f3;
#X msg 1173 340 0;
#X text 86 250 DEFAULT VALUES;
#X text 76 285 peak level: 1;
#X text 84 304 decay time: 20ms;
#X text 84 326 sustain level: 0.5;
#X text 80 262 attack time: 40ms;
#X text 78 346 sustain time: 300ms;
#X text 83 366 release time: 100ms;
#X obj 634 199 pack 1 40;
#X obj 847 162 delay 40;
#X obj 1058 266 delay 360;
#X obj 1173 382 pack 0 360;
#X obj 945 163 f;
#X obj 825 115 t f f f, f 23;
#X obj 1089 163 t f f;
#X obj 634 -61 t b b b b b b, f 127;
#X obj 743 -440 inlet PEAK_LEVEL;
#X obj 634 -121 inlet BANG;
#X obj 849 -440 inlet SUSTAIN_LEVEL;
#X obj 975 -440 inlet ATTACK_TIME;
#X obj 1085 -440 inlet DECAY_TIME;
#X obj 1190 -440 inlet SUSTAIN_TIME;
#X obj 1307 -440 inlet RELEASE_TIME;
#X floatatom 1110 40 5 0 0 0 - - -, f 5;
#X obj 904 726 outlet~ ENVELOPE;
#X obj 904 523 line~;
#X obj 706 523 line;
#X obj 634 86 f \$1;
#X obj 847 232 f \$2;
#X obj 825 93 f \$3;
#X obj 1089 141 f \$4;
#X obj 1241 121 f \$5;
#X obj 1393 123 f \$6;
#X floatatom 869 -250 5 0 1 0 - - -, f 5;
#X floatatom 868 -228 5 0 1 0 - - -, f 5;
#X text 864 -268 Levels;
#X text 901 -251 peak;
#X text 901 -230 sustain;
#X text 967 -285 Times;
#X floatatom 966 -267 5 0 0 0 - - -, f 5;
#X text 1002 -268 attack;
#X floatatom 966 -244 5 0 0 0 - - -, f 5;
#X text 1003 -246 decay;
#X floatatom 965 -222 5 0 0 0 - - -, f 5;
#X floatatom 965 -199 5 0 0 0 - - -, f 5;
#X text 1001 -223 sustain;
#X text 1002 -201 release;
#X floatatom 711 595 5 0 0 0 - - -, f 5;
#X connect 0 0 37 1;
#X connect 1 0 35 1;
#X connect 2 0 36 1;
#X connect 3 0 40 1;
#X connect 4 0 55 0;
#X connect 5 0 39 1;
#X connect 6 0 33 0;
#X connect 6 0 34 0;
#X connect 7 0 18 1;
#X connect 8 0 19 0;
#X connect 16 0 33 0;
#X connect 16 0 34 0;
#X connect 17 0 36 0;
#X connect 18 0 8 0;
#X connect 19 0 33 0;
#X connect 19 0 34 0;
#X connect 20 0 7 0;
#X connect 21 0 16 1;
#X connect 21 1 17 1;
#X connect 21 2 20 1;
#X connect 22 0 6 1;
#X connect 22 1 7 1;
#X connect 23 0 17 0;
#X connect 23 0 18 0;
#X connect 23 0 35 0;
#X connect 23 1 37 0;
#X connect 23 2 20 0;
#X connect 23 3 38 0;
#X connect 23 4 39 0;
#X connect 23 5 40 0;
#X connect 24 0 41 0;
#X connect 25 0 23 0;
#X connect 26 0 42 0;
#X connect 27 0 47 0;
#X connect 28 0 49 0;
#X connect 29 0 51 0;
#X connect 30 0 52 0;
#X connect 31 0 38 1;
#X connect 33 0 32 0;
#X connect 34 0 4 0;
#X connect 35 0 16 0;
#X connect 36 0 6 0;
#X connect 37 0 21 0;
#X connect 38 0 22 0;
#X connect 39 0 7 2;
#X connect 40 0 19 1;
#X connect 41 0 1 0;
#X connect 42 0 2 0;
#X connect 47 0 0 0;
#X connect 49 0 31 0;
#X connect 51 0 5 0;
#X connect 52 0 3 0;
#X coords 0 -1 1 1 200 130 1 855 -305;
