#N canvas 0 49 1920 1008 10;
#X obj 766 574 list split 1;
#X obj 851 576 list;
#X obj 999 578 zl len;
#X obj 347 18 vsl 15 128 1500 1 0 0 empty empty empty 0 -9 0 10 -262144
-1 -1 10874 1;
#X obj 603 622 metro;
#X obj 603 721 f 0;
#X obj 634 721 + 1;
#X msg 692 670 0;
#X msg 603 555 1;
#X obj 603 772 moses 1;
#X obj 766 606 +;
#X obj 596 11 tgl 15 0 empty empty empty 17 7 0 10 -262144 -1 -1 0
1;
#X obj 616 11 tgl 15 0 empty empty empty 17 7 0 10 -262144 -1 -1 0
1;
#X obj 636 11 tgl 15 0 empty empty empty 17 7 0 10 -262144 -1 -1 0
1;
#X obj 656 11 tgl 15 0 empty empty empty 17 7 0 10 -262144 -1 -1 0
1;
#X obj 676 11 tgl 15 0 empty empty empty 17 7 0 10 -262144 -1 -1 0
1;
#X obj 696 11 tgl 15 0 empty empty empty 17 7 0 10 -262144 -1 -1 0
1;
#X obj 716 11 tgl 15 0 empty empty empty 17 7 0 10 -262144 -1 -1 1
1;
#X obj 736 11 tgl 15 0 empty empty empty 17 7 0 10 -262144 -1 -1 0
1;
#X obj 755 11 tgl 15 0 empty empty empty 17 7 0 10 -262144 -1 -1 0
1;
#X obj 775 11 tgl 15 0 empty empty empty 17 7 0 10 -262144 -1 -1 0
1;
#X obj 795 11 tgl 15 0 empty empty empty 17 7 0 10 -262144 -1 -1 0
1;
#X obj 979 83 list cat;
#X text 594 -5 2m;
#X text 615 -5 2M;
#X text 635 -5 3m;
#X text 655 -5 3M;
#X text 678 -5 4;
#X text 718 -5 5;
#X text 735 -5 6m;
#X text 754 -5 6M;
#X text 696 -5 4+;
#X text 773 -5 7m;
#X text 795 -5 7M;
#X msg 596 52 1;
#X obj 596 30 sel 1;
#X obj 616 30 sel 1;
#X obj 636 30 sel 1;
#X obj 656 30 sel 1;
#X obj 676 30 sel 1;
#X obj 696 30 sel 1;
#X obj 716 30 sel 1;
#X obj 736 30 sel 1;
#X obj 755 30 sel 1;
#X obj 775 30 sel 1;
#X obj 795 30 sel 1;
#X msg 616 52 2;
#X msg 636 52 3;
#X msg 656 52 4;
#X msg 676 52 5;
#X msg 696 52 6;
#X msg 716 52 7;
#X msg 736 52 8;
#X msg 755 52 9;
#X msg 775 52 10;
#X msg 795 52 11;
#X msg 1028 -47 clear;
#X obj 728 138 bng 15 250 50 0 empty empty empty 17 7 0 10 -262144
-1 -1;
#X msg 752 144 0;
#X obj 999 536 list;
#X obj 817 890 mtof;
#X obj 817 912 osc~;
#X obj 856 906 line~;
#X obj 817 974 *~;
#X msg 900 766 1 10, f 8;
#X msg 856 763 0 \$1;
#X obj 979 109 list prepend 0;
#X obj 597 54 tgl 15 0 empty empty empty 17 7 0 10 -262144 -1 -1 0
1;
#X obj 617 54 tgl 15 0 empty empty empty 17 7 0 10 -262144 -1 -1 0
1;
#X obj 637 54 tgl 15 0 empty empty empty 17 7 0 10 -262144 -1 -1 0
1;
#X obj 657 54 tgl 15 0 empty empty empty 17 7 0 10 -262144 -1 -1 0
1;
#X obj 677 54 tgl 15 0 empty empty empty 17 7 0 10 -262144 -1 -1 0
1;
#X obj 697 54 tgl 15 0 empty empty empty 17 7 0 10 -262144 -1 -1 0
1;
#X obj 717 54 tgl 15 0 empty empty empty 17 7 0 10 -262144 -1 -1 0
1;
#X obj 737 54 tgl 15 0 empty empty empty 17 7 0 10 -262144 -1 -1 0
1;
#X obj 756 54 tgl 15 0 empty empty empty 17 7 0 10 -262144 -1 -1 0
1;
#X obj 776 54 tgl 15 0 empty empty empty 17 7 0 10 -262144 -1 -1 0
1;
#X obj 796 54 tgl 15 0 empty empty empty 17 7 0 10 -262144 -1 -1 0
1;
#X obj 597 73 sel 1;
#X obj 617 73 sel 1;
#X obj 637 73 sel 1;
#X obj 657 73 sel 1;
#X obj 677 73 sel 1;
#X obj 697 73 sel 1;
#X obj 717 73 sel 1;
#X obj 737 73 sel 1;
#X obj 756 73 sel 1;
#X obj 776 73 sel 1;
#X obj 796 73 sel 1;
#X obj 577 54 tgl 15 0 empty empty empty 17 7 0 10 -262144 -1 -1 1
1;
#X obj 577 73 sel 1;
#X msg 577 95 12;
#X msg 597 95 13;
#X msg 617 95 14;
#X msg 637 95 15;
#X msg 657 95 16;
#X msg 677 95 17;
#X msg 697 95 18;
#X msg 717 95 19;
#X msg 737 95 20;
#X msg 756 95 21;
#X msg 776 95 22;
#X msg 796 95 23;
#X obj 597 98 tgl 15 0 empty empty empty 17 7 0 10 -262144 -1 -1 0
1;
#X obj 617 98 tgl 15 0 empty empty empty 17 7 0 10 -262144 -1 -1 0
1;
#X obj 637 98 tgl 15 0 empty empty empty 17 7 0 10 -262144 -1 -1 0
1;
#X obj 657 98 tgl 15 0 empty empty empty 17 7 0 10 -262144 -1 -1 0
1;
#X obj 677 98 tgl 15 0 empty empty empty 17 7 0 10 -262144 -1 -1 0
1;
#X obj 697 98 tgl 15 0 empty empty empty 17 7 0 10 -262144 -1 -1 0
1;
#X obj 717 98 tgl 15 0 empty empty empty 17 7 0 10 -262144 -1 -1 0
1;
#X obj 737 98 tgl 15 0 empty empty empty 17 7 0 10 -262144 -1 -1 0
1;
#X obj 756 98 tgl 15 0 empty empty empty 17 7 0 10 -262144 -1 -1 0
1;
#X obj 776 98 tgl 15 0 empty empty empty 17 7 0 10 -262144 -1 -1 0
1;
#X obj 796 98 tgl 15 0 empty empty empty 17 7 0 10 -262144 -1 -1 0
1;
#X obj 597 117 sel 1;
#X obj 616 117 sel 1;
#X obj 637 117 sel 1;
#X obj 657 117 sel 1;
#X obj 677 117 sel 1;
#X obj 697 117 sel 1;
#X obj 717 117 sel 1;
#X obj 737 117 sel 1;
#X obj 756 117 sel 1;
#X obj 776 117 sel 1;
#X obj 796 117 sel 1;
#X obj 577 98 tgl 15 0 empty empty empty 17 7 0 10 -262144 -1 -1 1
1;
#X obj 577 117 sel 1;
#X msg 577 139 24;
#X msg 597 139 25;
#X msg 617 139 26;
#X msg 637 139 27;
#X msg 680 139 29;
#X msg 657 139 28;
#X msg 697 139 30;
#X msg 717 139 31;
#X msg 737 139 32;
#X msg 756 139 33;
#X msg 776 139 34;
#X msg 796 139 35;
#X obj 603 450 f;
#X obj 633 140 bng 15 250 50 0 empty empty empty 17 7 0 10 -262144
-1 -1;
#X text 209 77 stop;
#X obj 216 94 bng 15 250 50 0 empty empty empty 17 7 0 10 -262144 -1
-1;
#X msg 950 846 0 10;
#X msg 539 585 0;
#X obj 856 734 * 2;
#X msg 552 -171 0 3 5 7 12 7 5 3;
#X obj 522 -1 bng 15 250 50 0 empty empty empty 17 7 0 10 -262144 -1
-1;
#X obj 552 -192 t b b;
#X obj 557 380 metro;
#X obj 265 21 vsl 15 128 5000 100 0 0 empty empty empty 0 -9 0 10 -262144
-1 -1 10714 1;
#X obj 365 488 /;
#X obj 365 530 spigot;
#X obj 603 476 t b b f b b, f 60;
#X obj 380 445 t f b;
#X obj 265 160 s \$0-rateRoot;
#X text 245 4 root note;
#X obj 584 353 r \$0-rateRoot;
#X obj 286 76 tgl 15 0 empty empty empty 17 7 0 10 -262144 -1 -1 0
1;
#X obj 286 96 s \$0-AutomRootOnOff;
#X text 305 75 0/1;
#X obj 557 331 r \$0-AutomRootOnOff;
#X obj 235 95 s \$0-stop;
#X obj 950 823 r \$0-stop;
#X obj 329 75 r \$0-stop;
#X msg 391 75 0;
#X obj 398 501 r \$0-AutomRootOnOff;
#X text 253 -8 loop on;
#X text 285 48 rate;
#X obj 427 106 bng 15 250 50 0 empty empty empty 17 7 0 10 -262144
-1 -1;
#X text 418 90 start;
#X obj 445 106 s \$0-start;
#X obj 603 404 r \$0-start;
#X obj 393 -175 inlet note;
#X floatatom 422 38 5 0 0 0 - - -, f 5;
#X text 467 -129 note;
#X msg 428 -143 60;
#X msg 435 -123 62;
#X msg 442 -103 64;
#X msg 447 -83 67;
#X obj 422 59 s \$0-note;
#X obj 618 426 r \$0-note;
#X obj 539 560 r \$0-stop;
#X obj 999 607 s \$0-lenList;
#X obj 642 750 r \$0-lenList;
#X obj 380 412 r \$0-lenList;
#X obj 347 160 s \$0-rateArp;
#X obj 856 707 r \$0-rateArp;
#X obj 644 567 r \$0-rateArp;
#X text 334 -12 rate of;
#X text 334 -2 arpeggios;
#X floatatom 284 138 5 0 0 0 - - -, f 5;
#X floatatom 365 135 5 0 0 0 - - -, f 5;
#X obj 365 564 s \$0-NewrateArp;
#X obj 367 17 r \$0-NewrateArp;
#X obj 365 384 r \$0-rateRoot;
#X msg 642 793 bang;
#X obj 492 675 s \$0-bangNoteArp;
#X obj 851 543 r \$0-bangNoteArp;
#X obj 552 -149 s \$0-preset1;
#X obj 522 34 bng 15 250 50 0 empty empty empty 17 7 0 10 -262144 -1
-1;
#X obj 698 -193 t b b;
#X obj 698 -150 s \$0-preset2;
#X obj 522 71 bng 15 250 50 0 empty empty empty 17 7 0 10 -262144 -1
-1;
#X obj 660 -119 t b b;
#X obj 660 -75 s \$0-preset3;
#X obj 1136 433 r \$0-preset1;
#X obj 1136 453 r \$0-preset2;
#X obj 1136 473 r \$0-preset3;
#X obj 999 426 r \$0-updateList;
#X obj 654 140 s \$0-updateList;
#X obj 979 131 s \$0-tickList;
#X obj 1029 448 r \$0-tickList;
#X text 248 -37 LOOP MODE;
#X text 357 -37 SINGLE NOTE MODE;
#X msg 698 -172 0 4 7 12 7 4 7 6 7;
#X text 604 122 update arpeggio;
#X text 508 -18 preset 1;
#X text 535 -34 ARPEGGIO;
#X text 507 18 preset 2;
#X text 507 54 preset 3;
#X text 508 92 preset 4;
#X obj 839 -202 t b b;
#X obj 839 -158 s \$0-preset3;
#X msg 839 -181 0 3 7 10 12 10 7 3 5;
#X obj 522 109 bng 15 250 50 0 empty empty empty 17 7 0 10 -262144
-1 -1;
#X obj 986 -201 t b b;
#X obj 986 -157 s \$0-preset3;
#X obj 523 144 bng 15 250 50 0 empty empty empty 17 7 0 10 -262144
-1 -1;
#X text 509 127 preset 5;
#X msg 986 -180 0 2 4 6 8 10 12;
#X msg 660 -98 0 12 24 12;
#X text 814 9 1st 8ve;
#X text 669 -21 patterns;
#X text 815 52 2nd 8ve;
#X text 815 97 3rd 8ve;
#X text 723 123 clear pattern;
#X text 454 38 note;
#X obj 817 1007 outlet~ sound;
#X obj 1058 1006 outlet frequency;
#X obj 959 1006 outlet MIDInote;
#X obj 438 -210 inlet RateArp;
#X obj 843 802 l;
#X obj 1157 -135 inlet startstop;
#X obj 1157 -113 tgl 15 0 empty empty empty 17 7 0 10 -262144 -1 -1
0 1;
#X obj 1159 -91 sel 0 1;
#X msg 1160 -52 1;
#X obj 1310 481 r \$0-stop;
#X msg 1309 518 0;
#X obj 1385 579 outlet startstop;
#X msg 1401 516 1;
#X obj 1402 479 r \$0-start;
#X connect 0 0 10 0;
#X connect 0 1 1 1;
#X connect 1 0 0 0;
#X connect 2 0 183 0;
#X connect 3 0 186 0;
#X connect 3 0 192 0;
#X connect 4 0 5 0;
#X connect 4 0 197 0;
#X connect 5 0 6 0;
#X connect 5 0 9 0;
#X connect 6 0 5 1;
#X connect 7 0 5 0;
#X connect 8 0 4 0;
#X connect 9 1 196 0;
#X connect 10 0 60 0;
#X connect 10 0 240 0;
#X connect 11 0 35 0;
#X connect 12 0 36 0;
#X connect 13 0 37 0;
#X connect 14 0 38 0;
#X connect 15 0 39 0;
#X connect 16 0 40 0;
#X connect 17 0 41 0;
#X connect 18 0 42 0;
#X connect 19 0 43 0;
#X connect 20 0 44 0;
#X connect 21 0 45 0;
#X connect 22 0 66 0;
#X connect 34 0 22 0;
#X connect 35 0 34 0;
#X connect 36 0 46 0;
#X connect 37 0 47 0;
#X connect 38 0 48 0;
#X connect 39 0 49 0;
#X connect 40 0 50 0;
#X connect 41 0 51 0;
#X connect 42 0 52 0;
#X connect 43 0 53 0;
#X connect 44 0 54 0;
#X connect 45 0 55 0;
#X connect 46 0 22 0;
#X connect 47 0 22 0;
#X connect 48 0 22 0;
#X connect 49 0 22 0;
#X connect 50 0 22 0;
#X connect 51 0 22 0;
#X connect 52 0 22 0;
#X connect 53 0 22 0;
#X connect 54 0 22 0;
#X connect 55 0 22 0;
#X connect 56 0 22 1;
#X connect 57 0 56 0;
#X connect 57 0 58 0;
#X connect 58 0 21 0;
#X connect 58 0 20 0;
#X connect 58 0 19 0;
#X connect 58 0 18 0;
#X connect 58 0 17 0;
#X connect 58 0 16 0;
#X connect 58 0 15 0;
#X connect 58 0 14 0;
#X connect 58 0 13 0;
#X connect 58 0 12 0;
#X connect 58 0 11 0;
#X connect 58 0 89 0;
#X connect 58 0 67 0;
#X connect 58 0 77 0;
#X connect 58 0 76 0;
#X connect 58 0 75 0;
#X connect 58 0 74 0;
#X connect 58 0 73 0;
#X connect 58 0 72 0;
#X connect 58 0 71 0;
#X connect 58 0 70 0;
#X connect 58 0 69 0;
#X connect 58 0 68 0;
#X connect 58 0 125 0;
#X connect 58 0 113 0;
#X connect 58 0 112 0;
#X connect 58 0 111 0;
#X connect 58 0 110 0;
#X connect 58 0 109 0;
#X connect 58 0 108 0;
#X connect 58 0 107 0;
#X connect 58 0 106 0;
#X connect 58 0 105 0;
#X connect 58 0 104 0;
#X connect 58 0 103 0;
#X connect 59 0 2 0;
#X connect 59 0 1 1;
#X connect 60 0 61 0;
#X connect 60 0 239 0;
#X connect 61 0 63 0;
#X connect 62 0 63 1;
#X connect 63 0 238 0;
#X connect 64 0 62 0;
#X connect 65 0 242 1;
#X connect 66 0 211 0;
#X connect 67 0 78 0;
#X connect 68 0 79 0;
#X connect 69 0 80 0;
#X connect 70 0 81 0;
#X connect 71 0 82 0;
#X connect 72 0 83 0;
#X connect 73 0 84 0;
#X connect 74 0 85 0;
#X connect 75 0 86 0;
#X connect 76 0 87 0;
#X connect 77 0 88 0;
#X connect 78 0 92 0;
#X connect 79 0 93 0;
#X connect 80 0 94 0;
#X connect 81 0 95 0;
#X connect 82 0 96 0;
#X connect 83 0 97 0;
#X connect 84 0 98 0;
#X connect 85 0 99 0;
#X connect 86 0 100 0;
#X connect 87 0 101 0;
#X connect 88 0 102 0;
#X connect 89 0 90 0;
#X connect 90 0 91 0;
#X connect 91 0 22 0;
#X connect 92 0 22 0;
#X connect 93 0 22 0;
#X connect 94 0 22 0;
#X connect 95 0 22 0;
#X connect 96 0 22 0;
#X connect 97 0 22 0;
#X connect 98 0 22 0;
#X connect 99 0 22 0;
#X connect 100 0 22 0;
#X connect 101 0 22 0;
#X connect 102 0 22 0;
#X connect 103 0 114 0;
#X connect 104 0 115 0;
#X connect 105 0 116 0;
#X connect 106 0 117 0;
#X connect 107 0 118 0;
#X connect 108 0 119 0;
#X connect 109 0 120 0;
#X connect 110 0 121 0;
#X connect 111 0 122 0;
#X connect 112 0 123 0;
#X connect 113 0 124 0;
#X connect 114 0 128 0;
#X connect 115 0 129 0;
#X connect 116 0 130 0;
#X connect 117 0 132 0;
#X connect 118 0 131 0;
#X connect 119 0 133 0;
#X connect 120 0 134 0;
#X connect 121 0 135 0;
#X connect 122 0 136 0;
#X connect 123 0 137 0;
#X connect 124 0 138 0;
#X connect 125 0 126 0;
#X connect 126 0 127 0;
#X connect 127 0 22 0;
#X connect 128 0 22 0;
#X connect 129 0 22 0;
#X connect 130 0 22 0;
#X connect 131 0 22 0;
#X connect 132 0 22 0;
#X connect 133 0 22 0;
#X connect 134 0 22 0;
#X connect 135 0 22 0;
#X connect 136 0 22 0;
#X connect 137 0 22 0;
#X connect 138 0 22 0;
#X connect 139 0 153 0;
#X connect 140 0 210 0;
#X connect 142 0 162 0;
#X connect 143 0 62 0;
#X connect 144 0 4 0;
#X connect 145 0 65 0;
#X connect 146 0 199 0;
#X connect 147 0 148 0;
#X connect 148 0 146 0;
#X connect 148 1 57 0;
#X connect 149 0 139 0;
#X connect 150 0 155 0;
#X connect 150 0 191 0;
#X connect 151 0 152 0;
#X connect 152 0 193 0;
#X connect 153 0 8 0;
#X connect 153 1 7 0;
#X connect 153 2 10 1;
#X connect 153 3 64 0;
#X connect 153 4 59 0;
#X connect 154 0 151 1;
#X connect 154 1 151 0;
#X connect 157 0 149 1;
#X connect 158 0 159 0;
#X connect 161 0 149 0;
#X connect 163 0 143 0;
#X connect 164 0 165 0;
#X connect 165 0 158 0;
#X connect 166 0 152 1;
#X connect 169 0 171 0;
#X connect 172 0 139 0;
#X connect 173 0 174 0;
#X connect 174 0 180 0;
#X connect 176 0 174 0;
#X connect 177 0 174 0;
#X connect 178 0 174 0;
#X connect 179 0 174 0;
#X connect 181 0 139 1;
#X connect 182 0 144 0;
#X connect 184 0 9 1;
#X connect 185 0 154 0;
#X connect 187 0 145 0;
#X connect 188 0 4 1;
#X connect 194 0 3 0;
#X connect 195 0 151 0;
#X connect 196 0 242 0;
#X connect 198 0 1 0;
#X connect 200 0 201 0;
#X connect 201 0 215 0;
#X connect 201 1 57 0;
#X connect 203 0 204 0;
#X connect 204 0 231 0;
#X connect 204 1 57 0;
#X connect 206 0 59 1;
#X connect 207 0 59 1;
#X connect 208 0 59 1;
#X connect 209 0 59 0;
#X connect 212 0 59 1;
#X connect 212 0 59 0;
#X connect 215 0 202 0;
#X connect 222 0 224 0;
#X connect 222 1 57 0;
#X connect 224 0 223 0;
#X connect 225 0 222 0;
#X connect 226 0 230 0;
#X connect 226 1 57 0;
#X connect 228 0 226 0;
#X connect 230 0 227 0;
#X connect 231 0 205 0;
#X connect 241 0 150 0;
#X connect 242 0 62 0;
#X connect 243 0 244 0;
#X connect 244 0 245 0;
#X connect 245 0 142 0;
#X connect 245 1 169 0;
#X connect 245 1 246 0;
#X connect 246 0 158 0;
#X connect 247 0 248 0;
#X connect 248 0 62 0;
#X connect 248 0 249 0;
#X connect 250 0 249 0;
#X connect 251 0 250 0;
#X coords 0 -1 1 1 660 200 1 206 -35;
