#N canvas 0 1104 1920 1033 10;
#X obj 188 191 env~;
#X msg 246 194 0;
#X floatatom 319 215 5 0 0 0 - - -, f 5;
#X floatatom 360 214 5 0 0 0 - - -, f 5;
#X floatatom 190 341 17 0 0 0 - - -, f 17;
#X obj 188 138 *~;
#X obj 240 17 ctlin;
#X floatatom 382 87 5 0 0 0 - - -, f 5;
#X obj 267 83 a_map;
#X msg 287 -8 0;
#X msg 298 18 127;
#X msg 311 35 0;
#X msg 324 55 1;
#X floatatom 280 119 5 0 0 0 - - -, f 5;
#X obj 97 519 *~;
#X obj 117 471 hsl 128 15 0 1 0 0 empty empty empty -2 -8 0 10 -262144
-1 -1 0 1;
#X obj 99 408 vcf~;
#X obj 147 325 sig~;
#X msg 286 193 1;
#X msg 467 224 1;
#X obj 189 266 m_scale, f 28;
#X msg 359 190 6000;
#X msg 318 191 1000;
#X msg 135 371 50;
#X obj 97 563 outlet~;
#X obj 142 39 inlet~;
#X connect 1 0 20 1;
#X connect 2 0 20 3;
#X connect 3 0 20 4;
#X connect 5 0 0 0;
#X connect 5 0 16 0;
#X connect 6 0 8 0;
#X connect 6 1 7 0;
#X connect 8 0 13 0;
#X connect 8 0 20 0;
#X connect 8 0 5 1;
#X connect 9 0 8 1;
#X connect 10 0 8 2;
#X connect 11 0 8 3;
#X connect 12 0 8 4;
#X connect 14 0 24 0;
#X connect 15 0 14 1;
#X connect 16 0 14 0;
#X connect 17 0 16 1;
#X connect 18 0 20 2;
#X connect 19 0 20 5;
#X connect 20 0 4 0;
#X connect 20 0 17 0;
#X connect 21 0 3 0;
#X connect 22 0 2 0;
#X connect 23 0 16 2;
#X connect 25 0 5 0;
