#N canvas 1 49 1918 1008 10;
#X obj 450 -236 s \$0-o5;
#X obj 485 -236 s \$0-o6;
#X obj 450 -276 s \$0-r5;
#X obj 450 -258 s \$0-d5;
#X floatatom 450 -256 5 0 30 0 - - -, f 5;
#X obj 485 -258 s \$0-d6;
#X floatatom 485 -256 5 0 30 0 - - -, f 5;
#X obj 92 90 delwrite~ \$0-DelayLine 1000;
#X obj 367 73 vd~ \$0-DelayLine;
#X obj 290 484 +~;
#X obj 494 74 vd~ \$0-DelayLine;
#X obj 628 75 vd~ \$0-DelayLine;
#X obj 628 136 spigot~;
#X obj 674 117 tgl 15 0 empty empty empty 17 7 0 10 -262144 -1 -1 0
1;
#X obj 494 137 spigot~;
#X obj 544 120 tgl 15 0 empty empty empty 17 7 0 10 -262144 -1 -1 0
1;
#X obj 374 136 spigot~;
#X obj 423 116 tgl 15 0 empty empty empty 17 7 0 10 -262144 -1 -1 0
1;
#X floatatom 814 347 5 0 0 0 - - -, f 5;
#X obj 809 293 expr $f1 + $f2 + $f3 + $f4 + $f5 + $f6 + $f7 + $f8,
f 74;
#X obj 849 252 t b f;
#X obj 909 252 t b f;
#X obj 515 356 /~;
#X obj 367 4 *~ 5;
#X obj 367 47 +~ 20;
#X obj 755 75 vd~ \$0-DelayLine;
#X obj 755 135 spigot~;
#X obj 805 116 tgl 15 0 empty empty empty 17 7 0 10 -262144 -1 -1 0
1;
#X obj 885 74 vd~ \$0-DelayLine;
#X obj 1011 74 vd~ \$0-DelayLine;
#X obj 1148 74 vd~ \$0-DelayLine;
#X obj 1148 133 spigot~;
#X obj 1197 116 tgl 15 0 empty empty empty 17 7 0 10 -262144 -1 -1
0 1;
#X obj 1011 135 spigot~;
#X obj 1056 116 tgl 15 0 empty empty empty 17 7 0 10 -262144 -1 -1
0 1;
#X obj 885 136 spigot~;
#X obj 937 116 tgl 15 0 empty empty empty 17 7 0 10 -262144 -1 -1 0
1;
#X obj 1276 74 vd~ \$0-DelayLine;
#X obj 1276 133 spigot~;
#X obj 1328 114 tgl 15 0 empty empty empty 17 7 0 10 -262144 -1 -1
0 1;
#X obj 972 252 t b f;
#X obj 1032 252 t b f;
#X obj 1098 249 t b f;
#X obj 1158 249 t b f;
#X obj 1228 248 t b f;
#X text 469 -215 dry/wet;
#X obj 334 -214 hsl 128 15 0 1 0 0 empty empty empty -2 -8 0 10 -262144
-1 -1 0 1;
#X obj 262 -105 expr 1 - $f1;
#X obj 151 -111 inlet~;
#X obj 290 528 outlet~;
#X obj 423 95 r \$0-t1;
#X obj 310 -333 tgl 15 0 empty empty empty 17 7 0 10 -262144 -1 -1
0 1;
#X obj 345 -333 tgl 15 0 empty empty empty 17 7 0 10 -262144 -1 -1
0 1;
#X obj 380 -333 tgl 15 0 empty empty empty 17 7 0 10 -262144 -1 -1
0 1;
#X obj 414 -333 tgl 15 0 empty empty empty 17 7 0 10 -262144 -1 -1
0 1;
#X obj 450 -333 tgl 15 0 empty empty empty 17 7 0 10 -262144 -1 -1
0 1;
#X obj 485 -333 tgl 15 0 empty empty empty 17 7 0 10 -262144 -1 -1
0 1;
#X obj 520 -333 tgl 15 0 empty empty empty 17 7 0 10 -262144 -1 -1
0 1;
#X obj 555 -333 tgl 15 0 empty empty empty 17 7 0 10 -262144 -1 -1
0 1;
#X obj 555 -316 s \$0-t8;
#X obj 554 96 r \$0-t2;
#X obj 683 94 r \$0-t3;
#X obj 810 95 r \$0-t4;
#X obj 942 93 r \$0-t5;
#X obj 1067 93 r \$0-t6;
#X obj 1211 94 r \$0-t7;
#X obj 1336 93 r \$0-t8;
#X obj 388 -19 r \$0-d1;
#X obj 310 -258 s \$0-d1;
#X floatatom 310 -278 5 0 30 0 - - -, f 5;
#X floatatom 310 -256 5 0 30 0 - - -, f 5;
#X obj 310 -236 s \$0-o1;
#X floatatom 345 -278 5 0 30 0 - - -, f 5;
#X floatatom 345 -256 5 0 30 0 - - -, f 5;
#X floatatom 380 -278 5 0 30 0 - - -, f 5;
#X floatatom 380 -256 5 0 30 0 - - -, f 5;
#X floatatom 415 -278 5 0 30 0 - - -, f 5;
#X floatatom 415 -256 5 0 30 0 - - -, f 5;
#X obj 345 -236 s \$0-o2;
#X obj 380 -236 s \$0-o3;
#X obj 415 -236 s \$0-o4;
#X obj 415 -258 s \$0-d4;
#X obj 380 -258 s \$0-d3;
#X obj 345 -258 s \$0-d2;
#X floatatom 450 -278 5 0 30 0 - - -, f 5;
#X floatatom 485 -278 5 0 30 0 - - -, f 5;
#X floatatom 520 -278 5 0 30 0 - - -, f 5;
#X floatatom 520 -256 5 0 30 0 - - -, f 5;
#X floatatom 555 -278 5 0 30 0 - - -, f 5;
#X floatatom 555 -256 5 0 30 0 - - -, f 5;
#X obj 520 -236 s \$0-o7;
#X obj 555 -236 s \$0-o8;
#X obj 555 -258 s \$0-d8;
#X obj 520 -258 s \$0-d7;
#X text 589 -279 depth;
#X text 585 -259 offset;
#X text 573 -334 activ.;
#X floatatom 310 -296 5 0 30 0 - - -, f 5;
#X floatatom 345 -296 5 0 30 0 - - -, f 5;
#X floatatom 380 -296 5 0 30 0 - - -, f 5;
#X obj 367 -42 osc~ 0.1;
#X obj 310 -276 s \$0-r1;
#X obj 345 -276 s \$0-r2;
#X obj 380 -276 s \$0-r3;
#X obj 415 -276 s \$0-r4;
#X obj 485 -276 s \$0-r6;
#X obj 522 -276 s \$0-r7;
#X obj 555 -276 s \$0-r8;
#X floatatom 415 -296 5 0 30 0 - - -, f 5;
#X floatatom 450 -296 5 0 30 0 - - -, f 5;
#X floatatom 485 -296 5 0 30 0 - - -, f 5;
#X floatatom 522 -296 5 0 30 0 - - -, f 5;
#X floatatom 555 -296 5 0 30 0 - - -, f 5;
#X obj 520 -316 s \$0-t7;
#X obj 485 -316 s \$0-t6;
#X obj 450 -316 s \$0-t5;
#X obj 414 -316 s \$0-t4;
#X obj 380 -316 s \$0-t3;
#X obj 345 -316 s \$0-t2;
#X obj 310 -316 s \$0-t1;
#X text 592 -298 rate;
#X obj 367 -67 r \$0-r1;
#X obj 394 26 r \$0-o1;
#X obj 494 4 *~ 5;
#X obj 494 47 +~ 20;
#X obj 628 2 *~ 5;
#X obj 628 45 +~ 20;
#X obj 755 -5 *~ 5;
#X obj 755 38 +~ 20;
#X obj 885 2 *~ 5;
#X obj 885 45 +~ 20;
#X obj 1011 -1 *~ 5;
#X obj 1011 42 +~ 20;
#X obj 1148 3 *~ 5;
#X obj 1148 46 +~ 20;
#X obj 1276 1 *~ 5;
#X obj 1276 44 +~ 20;
#X obj 494 -67 r \$0-r2;
#X obj 515 -19 r \$0-d2;
#X obj 521 26 r \$0-o2;
#X obj 628 -69 r \$0-r3;
#X obj 649 -21 r \$0-d3;
#X obj 655 24 r \$0-o3;
#X obj 755 -76 r \$0-r4;
#X obj 776 -28 r \$0-d4;
#X obj 782 17 r \$0-o4;
#X obj 885 -75 r \$0-r5;
#X obj 906 -21 r \$0-d5;
#X obj 912 24 r \$0-o5;
#X obj 1011 -72 r \$0-r6;
#X obj 1032 -24 r \$0-d6;
#X obj 1038 21 r \$0-o6;
#X obj 1148 -68 r \$0-r7;
#X obj 1169 -20 r \$0-d7;
#X obj 1175 25 r \$0-o7;
#X obj 1275 -70 r \$0-r8;
#X obj 1276 -45 osc~ 0.8;
#X obj 1297 -22 r \$0-d8;
#X obj 1303 23 r \$0-o8;
#X obj 494 -42 osc~ 0.2;
#X obj 628 -44 osc~ 0.3;
#X obj 755 -51 osc~ 0.4;
#X obj 885 -50 osc~ 0.5;
#X obj 1012 -47 osc~ 0.6;
#X obj 1148 -43 osc~ 0.7;
#X obj 1004 -366 inlet drywet;
#X obj 241 189 *~ 1;
#X obj 313 445 *~ 0;
#X obj 399 -707 inlet rate;
#X obj 399 -651 expr $f1 \; $f1*2 \; $f1*3 \; $f1*4 \; $f1*5 \; $f1*6
\; $f1*7 \; $f1*8;
#X connect 4 0 0 0;
#X connect 6 0 1 0;
#X connect 8 0 16 0;
#X connect 9 0 49 0;
#X connect 10 0 14 0;
#X connect 11 0 12 0;
#X connect 12 1 22 0;
#X connect 13 0 12 1;
#X connect 13 0 21 0;
#X connect 14 1 22 0;
#X connect 15 0 14 1;
#X connect 15 0 20 0;
#X connect 16 1 22 0;
#X connect 17 0 16 1;
#X connect 17 0 19 0;
#X connect 19 0 18 0;
#X connect 19 0 22 1;
#X connect 20 0 19 0;
#X connect 20 1 19 1;
#X connect 21 0 19 0;
#X connect 21 1 19 2;
#X connect 22 0 167 0;
#X connect 23 0 24 0;
#X connect 24 0 8 0;
#X connect 25 0 26 0;
#X connect 26 1 22 0;
#X connect 27 0 26 1;
#X connect 27 0 40 0;
#X connect 28 0 35 0;
#X connect 29 0 33 0;
#X connect 30 0 31 0;
#X connect 31 1 22 0;
#X connect 32 0 31 1;
#X connect 32 0 43 0;
#X connect 33 1 22 0;
#X connect 34 0 33 1;
#X connect 34 0 42 0;
#X connect 35 1 22 0;
#X connect 36 0 35 1;
#X connect 36 0 41 0;
#X connect 37 0 38 0;
#X connect 38 1 22 0;
#X connect 39 0 38 1;
#X connect 39 0 44 0;
#X connect 40 0 19 0;
#X connect 40 1 19 3;
#X connect 41 0 19 0;
#X connect 41 1 19 4;
#X connect 42 0 19 0;
#X connect 42 1 19 5;
#X connect 43 0 19 0;
#X connect 43 1 19 6;
#X connect 44 0 19 0;
#X connect 44 1 19 7;
#X connect 46 0 47 0;
#X connect 46 0 167 1;
#X connect 47 0 166 1;
#X connect 48 0 7 0;
#X connect 48 0 166 0;
#X connect 50 0 17 0;
#X connect 51 0 119 0;
#X connect 52 0 118 0;
#X connect 53 0 117 0;
#X connect 54 0 116 0;
#X connect 55 0 115 0;
#X connect 56 0 114 0;
#X connect 57 0 113 0;
#X connect 58 0 59 0;
#X connect 60 0 15 0;
#X connect 61 0 13 0;
#X connect 62 0 27 0;
#X connect 63 0 36 0;
#X connect 64 0 34 0;
#X connect 65 0 32 0;
#X connect 66 0 39 0;
#X connect 67 0 23 1;
#X connect 69 0 68 0;
#X connect 70 0 71 0;
#X connect 72 0 83 0;
#X connect 73 0 78 0;
#X connect 74 0 82 0;
#X connect 75 0 79 0;
#X connect 76 0 81 0;
#X connect 77 0 80 0;
#X connect 84 0 3 0;
#X connect 85 0 5 0;
#X connect 86 0 93 0;
#X connect 87 0 90 0;
#X connect 88 0 92 0;
#X connect 89 0 91 0;
#X connect 97 0 101 0;
#X connect 98 0 102 0;
#X connect 99 0 103 0;
#X connect 100 0 23 0;
#X connect 108 0 104 0;
#X connect 109 0 2 0;
#X connect 110 0 105 0;
#X connect 111 0 106 0;
#X connect 112 0 107 0;
#X connect 121 0 100 0;
#X connect 122 0 24 1;
#X connect 123 0 124 0;
#X connect 124 0 10 0;
#X connect 125 0 126 0;
#X connect 126 0 11 0;
#X connect 127 0 128 0;
#X connect 128 0 25 0;
#X connect 129 0 130 0;
#X connect 130 0 28 0;
#X connect 131 0 132 0;
#X connect 132 0 29 0;
#X connect 133 0 134 0;
#X connect 134 0 30 0;
#X connect 135 0 136 0;
#X connect 136 0 37 0;
#X connect 137 0 159 0;
#X connect 138 0 123 1;
#X connect 139 0 124 1;
#X connect 140 0 160 0;
#X connect 141 0 125 1;
#X connect 142 0 126 1;
#X connect 143 0 161 0;
#X connect 144 0 127 1;
#X connect 145 0 128 1;
#X connect 146 0 162 0;
#X connect 147 0 129 1;
#X connect 148 0 130 1;
#X connect 149 0 163 0;
#X connect 150 0 131 1;
#X connect 151 0 132 1;
#X connect 152 0 164 0;
#X connect 153 0 133 1;
#X connect 154 0 134 1;
#X connect 155 0 156 0;
#X connect 156 0 135 0;
#X connect 157 0 135 1;
#X connect 158 0 136 1;
#X connect 159 0 123 0;
#X connect 160 0 125 0;
#X connect 161 0 127 0;
#X connect 162 0 129 0;
#X connect 163 0 131 0;
#X connect 164 0 133 0;
#X connect 165 0 46 0;
#X connect 166 0 9 0;
#X connect 167 0 9 1;
#X connect 168 0 169 0;
#X connect 169 0 97 0;
#X connect 169 1 98 0;
#X connect 169 2 99 0;
#X connect 169 3 108 0;
#X connect 169 4 109 0;
#X connect 169 5 110 0;
#X connect 169 6 111 0;
#X connect 169 7 112 0;
#X coords 0 -1 1 1 320 160 1 305 -354;
