#N canvas 1 52 1918 980 10;
#X obj 439 -40 vsl 15 128 20 280 0 0 empty empty empty 0 -9 0 10 -233033
-63684 -1 0 1;
#X obj 633 -45 vradio 15 0 0 15 empty empty empty 0 -8 0 10 -233033
-63684 -1 0;
#X obj 633 192 + 1;
#X text 649 -46 1;
#X text 649 -31 2;
#X text 649 -15 3;
#X text 649 0 4;
#X text 649 15 5;
#X text 649 30 6;
#X text 649 44 7;
#X text 649 59 8;
#X text 649 75 9;
#X text 648 89 10;
#X text 648 103 11;
#X text 648 118 12;
#X text 649 134 13;
#X text 649 149 14;
#X text 649 164 15;
#X obj 563 505 hradio 60 0 0 6 empty empty empty 0 -8 0 10 -233033
-172228 -1 0;
#X msg 641 391 number \$1;
#N canvas 641 60 1278 972 metrocount 1;
#X obj 778 -148 t b f;
#X obj 778 -91 /;
#X msg 778 -117 1;
#X obj 778 -226 / 60;
#X obj 778 -27 * 1000;
#X text 807 -226 Number of beats per second (Hz);
#X text 807 -91 Duration of a beat (s);
#X text 821 -27 Duration of a beat (ms);
#X text 787 148 init value is 60 bpm;
#X text 744 -248 Actual tempo (BPM);
#X obj 758 -287 i;
#X obj 721 148 metro 1000;
#X obj 721 105 tgl 15 0 empty empty empty 17 7 0 10 -262144 -1 -1 0
1;
#X obj 721 328 i;
#X obj 753 328 + 1;
#X obj 735 282 loadbang;
#X obj 721 399 mod;
#X obj 721 431 sel 0;
#X text 868 25 SUBDIVISION;
#X obj 758 -322 inlet TEMPO;
#X obj 799 -287 loadbang;
#X msg 799 -265 60;
#X obj 868 44 inlet SUBDIV;
#X obj 721 526 outlet MAIN_BANG;
#X obj 744 212 outlet SECONDARY_BANG;
#X msg 735 304 0;
#X obj 982 449 i;
#X obj 1014 449 + 1;
#X msg 996 425 1;
#X obj 982 566 mod;
#X obj 996 400 loadbang;
#X obj 982 590 outlet CurrentBeatNb;
#X obj 495 -155 inlet ONOFF;
#X connect 0 0 2 0;
#X connect 0 1 1 1;
#X connect 1 0 4 0;
#X connect 2 0 1 0;
#X connect 3 0 0 0;
#X connect 4 0 11 1;
#X connect 10 0 3 0;
#X connect 11 0 13 0;
#X connect 11 0 24 0;
#X connect 11 0 26 0;
#X connect 12 0 11 0;
#X connect 13 0 14 0;
#X connect 13 0 16 0;
#X connect 14 0 13 1;
#X connect 15 0 25 0;
#X connect 16 0 17 0;
#X connect 17 0 23 0;
#X connect 19 0 10 0;
#X connect 20 0 21 0;
#X connect 21 0 3 0;
#X connect 22 0 16 1;
#X connect 22 0 29 1;
#X connect 25 0 13 1;
#X connect 26 0 27 0;
#X connect 26 0 29 0;
#X connect 27 0 26 1;
#X connect 28 0 26 1;
#X connect 29 0 31 0;
#X connect 30 0 28 0;
#X connect 32 0 12 0;
#X connect 32 0 25 0;
#X connect 32 0 28 0;
#X coords 0 0 1 1 85 60 0;
#X restore 488 268 pd metrocount;
#X text 429 -60 TEMPO;
#X floatatom 440 100 5 0 0 0 - - -, f 5;
#X text 596 -64 NUMBER SUBBEATS;
#X obj 478 216 tgl 15 0 empty empty empty 17 7 0 10 -262144 -1 -1 0
1;
#X connect 0 0 20 1;
#X connect 0 0 22 0;
#X connect 1 0 2 0;
#X connect 2 0 19 0;
#X connect 2 0 20 2;
#X connect 19 0 18 0;
#X connect 20 2 18 0;
#X connect 24 0 20 0;
