#N canvas 0 49 1920 1008 10;
#X obj 238 489 +~;
#X text 575 56 https://guitarextended.files.wordpress.com/2012/07/pd-downthestairs.jpg
;
#X text 602 27 implement pitch-shifting!;
#X obj 284 -210 inlet feedbackgain;
#X obj 96 33 inlet~ audio;
#X obj 321 -182 inlet drywet;
#X obj 238 614 outlet~ audio;
#X msg 321 127 \$1 10;
#X obj 321 151 line~;
#X obj 216 350 *~;
#X obj 319 325 expr~ 1 - \$1;
#X obj 281 423 *~;
#X msg 284 125 \$1 10;
#X obj 248 -233 inlet delaytime;
#X obj 248 -124 vsl 15 128 0 2 0 0 empty empty empty 0 -9 0 10 -262144
-1 -1 3100 1;
#X obj 284 -124 vsl 15 128 0 1 0 0 empty empty empty 0 -9 0 10 -262144
-1 -1 7300 1;
#X obj 321 -124 vsl 15 128 0 1 0 0 empty empty empty 0 -9 0 10 -262144
-1 -1 9500 1;
#X text 242 -140 time;
#X text 317 -140 d/w;
#X text 283 -140 f/b;
#X floatatom 241 12 5 0 0 0 - - -, f 5;
#X floatatom 279 12 5 0 0 0 - - -, f 5;
#X floatatom 317 12 5 0 0 0 - - -, f 5;
#X obj 216 206 vd~ \$0-DelayLine \$1;
#X obj 31 270 delwrite~ \$0-DelayLine 1000;
#X obj 284 154 line~;
#X obj 248 49 * 1000;
#X obj 175 206 *~;
#X obj 216 124 line~;
#X msg 216 95 \$1 100;
#X obj 398 -113 a_taptempo;
#X obj 340 -103 bng 15 250 50 0 empty empty empty 17 7 0 10 -262144
-1 -1;
#X obj 398 -86 / 1000;
#X obj 357 13 tgl 15 0 empty empty empty 17 7 0 10 -262144 -1 -1 1
1;
#X obj 96 64 spigot~;
#X text 82 88 bypass;
#X obj 154 232 spigot~;
#X text 353 -105 tap;
#X obj 528 -47 inlet OnOff;
#X connect 0 0 6 0;
#X connect 3 0 15 0;
#X connect 4 0 34 0;
#X connect 5 0 16 0;
#X connect 7 0 8 0;
#X connect 8 0 9 1;
#X connect 8 0 10 0;
#X connect 9 0 0 0;
#X connect 10 0 11 1;
#X connect 11 0 0 1;
#X connect 12 0 25 0;
#X connect 13 0 14 0;
#X connect 14 0 20 0;
#X connect 14 0 26 0;
#X connect 15 0 12 0;
#X connect 15 0 21 0;
#X connect 16 0 7 0;
#X connect 16 0 22 0;
#X connect 23 0 9 0;
#X connect 23 0 27 0;
#X connect 25 0 27 1;
#X connect 26 0 29 0;
#X connect 27 0 36 0;
#X connect 28 0 23 0;
#X connect 29 0 28 0;
#X connect 30 0 32 0;
#X connect 31 0 30 0;
#X connect 32 0 14 0;
#X connect 33 0 34 1;
#X connect 33 0 36 1;
#X connect 34 0 6 0;
#X connect 34 1 11 0;
#X connect 34 1 24 0;
#X connect 36 1 24 0;
#X connect 38 0 33 0;
#X coords 0 -1 1 1 135 186 1 239 -156;
