#N canvas 0 49 1920 1008 10;
#X obj 1212 348 *~;
#X obj 1212 379 clip~ -1 1;
#X obj 1301 379 overdrive~;
#X obj 1143 -219 vsl 15 128 1 10 0 0 empty empty empty 0 -9 0 10 -262144
-1 -1 10300 1;
#X obj 1185 -219 vsl 15 128 0 1 0 0 empty empty empty 0 -9 0 10 -262144
-1 -1 7400 1;
#X floatatom 1135 -83 5 0 0 0 - - -, f 5;
#X obj 1112 192 spigot~;
#X obj 1148 67 sel 0 1 2;
#X msg 1120 129 0;
#X obj 1173 193 spigot~;
#X msg 1155 129 0;
#X obj 1113 367 /~ 0.5;
#X obj 1229 581 outlet~;
#X msg 1184 129 1;
#X msg 1214 129 0;
#X msg 1242 129 1;
#X obj 961 -2 inlet~;
#X obj 1229 539 *~;
#X obj 1222 -220 vsl 15 128 0 1 0 0 empty empty empty 0 -9 0 10 -262144
-1 -1 11300 1;
#X text 1100 348 bypass;
#X text 1202 331 1- clip;
#X text 1292 326 2- overdrive;
#X text 1220 -69 vol;
#X floatatom 1216 -84 5 0 0 0 - - -, f 5;
#X text 1135 -69 level;
#X floatatom 1178 -83 5 0 0 0 - - -, f 5;
#X text 1175 -69 amount;
#X obj 1143 -315 inlet level;
#X obj 1185 -292 inlet amount;
#X obj 1222 -272 inlet volume;
#X text 1288 -125 bypass;
#X text 1288 -109 clip;
#X text 1288 -93 OD;
#X obj 1271 -123 vradio 15 0 0 3 empty empty empty 0 -8 0 10 -262144
-1 -1 2;
#X floatatom 1265 -73 5 0 0 0 - - -, f 5;
#X msg 1001 182 1 10;
#X obj 1001 216 line~;
#X obj 1385 -263 inlet Sel;
#X obj 1384 -213 f 0;
#X obj 1420 -214 + 1;
#X obj 1420 -191 mod 3;
#X connect 0 0 1 0;
#X connect 1 0 17 0;
#X connect 2 0 17 0;
#X connect 3 0 2 0;
#X connect 3 0 5 0;
#X connect 3 0 0 1;
#X connect 4 0 25 0;
#X connect 4 0 2 1;
#X connect 6 0 11 0;
#X connect 6 1 0 0;
#X connect 7 0 8 0;
#X connect 7 0 35 0;
#X connect 7 1 10 0;
#X connect 7 1 13 0;
#X connect 7 2 14 0;
#X connect 7 2 15 0;
#X connect 8 0 6 1;
#X connect 8 0 9 1;
#X connect 9 0 11 0;
#X connect 9 1 2 0;
#X connect 10 0 9 1;
#X connect 11 0 17 0;
#X connect 13 0 6 1;
#X connect 14 0 6 1;
#X connect 15 0 9 1;
#X connect 16 0 6 0;
#X connect 16 0 9 0;
#X connect 17 0 12 0;
#X connect 18 0 17 1;
#X connect 18 0 23 0;
#X connect 27 0 3 0;
#X connect 28 0 4 0;
#X connect 29 0 18 0;
#X connect 33 0 34 0;
#X connect 33 0 7 0;
#X connect 35 0 36 0;
#X connect 36 0 17 1;
#X connect 37 0 38 0;
#X connect 38 0 39 0;
#X connect 39 0 40 0;
#X connect 39 0 38 1;
#X connect 40 0 33 0;
#X coords 0 -1 1 1 200 190 1 1128 -241;
