#N canvas 0 49 1920 1008 10;
#X obj 868 584 +~;
#X obj 1012 506 *~ 0;
#X obj 959 187 osc~;
#X text 1018 407 delay time (ms);
#X obj 959 209 +~ 1;
#X text 989 186 -1:1;
#X text 990 208 0:2;
#X obj 959 231 *~ 0.5;
#X text 1002 229 0:1;
#X obj 959 306 *~ 1, f 6;
#X text 1001 306 0:depth;
#X obj 1012 385 +~ 0.001;
#X obj 977 -137 inlet depth;
#X obj 943 -160 inlet rate;
#X obj 1048 -96 inlet feedback;
#X obj 1012 -117 inlet offset;
#X obj 829 76 inlet~;
#X obj 868 739 outlet~;
#X obj 961 607 expr 1/(1+$f1);
#X text 1026 591 avoid clipping;
#X obj 868 707 *~ 1;
#X obj 647 247 delwrite~ \$0-DelayLine;
#X obj 1012 424 vd~ \$0-DelayLine;
#X obj 943 -40 vsl 15 128 0.3 30 1 0 empty empty empty 0 -9 0 10 -262144
-1 -1 12700 1;
#X obj 977 -40 vsl 15 128 0 50 0 0 empty empty empty 0 -9 0 10 -262144
-1 -1 12700 1;
#X obj 1012 -40 vsl 15 128 0 50 0 0 empty empty empty 0 -9 0 10 -262144
-1 -1 12700 1;
#X obj 1048 -40 vsl 15 128 0 1 0 0 empty empty empty 0 -9 0 10 -262144
-1 -1 12700 1;
#X text 933 -59 rate;
#X text 967 -59 depth;
#X text 1012 -58 DC;
#X text 1045 -58 f/b;
#X floatatom 933 97 5 0 0 0 - - -, f 5;
#X floatatom 970 97 5 0 0 0 - - -, f 5;
#X floatatom 1006 97 5 0 0 0 - - -, f 5;
#X floatatom 1041 97 5 0 0 0 - - -, f 5;
#X obj 1092 97 tgl 15 0 empty empty empty 17 7 0 10 -262144 -1 -1 0
1;
#X obj 829 185 spigot~;
#X text 811 247 bypass;
#X obj 1208 -34 inlet OnOff;
#X connect 0 0 20 0;
#X connect 1 0 0 1;
#X connect 2 0 4 0;
#X connect 4 0 7 0;
#X connect 7 0 9 0;
#X connect 9 0 11 0;
#X connect 11 0 22 0;
#X connect 12 0 24 0;
#X connect 13 0 23 0;
#X connect 14 0 26 0;
#X connect 15 0 25 0;
#X connect 16 0 36 0;
#X connect 18 0 20 1;
#X connect 20 0 17 0;
#X connect 22 0 1 0;
#X connect 23 0 2 0;
#X connect 23 0 31 0;
#X connect 24 0 9 1;
#X connect 24 0 32 0;
#X connect 25 0 11 1;
#X connect 25 0 33 0;
#X connect 26 0 18 0;
#X connect 26 0 1 1;
#X connect 26 0 34 0;
#X connect 35 0 36 1;
#X connect 36 0 17 0;
#X connect 36 1 0 0;
#X connect 36 1 21 0;
#X connect 38 0 35 0;
#X coords 0 -1 1 1 184 186 1 926 -71;
