#N canvas 0 49 1920 1008 10;
#X obj 513 248 lop~;
#X obj 513 270 lop~;
#X obj 513 292 lop~;
#X obj 513 314 lop~;
#X obj 513 336 lop~;
#X obj 513 358 lop~;
#X obj 513 380 lop~;
#X obj 513 402 lop~;
#X obj 513 424 lop~;
#X obj 513 446 lop~;
#X obj 652 -195 inlet fc;
#X floatatom 652 30 8 0 0 0 - - -, f 8;
#X obj 415 68 inlet~ audio;
#X obj 513 497 outlet~ audio;
#X obj 415 152 spigot~;
#X obj 711 36 tgl 15 0 empty empty empty 17 7 0 10 -262144 -1 -1 1
1;
#X text 420 249 bypass;
#X obj 652 -109 vsl 15 128 20 15000 1 0 empty empty empty 0 -9 0 10
-262144 -1 -1 6844 1;
#X text 669 -67 fc;
#X connect 0 0 1 0;
#X connect 1 0 2 0;
#X connect 2 0 3 0;
#X connect 3 0 4 0;
#X connect 4 0 5 0;
#X connect 5 0 6 0;
#X connect 6 0 7 0;
#X connect 7 0 8 0;
#X connect 8 0 9 0;
#X connect 9 0 13 0;
#X connect 10 0 17 0;
#X connect 11 0 9 1;
#X connect 11 0 8 1;
#X connect 11 0 7 1;
#X connect 11 0 6 1;
#X connect 11 0 5 1;
#X connect 11 0 4 1;
#X connect 11 0 3 1;
#X connect 11 0 2 1;
#X connect 11 0 1 1;
#X connect 11 0 0 1;
#X connect 12 0 14 0;
#X connect 14 0 13 0;
#X connect 14 1 0 0;
#X connect 15 0 14 1;
#X connect 17 0 11 0;
#X coords 0 -1 1 1 85 180 1 645 -124;
