#N canvas 0 52 1920 981 10;
#X obj 364 -524 inlet outmin;
#X obj 454 -524 inlet outmax;
#X floatatom 173 -328 5 0 0 0 - - -, f 5;
#X text 178 -348 a (slope);
#X obj 364 -426 -, f 5;
#X obj 364 -486 t b f;
#X obj 173 -451 -, f 5;
#X obj 173 -487 t b f;
#X obj 173 -365 /;
#X obj 173 -423 t b f;
#X obj 255 -197 -, f 5;
#X obj 255 -263 *;
#X obj 255 -237 t b f;
#X floatatom 255 -162 5 0 0 0 - - -, f 5;
#X text 261 -179 b (offset);
#X obj 35 -531 inlet value;
#X obj 141 -94 outlet mappedvalue;
#X obj 103 -193 *;
#X obj 141 -129 +;
#X obj 173 -525 inlet inmin;
#X obj 263 -525 inlet inmax;
#X connect 0 0 5 0;
#X connect 0 0 10 0;
#X connect 1 0 4 0;
#X connect 2 0 11 0;
#X connect 2 0 17 1;
#X connect 4 0 8 0;
#X connect 5 0 4 0;
#X connect 5 1 4 1;
#X connect 6 0 9 0;
#X connect 7 0 6 0;
#X connect 7 1 6 1;
#X connect 8 0 2 0;
#X connect 9 0 8 0;
#X connect 9 1 8 1;
#X connect 10 0 13 0;
#X connect 11 0 12 0;
#X connect 12 0 10 0;
#X connect 12 1 10 1;
#X connect 13 0 18 1;
#X connect 15 0 17 0;
#X connect 17 0 18 0;
#X connect 18 0 16 0;
#X connect 19 0 7 0;
#X connect 19 0 11 1;
#X connect 20 0 6 0;
