#N canvas 0 49 1920 1008 10;
#X obj 892 187 inlet~;
#X obj 900 986 outlet~;
#X obj 937 820 +~;
#X obj 982 747 *~;
#X obj 1193 221 inlet feedback;
#X obj 1193 291 vsl 15 128 0 1 0 0 empty empty empty 0 -9 0 10 -262144
-1 -1 0 1;
#X obj 1077 497 osc~;
#X obj 1087 291 vsl 15 128 0 3 0 0 empty empty empty 0 -9 0 10 -262144
-1 -1 0 1;
#X obj 1087 148 inlet rate;
#X text 1105 497 -1:1;
#X obj 1077 520 +~ 1;
#X obj 1077 542 *~ 0.5;
#X text 1106 519 0:2;
#X text 1117 542 0:1;
#X obj 1159 291 vsl 15 128 0 1 0 0 empty empty empty 0 -9 0 10 -262144
-1 -1 0 1;
#X obj 1077 618 clip~ 0 1;
#X text 1135 617 filters take poles and zeros only between -1 and 1
;
#N canvas 0 49 1920 1008 allpass 0;
#X obj 137 53 inlet~ audio;
#X obj 259 68 inlet~ coef;
#X obj 308 665 outlet~ audio;
#X obj 137 165 rzero_rev~;
#X obj 137 187 rpole~;
#X obj 137 227 rzero_rev~;
#X obj 137 249 rpole~;
#X obj 137 286 rzero_rev~;
#X obj 137 308 rpole~;
#X obj 137 345 rzero_rev~;
#X obj 137 367 rpole~;
#X obj 137 405 rzero_rev~;
#X obj 137 427 rpole~;
#X obj 137 471 rzero_rev~;
#X obj 137 493 rpole~;
#X obj 137 531 rzero_rev~;
#X obj 137 553 rpole~;
#X obj 137 598 rzero_rev~;
#X obj 137 620 rpole~;
#X obj 308 165 rzero_rev~;
#X obj 308 187 rpole~;
#X obj 308 227 rzero_rev~;
#X obj 308 249 rpole~;
#X obj 308 286 rzero_rev~;
#X obj 308 308 rpole~;
#X obj 308 345 rzero_rev~;
#X obj 308 367 rpole~;
#X obj 308 405 rzero_rev~;
#X obj 308 427 rpole~;
#X obj 308 471 rzero_rev~;
#X obj 308 493 rpole~;
#X obj 308 531 rzero_rev~;
#X obj 308 553 rpole~;
#X obj 308 598 rzero_rev~;
#X obj 308 620 rpole~;
#X connect 0 0 3 0;
#X connect 1 0 3 1;
#X connect 1 0 4 1;
#X connect 1 0 5 1;
#X connect 1 0 6 1;
#X connect 1 0 7 1;
#X connect 1 0 8 1;
#X connect 1 0 9 1;
#X connect 1 0 10 1;
#X connect 1 0 11 1;
#X connect 1 0 12 1;
#X connect 1 0 13 1;
#X connect 1 0 14 1;
#X connect 1 0 15 1;
#X connect 1 0 16 1;
#X connect 1 0 17 1;
#X connect 1 0 18 1;
#X connect 1 0 19 1;
#X connect 1 0 20 1;
#X connect 1 0 21 1;
#X connect 1 0 22 1;
#X connect 1 0 23 1;
#X connect 1 0 24 1;
#X connect 1 0 25 1;
#X connect 1 0 26 1;
#X connect 1 0 27 1;
#X connect 1 0 28 1;
#X connect 1 0 29 1;
#X connect 1 0 30 1;
#X connect 1 0 31 1;
#X connect 1 0 32 1;
#X connect 1 0 33 1;
#X connect 1 0 34 1;
#X connect 3 0 4 0;
#X connect 4 0 5 0;
#X connect 5 0 6 0;
#X connect 6 0 7 0;
#X connect 7 0 8 0;
#X connect 8 0 9 0;
#X connect 9 0 10 0;
#X connect 10 0 11 0;
#X connect 11 0 12 0;
#X connect 12 0 13 0;
#X connect 13 0 14 0;
#X connect 14 0 15 0;
#X connect 15 0 16 0;
#X connect 16 0 17 0;
#X connect 17 0 18 0;
#X connect 18 0 19 0;
#X connect 19 0 20 0;
#X connect 20 0 21 0;
#X connect 21 0 22 0;
#X connect 22 0 23 0;
#X connect 23 0 24 0;
#X connect 24 0 25 0;
#X connect 25 0 26 0;
#X connect 26 0 27 0;
#X connect 27 0 28 0;
#X connect 28 0 29 0;
#X connect 29 0 30 0;
#X connect 30 0 31 0;
#X connect 31 0 32 0;
#X connect 32 0 33 0;
#X connect 33 0 34 0;
#X connect 34 0 2 0;
#X restore 1020 675 pd allpass;
#X obj 1122 291 vsl 15 128 0 1 0 0 empty empty empty 0 -9 0 10 -262144
-1 -1 0 1;
#X obj 1122 172 inlet depth;
#X obj 1159 195 inlet offset;
#X text 1119 595 offset:1+offset;
#X text 1105 570 0:depth;
#X text 1081 275 rate;
#X text 1115 275 depth;
#X text 1157 275 DC;
#X text 1190 274 f/b;
#X obj 1077 596 +~ 0.6;
#X obj 1077 570 *~ 0.3;
#X floatatom 1078 428 5 0 0 0 - - -, f 5;
#X floatatom 1117 428 5 0 0 0 - - -, f 5;
#X floatatom 1153 428 5 0 0 0 - - -, f 5;
#X floatatom 1189 428 5 0 0 0 - - -, f 5;
#X obj 1235 428 tgl 15 0 empty empty empty 17 7 0 10 -262144 -1 -1
0 1;
#X obj 892 455 spigot~;
#X text 873 509 bypass;
#X obj 1370 275 inlet OnOff;
#X connect 0 0 34 0;
#X connect 2 0 1 0;
#X connect 3 0 2 1;
#X connect 4 0 5 0;
#X connect 5 0 3 1;
#X connect 5 0 32 0;
#X connect 6 0 10 0;
#X connect 7 0 6 0;
#X connect 7 0 29 0;
#X connect 8 0 7 0;
#X connect 10 0 11 0;
#X connect 11 0 28 0;
#X connect 14 0 27 1;
#X connect 14 0 31 0;
#X connect 15 0 17 1;
#X connect 17 0 3 0;
#X connect 18 0 28 1;
#X connect 18 0 30 0;
#X connect 19 0 18 0;
#X connect 20 0 14 0;
#X connect 27 0 15 0;
#X connect 28 0 27 0;
#X connect 33 0 34 1;
#X connect 34 0 1 0;
#X connect 34 1 17 0;
#X connect 34 1 2 0;
#X connect 36 0 33 0;
#X coords 0 -1 1 1 184 190 1 1069 256;
