#N canvas 1 1104 1918 1008 10;
#X obj 396 630 tabwrite~ array1;
#N canvas 0 0 450 300 (subpatch) 0;
#X array array1 100 float 3 black black;
#A 0 0 0 0 0 0 0 0 0 0 0 0 0 0 0 0 0 0 0 0 0 0 0 0 0 0 0 0 0 0 0 0
0 0 0 0 0 0 0 0 0 0 0 0 0 0 0 0 0 0 0 0 0 0 0 0 0 0 0 0 0 0 0 0 0 0
0 0 0 0 0 0 0 0 0 0 0 0 0 0 0 0 0 0 0 0 0 0 0 0 0 0 0 0 0 0 0.797611
0 0 0 0;
#X coords 0 1 100 -1 200 140 1;
#X restore 553 131 graph;
#X floatatom 68 51 5 0 0 0 - - -, f 5;
#X obj 395 101 tgl 15 0 empty empty empty 17 7 0 10 -262144 -1 -1 0
1;
#X obj 395 148 metro 50;
#X obj 395 44 inlet display;
#X obj 57 27 inlet frequency;
#X obj 199 687 outlet~ sound;
#X obj 285 28 inlet Amplitude;
#X obj 199 500 *~;
#X obj 285 226 min 1;
#X obj 285 180 abs;
#X floatatom 292 51 5 0 0 0 - - -, f 5;
#X text 104 117 asc;
#X text 105 128 0:1;
#X obj 57 123 phasor~;
#X obj 57 176 -~ 0.99;
#X obj 57 224 clip~ 0 1;
#X obj 57 390 *~ 100;
#X text 107 169 asc;
#X text 108 180 -0.99:0.01;
#X text 119 221 mostly 0 \, sometimes 0.01;
#X connect 3 0 4 0;
#X connect 4 0 0 0;
#X connect 5 0 3 0;
#X connect 6 0 2 0;
#X connect 6 0 15 0;
#X connect 8 0 11 0;
#X connect 8 0 12 0;
#X connect 9 0 0 0;
#X connect 9 0 7 0;
#X connect 10 0 9 1;
#X connect 11 0 10 0;
#X connect 15 0 16 0;
#X connect 16 0 17 0;
#X connect 17 0 18 0;
#X connect 18 0 9 0;
