#N canvas 0 52 1920 1005 10;
#X obj 563 168 phasor~;
#X obj 572 627 expr~ $v1<$v2;
#X obj 877 344 osc~;
#X obj 877 369 abs~;
#X obj 719 185 vsl 15 128 0.25 25 1 0 empty empty empty 0 -9 0 10 -262144
-1 -1 0 1;
#X obj 572 660 outlet~;
#X obj 563 120 inlet;
#X text 569 144 freq;
#X obj 785 373 sig~;
#X obj 684 185 vsl 15 128 0 1 0 0 empty empty empty 0 -9 0 10 -262144
-1 -1 0 1;
#X obj 817 414 *~;
#X obj 695 339 hradio 15 0 0 2 empty empty empty 0 -8 0 10 -262144
-1 -1 0;
#X msg 968 340 1;
#X msg 998 341 0;
#X floatatom 633 212 5 0 0 0 - - -, f 5;
#X msg 1069 342 1;
#X msg 1098 342 0;
#X obj 979 316 sel 0 1, f 36;
#X obj 904 413 *~;
#X obj 986 110 inlet SelectMode;
#X obj 732 24 inlet StaticDutyCycle;
#X obj 885 29 inlet DynamicDutyCycle;
#X text 677 353 stat.;
#X text 717 353 dyn.;
#X text 678 170 duty cycle;
#X text 633 235 freq;
#X floatatom 676 320 5 0 0 0 - - -, f 5;
#X floatatom 712 320 5 0 0 0 - - -, f 5;
#X connect 0 0 1 0;
#X connect 1 0 5 0;
#X connect 2 0 3 0;
#X connect 3 0 18 0;
#X connect 4 0 2 0;
#X connect 4 0 27 0;
#X connect 6 0 14 0;
#X connect 8 0 10 0;
#X connect 9 0 8 0;
#X connect 9 0 26 0;
#X connect 10 0 1 1;
#X connect 11 0 17 0;
#X connect 12 0 10 1;
#X connect 13 0 18 1;
#X connect 14 0 0 0;
#X connect 15 0 18 1;
#X connect 16 0 10 1;
#X connect 17 0 12 0;
#X connect 17 0 13 0;
#X connect 17 1 15 0;
#X connect 17 1 16 0;
#X connect 18 0 1 1;
#X connect 19 0 11 0;
#X connect 20 0 9 0;
#X connect 21 0 4 0;
#X coords 0 -1 1 1 120 210 1 625 158;
