#N canvas 0 49 1920 1008 10;
#X obj 131 62 inlet~;
#X obj 64 367 outlet~;
#X obj 131 242 freeverb~;
#X floatatom 378 -45 5 0 0 0 - - -, f 5;
#X obj 242 -45 hsl 128 15 0 1 0 0 empty empty empty -2 -8 0 10 -262144
-1 -1 0 1;
#X obj 242 -163 inlet roomsize;
#X msg 243 128 roomsize \$1;
#X floatatom 378 -26 5 0 0 0 - - -, f 5;
#X obj 242 -26 hsl 128 15 0 2 0 0 empty empty empty -2 -8 0 10 -262144
-1 -1 0 1;
#X obj 250 -138 inlet damping;
#X msg 243 150 damping \$1;
#X floatatom 378 -6 5 0 0 0 - - -, f 5;
#X obj 242 -6 hsl 128 15 0 1 0 0 empty empty empty -2 -8 0 10 -262144
-1 -1 0 1;
#X obj 264 -112 inlet wetdry;
#X msg 243 189 wet \$1;
#X obj 293 188 expr 1 - $f1;
#X msg 293 210 dry \$1;
#X text 215 -47 size;
#X text 214 -28 damp;
#X text 218 -8 d/w;
#X obj 131 138 spigot~;
#X obj 416 2 tgl 15 0 empty empty empty 17 7 0 10 -262144 -1 -1 0 1
;
#X text 84 171 bypass;
#X connect 0 0 20 0;
#X connect 2 0 1 0;
#X connect 4 0 3 0;
#X connect 4 0 6 0;
#X connect 5 0 4 0;
#X connect 6 0 2 0;
#X connect 8 0 7 0;
#X connect 8 0 10 0;
#X connect 9 0 8 0;
#X connect 10 0 2 0;
#X connect 12 0 11 0;
#X connect 12 0 14 0;
#X connect 12 0 15 0;
#X connect 13 0 12 0;
#X connect 14 0 2 0;
#X connect 15 0 16 0;
#X connect 16 0 2 0;
#X connect 20 0 1 0;
#X connect 20 1 2 0;
#X connect 21 0 20 1;
#X coords 0 -1 1 1 220 100 1 213 -81;
