#N canvas 1 45 1918 1008 10;
#X obj 558 -128 soundfiler;
#X obj 462 669 *~;
#X obj 867 79 vsl 15 128 0 1 0 0 empty empty empty 0 -9 0 10 -262144
-1 -1 3900 1;
#X text 864 63 vol;
#X text 527 -62 length of signal;
#X obj 463 418 phasor~;
#X obj 463 465 *~;
#X text 467 440 0 to 1;
#X text 469 502 1 to length;
#X obj 412 200 t b f;
#X obj 462 600 clip~;
#X msg 444 297 \$1 5;
#X obj 448 342 line~;
#X obj 669 141 hsl 128 15 1 328704 0 0 empty empty empty -2 -8 0 10
-262144 -1 -1 10150 1;
#X obj 669 106 hsl 128 15 1 328704 0 0 empty empty empty -2 -8 0 10
-262144 -1 -1 800 1;
#X msg 666 16 range 1 \$1;
#X obj 630 95 vsl 15 128 0.1 10 1 0 empty empty empty 0 -9 0 10 -262144
-1 -1 7250 1;
#X obj 563 547 line;
#X msg 563 525 \$1 5;
#X obj 607 547 line;
#X msg 607 525 \$1 5;
#X obj 558 -104 t f f f;
#X obj 427 110 expr 1/$f1* $f2;
#X msg 504 -195 44100, f 7;
#X obj 504 -220 loadbang;
#X obj 412 160 *;
#X text 621 78 speed;
#X text 693 174 direction;
#X obj 462 699 outlet~;
#X msg 483 293 0;
#X obj 577 168 bng 15 250 50 0 empty empty empty 17 7 0 10 -262144
-1 -1;
#X text 593 188 stop;
#X obj 578 190 bng 15 250 50 0 empty empty empty 17 7 0 10 -262144
-1 -1;
#X text 803 97 start;
#X text 804 136 end;
#X text 593 167 play;
#X floatatom 803 197 5 0 0 0 - - -, f 5;
#X text 803 213 sr;
#X obj 720 -56 inlet speed;
#X obj 695 -100 inlet play;
#X obj 710 -79 inlet stop;
#X obj 736 -31 inlet start;
#X obj 756 13 inlet dir;
#X obj 712 193 tgl 17 0 empty empty empty 17 7 0 10 -262144 -1 -1 1
1;
#X obj 313 239 expr if($f1==0 \, $f2 \, 0 - $f2);
#X obj 777 35 inlet vol;
#X obj 918 -86 openpanel;
#X obj 578 92 bng 15 250 50 0 empty empty empty 17 7 0 10 -262144 -1
-1;
#X obj 918 -38 t b a;
#X text 573 75 open;
#X floatatom 805 152 8 0 0 0 - - -, f 8;
#X floatatom 805 112 8 0 0 0 - - -, f 8;
#X floatatom 648 219 5 0 0 0 - - -, f 5;
#X floatatom 415 376 5 0 0 0 - - -, f 5;
#X msg 918 -63 set read -resize \$1 sound;
#X obj 745 -9 inlet end;
#X obj 462 643 tabread4~ sound;
#X floatatom 396 -26 5 0 0 0 - - -, f 5;
#X obj 1093 101 table sound;
#X obj 404 504 env~;
#X floatatom 404 526 5 0 0 0 - - -, f 5;
#X msg 603 -200 1;
#X msg 918 -108 symbol /home/trololo/__BANQUEDESONS/;
#X msg 918 -7 read -resize /home/trololo/__BANQUEDESONS/Sonniss.com\ -\ GDC\ -\ Game\ Audio\ Bundle/Coll\ Anderson\ -\ Monster\ Zombie\ Vocal/EFX\ SD\ Rage\ Monster\ 13\ B.wav
sound;
#X floatatom 850 218 5 0 0 0 - - -, f 5;
#X connect 0 0 21 0;
#X connect 0 0 57 0;
#X connect 1 0 28 0;
#X connect 2 0 1 1;
#X connect 2 0 64 0;
#X connect 5 0 6 0;
#X connect 6 0 10 0;
#X connect 6 0 59 0;
#X connect 9 0 44 0;
#X connect 9 1 44 1;
#X connect 10 0 56 0;
#X connect 11 0 12 0;
#X connect 12 0 5 0;
#X connect 13 0 20 0;
#X connect 13 0 50 0;
#X connect 14 0 18 0;
#X connect 14 0 51 0;
#X connect 15 0 14 0;
#X connect 15 0 13 0;
#X connect 16 0 25 0;
#X connect 16 0 52 0;
#X connect 17 0 10 1;
#X connect 18 0 17 0;
#X connect 19 0 10 2;
#X connect 20 0 19 0;
#X connect 21 0 13 0;
#X connect 21 0 6 1;
#X connect 21 1 15 0;
#X connect 21 2 22 0;
#X connect 22 0 25 1;
#X connect 23 0 22 1;
#X connect 23 0 36 0;
#X connect 24 0 23 0;
#X connect 24 0 61 0;
#X connect 25 0 9 0;
#X connect 29 0 12 0;
#X connect 30 0 16 0;
#X connect 32 0 29 0;
#X connect 36 0 22 1;
#X connect 38 0 16 0;
#X connect 39 0 30 0;
#X connect 40 0 32 0;
#X connect 41 0 14 0;
#X connect 42 0 43 0;
#X connect 43 0 44 0;
#X connect 44 0 11 0;
#X connect 45 0 2 0;
#X connect 46 0 54 0;
#X connect 47 0 62 0;
#X connect 48 0 63 0;
#X connect 48 1 63 0;
#X connect 53 0 5 0;
#X connect 54 0 48 0;
#X connect 55 0 13 0;
#X connect 56 0 1 0;
#X connect 59 0 60 0;
#X connect 61 0 16 0;
#X connect 62 0 46 0;
#X connect 63 0 0 0;
#X coords 0 -1 1 1 315 180 1 573 58;
