#N canvas 0 52 1920 981 10;
#X obj 1032 154 list cat;
#X msg 873 113 clear;
#X msg 1032 121 1;
#X obj 1049 265 spigot;
#X obj 1027 265 tgl 15 0 empty empty empty 17 7 0 10 -262144 -1 -1
1 1;
#X obj 1011 202 bng 15 250 50 0 empty empty empty 17 7 0 10 -262144
-1 -1;
#X obj 1032 59 tgl 35 0 empty empty empty 17 7 0 10 -262144 -1 -1 0
1;
#X obj 1032 98 sel 1;
#X obj 1072 59 tgl 35 0 empty empty empty 17 7 0 10 -262144 -1 -1 0
1;
#X obj 1072 98 sel 1;
#X msg 1072 121 2;
#X obj 1111 59 tgl 35 0 empty empty empty 17 7 0 10 -262144 -1 -1 1
1;
#X obj 1111 98 sel 1;
#X obj 1151 59 tgl 35 0 empty empty empty 17 7 0 10 -262144 -1 -1 1
1;
#X obj 1151 98 sel 1;
#X obj 1191 59 tgl 35 0 empty empty empty 17 7 0 10 -262144 -1 -1 0
1;
#X obj 1191 98 sel 1;
#X obj 1231 59 tgl 35 0 empty empty empty 17 7 0 10 -262144 -1 -1 1
1;
#X obj 1231 98 sel 1;
#X obj 1270 59 tgl 35 0 empty empty empty 17 7 0 10 -262144 -1 -1 1
1;
#X obj 1270 98 sel 1;
#X obj 1310 59 tgl 35 0 empty empty empty 17 7 0 10 -262144 -1 -1 0
1;
#X obj 1310 98 sel 1;
#X obj 1350 59 tgl 35 0 empty empty empty 17 7 0 10 -262144 -1 -1 0
1;
#X obj 1350 98 sel 1;
#X obj 1390 59 tgl 35 0 empty empty empty 17 7 0 10 -262144 -1 -1 0
1;
#X obj 1390 98 sel 1;
#X obj 1429 59 tgl 35 0 empty empty empty 17 7 0 10 -262144 -1 -1 1
1;
#X obj 1429 98 sel 1;
#X obj 1469 59 tgl 35 0 empty empty empty 17 7 0 10 -262144 -1 -1 0
1;
#X obj 1469 98 sel 1;
#X obj 1509 59 tgl 35 0 empty empty empty 17 7 0 10 -262144 -1 -1 0
1;
#X obj 1509 98 sel 1;
#X obj 1549 59 tgl 35 0 empty empty empty 17 7 0 10 -262144 -1 -1 0
1;
#X obj 1549 98 sel 1;
#X obj 1588 59 tgl 35 0 empty empty empty 17 7 0 10 -262144 -1 -1 0
1;
#X obj 1588 98 sel 1;
#X obj 1628 59 tgl 35 0 empty empty empty 17 7 0 10 -262144 -1 -1 0
1;
#X obj 1628 98 sel 1;
#X obj 1667 59 tgl 35 0 empty empty empty 17 7 0 10 -262144 -1 -1 0
1;
#X obj 1667 98 sel 1;
#X obj 1707 59 tgl 35 0 empty empty empty 17 7 0 10 -262144 -1 -1 0
1;
#X obj 1707 98 sel 1;
#X msg 1707 121 2;
#X msg 1746 121 1;
#X obj 1746 59 tgl 35 0 empty empty empty 17 7 0 10 -262144 -1 -1 0
1;
#X obj 1746 98 sel 1;
#X obj 1786 59 tgl 35 0 empty empty empty 17 7 0 10 -262144 -1 -1 0
1;
#X obj 1786 98 sel 1;
#X msg 1786 121 2;
#X msg 1826 121 1;
#X obj 1826 59 tgl 35 0 empty empty empty 17 7 0 10 -262144 -1 -1 0
1;
#X obj 1826 98 sel 1;
#X obj 1866 59 tgl 35 0 empty empty empty 17 7 0 10 -262144 -1 -1 0
1;
#X obj 1866 98 sel 1;
#X msg 1866 121 2;
#X msg 1905 121 1;
#X obj 1905 59 tgl 35 0 empty empty empty 17 7 0 10 -262144 -1 -1 0
1;
#X obj 1905 98 sel 1;
#X obj 1945 59 tgl 35 0 empty empty empty 17 7 0 10 -262144 -1 -1 0
1;
#X obj 1945 98 sel 1;
#X msg 1945 121 2;
#X msg 1985 121 1;
#X obj 1985 59 tgl 35 0 empty empty empty 17 7 0 10 -262144 -1 -1 0
1;
#X obj 1985 98 sel 1;
#X obj 2025 59 tgl 35 0 empty empty empty 17 7 0 10 -262144 -1 -1 0
1;
#X obj 2025 98 sel 1;
#X msg 2025 121 2;
#X msg 2064 121 1;
#X obj 2064 59 tgl 35 0 empty empty empty 17 7 0 10 -262144 -1 -1 0
1;
#X obj 2064 98 sel 1;
#X obj 2104 59 tgl 35 0 empty empty empty 17 7 0 10 -262144 -1 -1 0
1;
#X obj 2104 98 sel 1;
#X msg 2104 121 2;
#X msg 2144 121 1;
#X obj 2144 59 tgl 35 0 empty empty empty 17 7 0 10 -262144 -1 -1 0
1;
#X obj 2144 98 sel 1;
#X obj 2184 59 tgl 35 0 empty empty empty 17 7 0 10 -262144 -1 -1 0
1;
#X obj 2184 98 sel 1;
#X msg 2184 121 2;
#X msg 2223 121 1;
#X obj 2223 59 tgl 35 0 empty empty empty 17 7 0 10 -262144 -1 -1 0
1;
#X obj 2223 98 sel 1;
#X obj 2263 59 tgl 35 0 empty empty empty 17 7 0 10 -262144 -1 -1 0
1;
#X obj 2263 98 sel 1;
#X msg 2263 121 2;
#X msg 2303 121 1;
#X obj 2303 59 tgl 35 0 empty empty empty 17 7 0 10 -262144 -1 -1 0
1;
#X obj 2303 98 sel 1;
#X obj 2343 59 tgl 35 0 empty empty empty 17 7 0 10 -262144 -1 -1 0
1;
#X obj 2343 98 sel 1;
#X msg 2343 121 2;
#X msg 2382 121 1;
#X obj 2382 59 tgl 35 0 empty empty empty 17 7 0 10 -262144 -1 -1 0
1;
#X obj 2382 98 sel 1;
#X obj 2422 59 tgl 35 0 empty empty empty 17 7 0 10 -262144 -1 -1 0
1;
#X obj 2422 98 sel 1;
#X msg 2422 121 2;
#X msg 2462 121 1;
#X obj 2462 59 tgl 35 0 empty empty empty 17 7 0 10 -262144 -1 -1 0
1;
#X obj 2462 98 sel 1;
#X obj 2502 59 tgl 35 0 empty empty empty 17 7 0 10 -262144 -1 -1 0
1;
#X obj 2502 98 sel 1;
#X msg 2502 121 2;
#X msg 2541 121 1;
#X obj 2541 59 tgl 35 0 empty empty empty 17 7 0 10 -262144 -1 -1 0
1;
#X obj 2541 98 sel 1;
#X obj 2581 59 tgl 35 0 empty empty empty 17 7 0 10 -262144 -1 -1 0
1;
#X obj 2581 98 sel 1;
#X msg 2581 121 2;
#X msg 2621 121 1;
#X obj 2621 59 tgl 35 0 empty empty empty 17 7 0 10 -262144 -1 -1 0
1;
#X obj 2621 98 sel 1;
#X obj 2661 59 tgl 35 0 empty empty empty 17 7 0 10 -262144 -1 -1 0
1;
#X obj 2661 98 sel 1;
#X msg 2661 121 2;
#X msg 2700 121 1;
#X obj 2700 59 tgl 35 0 empty empty empty 17 7 0 10 -262144 -1 -1 0
1;
#X obj 2700 98 sel 1;
#X obj 2740 59 tgl 35 0 empty empty empty 17 7 0 10 -262144 -1 -1 0
1;
#X obj 2740 98 sel 1;
#X msg 2740 121 2;
#X msg 2780 121 1;
#X obj 2780 59 tgl 35 0 empty empty empty 17 7 0 10 -262144 -1 -1 0
1;
#X obj 2780 98 sel 1;
#X obj 2820 59 tgl 35 0 empty empty empty 17 7 0 10 -262144 -1 -1 0
1;
#X obj 2820 98 sel 1;
#X msg 2820 121 2;
#X msg 2859 121 1;
#X obj 2859 59 tgl 35 0 empty empty empty 17 7 0 10 -262144 -1 -1 0
1;
#X obj 2859 98 sel 1;
#X obj 2899 59 tgl 35 0 empty empty empty 17 7 0 10 -262144 -1 -1 0
1;
#X obj 2899 98 sel 1;
#X msg 2899 121 2;
#X msg 2938 121 1;
#X obj 2938 59 tgl 35 0 empty empty empty 17 7 0 10 -262144 -1 -1 0
1;
#X obj 2938 98 sel 1;
#X obj 2978 59 tgl 35 0 empty empty empty 17 7 0 10 -262144 -1 -1 0
1;
#X obj 2978 98 sel 1;
#X msg 2978 121 2;
#X msg 3017 121 1;
#X obj 3017 59 tgl 35 0 empty empty empty 17 7 0 10 -262144 -1 -1 0
1;
#X obj 3017 98 sel 1;
#X obj 3057 59 tgl 35 0 empty empty empty 17 7 0 10 -262144 -1 -1 0
1;
#X obj 3057 98 sel 1;
#X msg 3057 121 2;
#X msg 3097 121 1;
#X obj 3097 59 tgl 35 0 empty empty empty 17 7 0 10 -262144 -1 -1 0
1;
#X obj 3097 98 sel 1;
#X obj 3137 59 tgl 35 0 empty empty empty 17 7 0 10 -262144 -1 -1 0
1;
#X obj 3137 98 sel 1;
#X msg 3137 121 2;
#X msg 3176 121 1;
#X obj 3176 59 tgl 35 0 empty empty empty 17 7 0 10 -262144 -1 -1 0
1;
#X obj 3176 98 sel 1;
#X obj 3216 59 tgl 35 0 empty empty empty 17 7 0 10 -262144 -1 -1 0
1;
#X obj 3216 98 sel 1;
#X msg 3216 121 2;
#X msg 3256 121 1;
#X obj 3256 59 tgl 35 0 empty empty empty 17 7 0 10 -262144 -1 -1 0
1;
#X obj 3256 98 sel 1;
#X obj 3296 59 tgl 35 0 empty empty empty 17 7 0 10 -262144 -1 -1 0
1;
#X obj 3296 98 sel 1;
#X msg 3296 121 2;
#X msg 3335 121 1;
#X obj 3335 59 tgl 35 0 empty empty empty 17 7 0 10 -262144 -1 -1 0
1;
#X obj 3335 98 sel 1;
#X obj 3375 59 tgl 35 0 empty empty empty 17 7 0 10 -262144 -1 -1 0
1;
#X obj 3375 98 sel 1;
#X msg 3375 121 2;
#X msg 3415 121 1;
#X obj 3415 59 tgl 35 0 empty empty empty 17 7 0 10 -262144 -1 -1 0
1;
#X obj 3415 98 sel 1;
#X obj 3455 59 tgl 35 0 empty empty empty 17 7 0 10 -262144 -1 -1 0
1;
#X obj 3455 98 sel 1;
#X msg 3455 121 2;
#X msg 3494 121 1;
#X obj 3494 59 tgl 35 0 empty empty empty 17 7 0 10 -262144 -1 -1 0
1;
#X obj 3494 98 sel 1;
#X obj 3534 59 tgl 35 0 empty empty empty 17 7 0 10 -262144 -1 -1 0
1;
#X obj 3534 98 sel 1;
#X msg 3534 121 2;
#X msg 1111 121 3;
#X msg 1151 121 4;
#X msg 1191 121 5;
#X msg 1231 121 6;
#X msg 1270 121 7;
#X msg 1310 121 8;
#X msg 1350 121 9;
#X msg 1390 121 10;
#X msg 1429 121 11;
#X msg 1469 121 12;
#X msg 1509 121 13;
#X msg 1549 121 14;
#X msg 1588 121 15;
#X msg 1628 121 16;
#N canvas 0 52 1920 981 internal 1;
#X obj 514 370 + 1;
#N canvas 641 60 1278 972 metrocount 0;
#X obj 778 -148 t b f;
#X obj 778 -91 /;
#X msg 778 -117 1;
#X obj 778 -226 / 60;
#X obj 778 -27 * 1000;
#X text 807 -226 Number of beats per second (Hz);
#X text 807 -91 Duration of a beat (s);
#X text 821 -27 Duration of a beat (ms);
#X text 787 148 init value is 60 bpm;
#X text 744 -248 Actual tempo (BPM);
#X obj 758 -287 i;
#X obj 721 148 metro 1000;
#X obj 721 105 tgl 15 0 empty empty empty 17 7 0 10 -262144 -1 -1 1
1;
#X obj 721 328 i;
#X obj 753 328 + 1;
#X obj 735 282 loadbang;
#X obj 721 399 mod;
#X obj 721 431 sel 0;
#X text 868 25 SUBDIVISION;
#X obj 758 -322 inlet TEMPO;
#X obj 799 -287 loadbang;
#X msg 799 -265 60;
#X obj 868 44 inlet SUBDIV;
#X obj 721 526 outlet MAIN_BANG;
#X obj 744 212 outlet SECONDARY_BANG;
#X msg 735 304 0;
#X obj 982 449 i;
#X obj 1014 449 + 1;
#X msg 996 425 1;
#X obj 982 566 mod;
#X obj 996 400 loadbang;
#X obj 982 590 outlet CurrentBeatNb;
#X obj 495 -155 inlet ONOFF;
#X connect 0 0 2 0;
#X connect 0 1 1 1;
#X connect 1 0 4 0;
#X connect 2 0 1 0;
#X connect 3 0 0 0;
#X connect 4 0 11 1;
#X connect 10 0 3 0;
#X connect 11 0 13 0;
#X connect 11 0 24 0;
#X connect 11 0 26 0;
#X connect 12 0 11 0;
#X connect 13 0 14 0;
#X connect 13 0 16 0;
#X connect 14 0 13 1;
#X connect 15 0 25 0;
#X connect 16 0 17 0;
#X connect 17 0 23 0;
#X connect 19 0 10 0;
#X connect 20 0 21 0;
#X connect 21 0 3 0;
#X connect 22 0 16 1;
#X connect 22 0 29 1;
#X connect 25 0 13 1;
#X connect 26 0 27 0;
#X connect 26 0 29 0;
#X connect 27 0 26 1;
#X connect 28 0 26 1;
#X connect 29 0 31 0;
#X connect 30 0 28 0;
#X connect 32 0 12 0;
#X connect 32 0 25 0;
#X connect 32 0 28 0;
#X coords 0 0 1 1 85 60 0;
#X restore 334 417 pd metrocount, f 20;
#X obj 126 789 spigot;
#X obj 180 789 spigot;
#X obj 235 789 spigot;
#X obj 289 789 spigot;
#X obj 344 789 spigot;
#X obj 398 789 spigot;
#X obj 453 789 spigot;
#X obj 508 789 spigot;
#X obj 562 789 spigot;
#X obj 617 789 spigot;
#X obj 671 789 spigot;
#X obj 726 789 spigot;
#X obj 781 789 spigot;
#X obj 835 789 spigot;
#X obj 890 789 spigot;
#X obj 944 789 spigot;
#X text 474 191 Number of periods;
#X text 476 204 ("bars");
#X text 596 193 Units per period;
#X text 596 207 ("beats");
#X obj 514 323 *;
#X obj 514 283 i;
#X obj 583 229 t b f;
#X obj 126 682 sel 0 1 2 3 4 5 6 7 8 9 10 11 12 13 14 15 16 17 18 19
20 21 22 23 24 25 26 27 28 29 30 31 32 33 34 35 36 37 38 39 40 41 42
43 44 45 46 47 48 49 50 51 52 53 54 55 56 57 58 59 60 61 62 63 64 65
66 67 68 69 70 71 72 73 74 75 76, f 701;
#X obj 999 789 spigot;
#X obj 1053 789 spigot;
#X obj 1108 789 spigot;
#X obj 1162 789 spigot;
#X obj 1217 789 spigot;
#X obj 1271 789 spigot;
#X obj 1326 789 spigot;
#X obj 1381 789 spigot;
#X obj 1435 789 spigot;
#X obj 1490 789 spigot;
#X obj 1544 789 spigot;
#X obj 1599 789 spigot;
#X obj 1654 789 spigot;
#X obj 1708 789 spigot;
#X obj 1763 789 spigot;
#X obj 1817 789 spigot;
#X obj 1872 789 spigot;
#X obj 1926 789 spigot;
#X obj 1981 789 spigot;
#X obj 2035 789 spigot;
#X obj 2090 789 spigot;
#X obj 2144 789 spigot;
#X obj 2199 789 spigot;
#X obj 2254 789 spigot;
#X obj 2308 789 spigot;
#X obj 2363 789 spigot;
#X obj 2417 789 spigot;
#X obj 2472 789 spigot;
#X obj 2527 789 spigot;
#X obj 2581 789 spigot;
#X obj 2636 789 spigot;
#X obj 2690 789 spigot;
#X obj 2747 789 spigot;
#X obj 2801 789 spigot;
#X obj 2856 789 spigot;
#X obj 2910 789 spigot;
#X obj 2965 789 spigot;
#X obj 3019 789 spigot;
#X obj 3074 789 spigot;
#X obj 3129 789 spigot;
#X obj 3183 789 spigot;
#X obj 3238 789 spigot;
#X obj 3292 789 spigot;
#X obj 3347 789 spigot;
#X obj 3402 789 spigot;
#X obj 3456 789 spigot;
#X obj 3511 789 spigot;
#X obj 3565 789 spigot;
#X obj 3621 789 spigot;
#X obj 3676 789 spigot;
#X obj 3731 789 spigot;
#X obj 3785 789 spigot;
#X obj 3840 789 spigot;
#X obj 3894 789 spigot;
#X obj 3949 789 spigot;
#X obj 4004 789 spigot;
#X obj 4058 789 spigot;
#X obj 4113 789 spigot;
#X obj 4167 789 spigot;
#X obj 4219 789 spigot;
#X obj 4274 789 spigot;
#X obj 391 151 inlet tempo;
#X obj 454 174 inlet NumberPeriods;
#X obj 583 174 inlet UnitsPerPeriod;
#X obj 334 127 inlet StartStop;
#X msg 126 851 0;
#X obj 720 935 outlet;
#X msg 180 851 1;
#X msg 235 851 2;
#X msg 289 851 3;
#X msg 344 850 4;
#X msg 398 850 5;
#X msg 453 850 6;
#X msg 508 850 7;
#X msg 562 850 8;
#X msg 617 850 9;
#X obj 853 432 sel 0 1 2 3 4 5 6 7 8 9 10 11 12 13 14 15 16 17 18 19
20 21 22 23 24 25 26 27 28 29 30 31 32 33 34 35 36 37 38 39 40 41 42
43 44 45 46 47 48 49 50 51 52 53 54 55 56 57 58 59 60 61 62 63 64 65
66 67 68 69 70 71 72 73 74 75 76, f 701;
#X msg 941 307 0;
#X msg 853 486 1;
#X obj 942 266 inlet ClearAll;
#X msg 907 486 1;
#X obj 809 364 zl iter 1;
#X msg 962 486 1;
#X msg 1016 486 1;
#X msg 1071 486 1;
#X msg 1125 486 1;
#X msg 1180 486 1;
#X msg 1235 486 1;
#X msg 1289 487 1;
#X msg 1344 487 1;
#X msg 1398 487 1;
#X msg 1453 487 1;
#X msg 1508 487 1;
#X msg 1562 487 1;
#X msg 1617 487 1;
#X msg 1671 487 1;
#X obj 752 134 inlet list;
#X msg 1726 486 1;
#X msg 1780 486 1;
#X msg 1835 486 1;
#X msg 1890 486 1;
#X msg 671 851 10;
#X msg 726 851 11;
#X msg 780 851 12;
#X msg 835 851 13;
#X msg 999 851 2;
#X msg 1053 851 3;
#X msg 1108 850 4;
#X msg 1162 850 5;
#X msg 1217 850 6;
#X msg 1272 850 7;
#X msg 1326 850 8;
#X msg 1381 850 9;
#X msg 1435 851 10;
#X msg 1490 851 11;
#X msg 1544 851 12;
#X msg 1599 851 13;
#X msg 1653 851 0;
#X msg 1707 851 1;
#X msg 1762 851 2;
#X msg 1816 851 3;
#X msg 1871 850 4;
#X msg 1925 850 5;
#X msg 1980 850 6;
#X msg 2035 850 7;
#X msg 2089 850 8;
#X msg 2144 850 9;
#X msg 2198 851 10;
#X msg 2253 851 11;
#X msg 2307 851 12;
#X msg 2362 851 13;
#X msg 2416 851 0;
#X msg 2470 851 1;
#X msg 2525 851 2;
#X msg 2579 851 3;
#X msg 2634 850 4;
#X msg 2688 850 5;
#X msg 2743 850 6;
#X msg 2798 850 7;
#X msg 2852 850 8;
#X msg 2907 850 9;
#X msg 2961 851 10;
#X msg 3016 851 11;
#X msg 3070 851 12;
#X msg 3125 851 13;
#X msg 3182 850 0;
#X msg 3236 850 1;
#X msg 3291 850 2;
#X msg 3345 850 3;
#X msg 3400 849 4;
#X msg 3454 849 5;
#X msg 3509 849 6;
#X msg 3564 849 7;
#X msg 3618 849 8;
#X msg 3673 849 9;
#X msg 3727 850 10;
#X msg 3782 850 11;
#X msg 3836 850 12;
#X msg 3891 850 13;
#X msg 3950 848 6;
#X msg 4005 848 7;
#X msg 4059 848 8;
#X msg 4114 848 9;
#X msg 4168 849 10;
#X msg 4223 849 11;
#X msg 4277 849 12;
#X msg 890 851 14;
#X msg 944 851 15;
#X msg 1943 486 1;
#X msg 1997 486 1;
#X msg 2052 486 1;
#X msg 2106 486 1;
#X msg 2161 486 1;
#X msg 2215 486 1;
#X msg 2270 486 1;
#X msg 2325 486 1;
#X msg 2379 487 1;
#X msg 2434 487 1;
#X msg 2488 487 1;
#X msg 2543 487 1;
#X msg 2598 487 1;
#X msg 2652 487 1;
#X msg 2707 487 1;
#X msg 2761 487 1;
#X msg 2816 486 1;
#X msg 2870 486 1;
#X msg 2925 486 1;
#X msg 2980 486 1;
#X msg 3036 485 1;
#X msg 3090 485 1;
#X msg 3145 485 1;
#X msg 3199 485 1;
#X msg 3254 485 1;
#X msg 3308 485 1;
#X msg 3363 485 1;
#X msg 3418 485 1;
#X msg 3472 486 1;
#X msg 3527 486 1;
#X msg 3581 486 1;
#X msg 3636 486 1;
#X msg 3691 486 1;
#X msg 3745 486 1;
#X msg 3800 486 1;
#X msg 3854 486 1;
#X msg 3909 485 1;
#X msg 3963 485 1;
#X msg 4018 485 1;
#X msg 4073 485 1;
#X msg 4128 483 1;
#X msg 4182 483 1;
#X msg 4237 483 1;
#X msg 4291 483 1;
#X msg 4346 483 1;
#X msg 4400 483 1;
#X msg 4455 483 1;
#X msg 4510 483 1;
#X msg 4564 484 1;
#X msg 4619 484 1;
#X msg 4673 484 1;
#X msg 4728 484 1;
#X msg 4783 484 1;
#X msg 4837 484 1;
#X msg 4892 484 1;
#X msg 4946 484 1;
#X msg 5001 483 1;
#X connect 0 0 1 2;
#X connect 1 2 25 0;
#X connect 2 0 91 0;
#X connect 3 0 93 0;
#X connect 4 0 94 0;
#X connect 5 0 95 0;
#X connect 6 0 96 0;
#X connect 7 0 97 0;
#X connect 8 0 98 0;
#X connect 9 0 99 0;
#X connect 10 0 100 0;
#X connect 11 0 101 0;
#X connect 12 0 127 0;
#X connect 13 0 128 0;
#X connect 14 0 129 0;
#X connect 15 0 130 0;
#X connect 16 0 192 0;
#X connect 17 0 193 0;
#X connect 22 0 0 0;
#X connect 23 0 22 0;
#X connect 24 0 23 0;
#X connect 24 1 22 1;
#X connect 25 0 2 0;
#X connect 25 1 3 0;
#X connect 25 2 4 0;
#X connect 25 3 5 0;
#X connect 25 4 6 0;
#X connect 25 5 7 0;
#X connect 25 6 8 0;
#X connect 25 7 9 0;
#X connect 25 8 10 0;
#X connect 25 9 11 0;
#X connect 25 10 12 0;
#X connect 25 11 13 0;
#X connect 25 12 14 0;
#X connect 25 13 15 0;
#X connect 25 14 16 0;
#X connect 25 15 17 0;
#X connect 25 16 26 0;
#X connect 25 17 27 0;
#X connect 25 18 28 0;
#X connect 25 19 29 0;
#X connect 25 20 30 0;
#X connect 25 21 31 0;
#X connect 25 22 32 0;
#X connect 25 23 33 0;
#X connect 25 24 34 0;
#X connect 25 25 35 0;
#X connect 25 26 36 0;
#X connect 25 27 37 0;
#X connect 25 28 38 0;
#X connect 25 29 39 0;
#X connect 25 30 40 0;
#X connect 25 31 41 0;
#X connect 25 32 42 0;
#X connect 25 33 43 0;
#X connect 25 34 44 0;
#X connect 25 35 45 0;
#X connect 25 36 46 0;
#X connect 25 37 47 0;
#X connect 25 38 48 0;
#X connect 25 39 49 0;
#X connect 25 40 50 0;
#X connect 25 41 51 0;
#X connect 25 42 52 0;
#X connect 25 43 53 0;
#X connect 25 44 54 0;
#X connect 25 45 55 0;
#X connect 25 46 56 0;
#X connect 25 47 57 0;
#X connect 25 48 58 0;
#X connect 25 49 59 0;
#X connect 25 50 60 0;
#X connect 25 51 61 0;
#X connect 25 52 62 0;
#X connect 25 53 63 0;
#X connect 25 54 64 0;
#X connect 25 55 65 0;
#X connect 25 56 66 0;
#X connect 25 57 67 0;
#X connect 25 58 68 0;
#X connect 25 59 69 0;
#X connect 25 60 70 0;
#X connect 25 61 71 0;
#X connect 25 62 72 0;
#X connect 25 63 73 0;
#X connect 25 64 74 0;
#X connect 25 65 75 0;
#X connect 25 66 76 0;
#X connect 25 67 77 0;
#X connect 25 68 78 0;
#X connect 25 69 79 0;
#X connect 25 70 80 0;
#X connect 25 71 81 0;
#X connect 25 72 82 0;
#X connect 25 73 83 0;
#X connect 25 74 84 0;
#X connect 25 75 85 0;
#X connect 25 76 86 0;
#X connect 26 0 131 0;
#X connect 27 0 132 0;
#X connect 28 0 133 0;
#X connect 29 0 134 0;
#X connect 30 0 135 0;
#X connect 31 0 136 0;
#X connect 32 0 137 0;
#X connect 33 0 138 0;
#X connect 34 0 139 0;
#X connect 35 0 140 0;
#X connect 36 0 141 0;
#X connect 37 0 142 0;
#X connect 38 0 143 0;
#X connect 39 0 144 0;
#X connect 40 0 145 0;
#X connect 41 0 146 0;
#X connect 42 0 147 0;
#X connect 43 0 148 0;
#X connect 44 0 149 0;
#X connect 45 0 150 0;
#X connect 46 0 151 0;
#X connect 47 0 152 0;
#X connect 48 0 153 0;
#X connect 49 0 154 0;
#X connect 50 0 155 0;
#X connect 51 0 156 0;
#X connect 52 0 157 0;
#X connect 53 0 158 0;
#X connect 54 0 159 0;
#X connect 55 0 160 0;
#X connect 56 0 161 0;
#X connect 57 0 162 0;
#X connect 58 0 163 0;
#X connect 59 0 164 0;
#X connect 60 0 165 0;
#X connect 61 0 166 0;
#X connect 62 0 167 0;
#X connect 63 0 168 0;
#X connect 64 0 169 0;
#X connect 65 0 170 0;
#X connect 66 0 171 0;
#X connect 67 0 172 0;
#X connect 68 0 173 0;
#X connect 69 0 174 0;
#X connect 70 0 175 0;
#X connect 71 0 176 0;
#X connect 72 0 177 0;
#X connect 73 0 178 0;
#X connect 74 0 179 0;
#X connect 75 0 180 0;
#X connect 76 0 181 0;
#X connect 77 0 182 0;
#X connect 78 0 183 0;
#X connect 79 0 184 0;
#X connect 80 0 185 0;
#X connect 81 0 186 0;
#X connect 82 0 187 0;
#X connect 83 0 188 0;
#X connect 84 0 189 0;
#X connect 85 0 190 0;
#X connect 86 0 191 0;
#X connect 87 0 1 1;
#X connect 88 0 23 0;
#X connect 89 0 24 0;
#X connect 90 0 1 0;
#X connect 91 0 92 0;
#X connect 93 0 92 0;
#X connect 94 0 92 0;
#X connect 95 0 92 0;
#X connect 96 0 92 0;
#X connect 97 0 92 0;
#X connect 98 0 92 0;
#X connect 99 0 92 0;
#X connect 100 0 92 0;
#X connect 101 0 92 0;
#X connect 102 0 104 0;
#X connect 102 1 106 0;
#X connect 102 2 108 0;
#X connect 102 3 109 0;
#X connect 102 4 110 0;
#X connect 102 5 111 0;
#X connect 102 6 112 0;
#X connect 102 7 113 0;
#X connect 102 8 114 0;
#X connect 102 9 115 0;
#X connect 102 10 116 0;
#X connect 102 11 117 0;
#X connect 102 12 118 0;
#X connect 102 13 119 0;
#X connect 102 14 120 0;
#X connect 102 15 121 0;
#X connect 102 16 123 0;
#X connect 102 17 124 0;
#X connect 102 18 125 0;
#X connect 102 19 126 0;
#X connect 103 0 2 1;
#X connect 103 0 3 1;
#X connect 103 0 4 1;
#X connect 103 0 5 1;
#X connect 103 0 6 1;
#X connect 103 0 7 1;
#X connect 103 0 8 1;
#X connect 103 0 9 1;
#X connect 103 0 10 1;
#X connect 103 0 11 1;
#X connect 103 0 12 1;
#X connect 103 0 13 1;
#X connect 103 0 14 1;
#X connect 103 0 15 1;
#X connect 103 0 16 1;
#X connect 103 0 17 1;
#X connect 103 0 26 1;
#X connect 104 0 2 1;
#X connect 105 0 103 0;
#X connect 106 0 3 1;
#X connect 107 0 102 0;
#X connect 108 0 4 1;
#X connect 109 0 5 1;
#X connect 110 0 6 1;
#X connect 111 0 7 1;
#X connect 112 0 8 1;
#X connect 113 0 9 1;
#X connect 114 0 10 1;
#X connect 115 0 11 1;
#X connect 116 0 12 1;
#X connect 117 0 13 1;
#X connect 118 0 14 1;
#X connect 119 0 15 1;
#X connect 120 0 16 1;
#X connect 121 0 17 1;
#X connect 122 0 107 0;
#X connect 123 0 26 1;
#X connect 124 0 27 1;
#X connect 125 0 28 1;
#X connect 126 0 29 1;
#X connect 127 0 92 0;
#X connect 128 0 92 0;
#X connect 129 0 92 0;
#X connect 130 0 92 0;
#X connect 131 0 92 0;
#X connect 132 0 92 0;
#X connect 133 0 92 0;
#X connect 134 0 92 0;
#X connect 135 0 92 0;
#X connect 136 0 92 0;
#X connect 137 0 92 0;
#X connect 138 0 92 0;
#X connect 139 0 92 0;
#X connect 140 0 92 0;
#X connect 141 0 92 0;
#X connect 142 0 92 0;
#X connect 143 0 92 0;
#X connect 144 0 92 0;
#X connect 145 0 92 0;
#X connect 146 0 92 0;
#X connect 147 0 92 0;
#X connect 148 0 92 0;
#X connect 149 0 92 0;
#X connect 150 0 92 0;
#X connect 151 0 92 0;
#X connect 152 0 92 0;
#X connect 153 0 92 0;
#X connect 154 0 92 0;
#X connect 155 0 92 0;
#X connect 156 0 92 0;
#X connect 157 0 92 0;
#X connect 158 0 92 0;
#X connect 159 0 92 0;
#X connect 160 0 92 0;
#X connect 161 0 92 0;
#X connect 162 0 92 0;
#X connect 163 0 92 0;
#X connect 164 0 92 0;
#X connect 165 0 92 0;
#X connect 166 0 92 0;
#X connect 167 0 92 0;
#X connect 168 0 92 0;
#X connect 169 0 92 0;
#X connect 170 0 92 0;
#X connect 171 0 92 0;
#X connect 172 0 92 0;
#X connect 173 0 92 0;
#X connect 174 0 92 0;
#X connect 175 0 92 0;
#X connect 176 0 92 0;
#X connect 177 0 92 0;
#X connect 178 0 92 0;
#X connect 179 0 92 0;
#X connect 180 0 92 0;
#X connect 181 0 92 0;
#X connect 182 0 92 0;
#X connect 183 0 92 0;
#X connect 184 0 92 0;
#X connect 185 0 92 0;
#X connect 186 0 92 0;
#X connect 187 0 92 0;
#X connect 188 0 92 0;
#X connect 189 0 92 0;
#X connect 190 0 92 0;
#X connect 191 0 92 0;
#X connect 192 0 92 0;
#X connect 193 0 92 0;
#X restore 998 354 pd internal;
#X msg 1667 121 17;
#X floatatom 998 448 5 0 0 0 - - -, f 5;
#X obj 861 283 tgl 15 0 empty empty empty 17 7 0 10 -262144 -1 -1 1
1;
#X obj 893 161 vsl 15 128 40 300 0 0 empty empty empty 0 -9 0 10 -262144
-1 -1 9600 1;
#X floatatom 941 278 5 0 0 0 - - -, f 5;
#X floatatom 999 291 5 0 0 0 - - -, f 5;
#X obj 1085 213 print;
#X connect 0 0 3 0;
#X connect 0 0 203 0;
#X connect 1 0 0 1;
#X connect 1 0 196 5;
#X connect 2 0 0 0;
#X connect 3 0 196 4;
#X connect 4 0 3 1;
#X connect 5 0 0 0;
#X connect 6 0 7 0;
#X connect 7 0 2 0;
#X connect 8 0 9 0;
#X connect 9 0 10 0;
#X connect 10 0 0 0;
#X connect 11 0 12 0;
#X connect 12 0 182 0;
#X connect 13 0 14 0;
#X connect 14 0 183 0;
#X connect 15 0 16 0;
#X connect 16 0 184 0;
#X connect 17 0 18 0;
#X connect 18 0 185 0;
#X connect 19 0 20 0;
#X connect 20 0 186 0;
#X connect 21 0 22 0;
#X connect 22 0 187 0;
#X connect 23 0 24 0;
#X connect 24 0 188 0;
#X connect 25 0 26 0;
#X connect 26 0 189 0;
#X connect 27 0 28 0;
#X connect 28 0 190 0;
#X connect 29 0 30 0;
#X connect 30 0 191 0;
#X connect 31 0 32 0;
#X connect 32 0 192 0;
#X connect 33 0 34 0;
#X connect 34 0 193 0;
#X connect 35 0 36 0;
#X connect 36 0 194 0;
#X connect 37 0 38 0;
#X connect 38 0 195 0;
#X connect 39 0 40 0;
#X connect 40 0 197 0;
#X connect 41 0 42 0;
#X connect 42 0 43 0;
#X connect 43 0 0 0;
#X connect 44 0 0 0;
#X connect 45 0 46 0;
#X connect 46 0 44 0;
#X connect 47 0 48 0;
#X connect 48 0 49 0;
#X connect 49 0 0 0;
#X connect 50 0 0 0;
#X connect 51 0 52 0;
#X connect 52 0 50 0;
#X connect 53 0 54 0;
#X connect 54 0 55 0;
#X connect 55 0 0 0;
#X connect 56 0 0 0;
#X connect 57 0 58 0;
#X connect 58 0 56 0;
#X connect 59 0 60 0;
#X connect 60 0 61 0;
#X connect 61 0 0 0;
#X connect 62 0 0 0;
#X connect 63 0 64 0;
#X connect 64 0 62 0;
#X connect 65 0 66 0;
#X connect 66 0 67 0;
#X connect 67 0 0 0;
#X connect 68 0 0 0;
#X connect 69 0 70 0;
#X connect 70 0 68 0;
#X connect 71 0 72 0;
#X connect 72 0 73 0;
#X connect 73 0 0 0;
#X connect 74 0 0 0;
#X connect 75 0 76 0;
#X connect 76 0 74 0;
#X connect 77 0 78 0;
#X connect 78 0 79 0;
#X connect 79 0 0 0;
#X connect 80 0 0 0;
#X connect 81 0 82 0;
#X connect 82 0 80 0;
#X connect 83 0 84 0;
#X connect 84 0 85 0;
#X connect 85 0 0 0;
#X connect 86 0 0 0;
#X connect 87 0 88 0;
#X connect 88 0 86 0;
#X connect 89 0 90 0;
#X connect 90 0 91 0;
#X connect 91 0 0 0;
#X connect 92 0 0 0;
#X connect 93 0 94 0;
#X connect 94 0 92 0;
#X connect 95 0 96 0;
#X connect 96 0 97 0;
#X connect 97 0 0 0;
#X connect 98 0 0 0;
#X connect 99 0 100 0;
#X connect 100 0 98 0;
#X connect 101 0 102 0;
#X connect 102 0 103 0;
#X connect 103 0 0 0;
#X connect 104 0 0 0;
#X connect 105 0 106 0;
#X connect 106 0 104 0;
#X connect 107 0 108 0;
#X connect 108 0 109 0;
#X connect 109 0 0 0;
#X connect 110 0 0 0;
#X connect 111 0 112 0;
#X connect 112 0 110 0;
#X connect 113 0 114 0;
#X connect 114 0 115 0;
#X connect 115 0 0 0;
#X connect 116 0 0 0;
#X connect 117 0 118 0;
#X connect 118 0 116 0;
#X connect 119 0 120 0;
#X connect 120 0 121 0;
#X connect 121 0 0 0;
#X connect 122 0 0 0;
#X connect 123 0 124 0;
#X connect 124 0 122 0;
#X connect 125 0 126 0;
#X connect 126 0 127 0;
#X connect 127 0 0 0;
#X connect 128 0 0 0;
#X connect 129 0 130 0;
#X connect 130 0 128 0;
#X connect 131 0 132 0;
#X connect 132 0 133 0;
#X connect 133 0 0 0;
#X connect 134 0 0 0;
#X connect 135 0 136 0;
#X connect 136 0 134 0;
#X connect 137 0 138 0;
#X connect 138 0 139 0;
#X connect 139 0 0 0;
#X connect 140 0 0 0;
#X connect 141 0 142 0;
#X connect 142 0 140 0;
#X connect 143 0 144 0;
#X connect 144 0 145 0;
#X connect 145 0 0 0;
#X connect 146 0 0 0;
#X connect 147 0 148 0;
#X connect 148 0 146 0;
#X connect 149 0 150 0;
#X connect 150 0 151 0;
#X connect 151 0 0 0;
#X connect 152 0 0 0;
#X connect 153 0 154 0;
#X connect 154 0 152 0;
#X connect 155 0 156 0;
#X connect 156 0 157 0;
#X connect 157 0 0 0;
#X connect 158 0 0 0;
#X connect 159 0 160 0;
#X connect 160 0 158 0;
#X connect 161 0 162 0;
#X connect 162 0 163 0;
#X connect 163 0 0 0;
#X connect 164 0 0 0;
#X connect 165 0 166 0;
#X connect 166 0 164 0;
#X connect 167 0 168 0;
#X connect 168 0 169 0;
#X connect 169 0 0 0;
#X connect 170 0 0 0;
#X connect 171 0 172 0;
#X connect 172 0 170 0;
#X connect 173 0 174 0;
#X connect 174 0 175 0;
#X connect 175 0 0 0;
#X connect 176 0 0 0;
#X connect 177 0 178 0;
#X connect 178 0 176 0;
#X connect 179 0 180 0;
#X connect 180 0 181 0;
#X connect 181 0 0 0;
#X connect 182 0 0 0;
#X connect 183 0 0 0;
#X connect 184 0 0 0;
#X connect 185 0 0 0;
#X connect 186 0 0 0;
#X connect 187 0 0 0;
#X connect 188 0 0 0;
#X connect 189 0 0 0;
#X connect 190 0 0 0;
#X connect 191 0 0 0;
#X connect 192 0 0 0;
#X connect 193 0 0 0;
#X connect 194 0 0 0;
#X connect 195 0 0 0;
#X connect 196 0 198 0;
#X connect 197 0 0 0;
#X connect 199 0 196 0;
#X connect 200 0 196 1;
#X connect 201 0 196 2;
#X connect 202 0 196 3;
