#N canvas 0 28 1920 1029 10;
#N canvas 0 0 450 300 (subpatch) 0;
#X array \$0-array 8 float 3 black black;
#A 0 60 60 60 60 60 60 60 60;
#X coords 0 84 8 36 200 140 1;
#X restore 801 177 graph;
#X floatatom 423 56 5 0 0 0 - - -, f 5;
#X obj 459 57 hradio 15 0 0 16 empty empty empty 0 -8 0 10 -262144
-1 -1 14;
#X msg 453 161 \; \$0-array resize \$1;
#X text 616 613 low x \, high y \, high x \, low y;
#X msg 270 298 \; \$0-array const 60;
#X obj 1166 437 tabread \$0-array;
#X obj 1176 268 f 0;
#X obj 423 82 s size;
#X obj 1208 268 + 1;
#X obj 1153 145 bng 15 250 50 0 empty empty empty 17 7 0 10 -262144
-1 -1;
#X obj 1213 331 sel 0;
#X obj 453 133 r size;
#X obj 1230 165 r size;
#X floatatom 1166 459 5 0 0 0 - - -, f 5;
#X msg 1186 192 0;
#X obj 1183 381 - 1;
#X obj 1183 550 mtof;
#X obj 1183 572 osc~;
#X obj 1183 594 *~;
#X obj 1262 503 vsl 15 128 0 1 0 0 empty empty empty 0 -9 0 10 -262144
-1 -1 0 1;
#X obj 1170 658 dac~;
#X obj 1113 66 metro 200;
#X floatatom 1164 31 5 0 0 0 - - -, f 5;
#X obj 1110 18 tgl 15 0 empty empty empty 17 7 0 10 -262144 -1 -1 1
1;
#X obj 1162 504 expr rint($f1);
#X obj 262 224 bng 15 250 50 0 empty empty empty 17 7 0 10 -262144
-1 -1;
#X msg 315 486 \; \$0-array const \$1;
#X msg 315 459 64;
#X obj 586 545 pack f f f f, f 31;
#X msg 560 466 0;
#X obj 708 524 r size;
#X msg 586 576 \; \$0-array bounds \$1 \$2 \$3 \$4;
#X obj 742 501 t b f;
#X obj 620 505 t b f;
#X obj 172 13 loadbang;
#X obj 172 39 t b b b b b b b b b b b b b;
#X msg 391 15 8;
#X obj 315 566 ctlin;
#X obj 290 727 route 77 78 79 80 81 82 83 84;
#X obj 294 671 pack f f;
#X obj 314 631 f;
#X obj 312 597 t b f;
#X floatatom 268 772 5 0 0 0 - - -, f 5;
#X msg 266 856 \; \$0-array 0 \$1;
#X obj 180 818 / 127;
#X floatatom 180 840 5 0 0 0 - - -, f 5;
#X obj 179 914 +;
#X obj 761 81 s LowerNote;
#X obj 848 78 s UpperNote;
#X msg 765 35 36;
#X msg 845 38 84;
#X floatatom 765 62 5 0 0 0 - - -, f 5;
#X floatatom 847 58 5 0 0 0 - - -, f 5;
#X obj 742 426 r LowerNote;
#X obj 621 424 r UpperNote;
#X obj 120 770 -;
#X obj 148 727 t b f;
#X obj 113 709 f;
#X floatatom 122 798 5 0 0 0 - - -, f 5;
#X obj 86 553 expr abs($f1-$f2);
#X obj 155 478 r LowerNote;
#X obj 84 454 r UpperNote;
#X floatatom 86 596 5 0 0 0 - - -, f 5;
#X connect 1 0 8 0;
#X connect 2 0 1 0;
#X connect 6 0 14 0;
#X connect 7 0 9 0;
#X connect 9 0 7 1;
#X connect 9 0 11 0;
#X connect 9 0 16 0;
#X connect 10 0 7 0;
#X connect 11 0 15 0;
#X connect 12 0 3 0;
#X connect 13 0 11 1;
#X connect 13 0 15 0;
#X connect 14 0 25 0;
#X connect 15 0 7 1;
#X connect 16 0 6 0;
#X connect 17 0 18 0;
#X connect 18 0 19 0;
#X connect 19 0 21 0;
#X connect 19 0 21 1;
#X connect 20 0 19 1;
#X connect 22 0 10 0;
#X connect 23 0 22 1;
#X connect 24 0 22 0;
#X connect 25 0 17 0;
#X connect 26 0 5 0;
#X connect 28 0 27 0;
#X connect 29 0 32 0;
#X connect 30 0 29 0;
#X connect 31 0 29 2;
#X connect 33 0 30 0;
#X connect 33 1 29 3;
#X connect 34 0 30 0;
#X connect 34 1 29 1;
#X connect 35 0 36 0;
#X connect 36 8 51 0;
#X connect 36 9 50 0;
#X connect 36 10 30 0;
#X connect 36 11 5 0;
#X connect 36 12 37 0;
#X connect 37 0 1 0;
#X connect 38 0 42 0;
#X connect 38 1 41 1;
#X connect 39 0 43 0;
#X connect 40 0 39 0;
#X connect 41 0 40 0;
#X connect 42 0 41 0;
#X connect 42 1 40 1;
#X connect 43 0 44 0;
#X connect 43 0 45 0;
#X connect 45 0 46 0;
#X connect 50 0 52 0;
#X connect 51 0 53 0;
#X connect 52 0 48 0;
#X connect 53 0 49 0;
#X connect 54 0 33 0;
#X connect 55 0 34 0;
#X connect 56 0 59 0;
#X connect 57 0 58 0;
#X connect 57 1 56 1;
#X connect 58 0 56 0;
#X connect 60 0 63 0;
#X connect 61 0 60 1;
#X connect 62 0 60 0;
