#N canvas 1 28 1918 1028 10;
#N canvas 0 0 450 300 (subpatch) 0;
#X array \$0-array 8 float 3 black black;
#A 0 4 45.7874 57.252 74.4488 53.7244 79.2992 59.0157 77.9764;
#X coords 0 89 8 33 200 140 1;
#X restore 807 488 graph;
#X obj 776 459 hradio 15 0 0 16 empty empty empty 0 -8 0 10 -262144
-1 -1 7;
#X msg 376 61 \; \$0-array resize \$1;
#X text 272 380 low x \, high y \, high x \, low y;
#X msg 538 376 \; \$0-array const 60;
#X obj 590 62 tabread \$0-array;
#X obj 558 -12 f 0;
#X obj 590 -12 + 1;
#X obj 621 -11 sel 0;
#X floatatom 556 61 5 0 0 0 - - -, f 5;
#X msg 573 -47 0;
#X obj 590 36 - 1;
#X obj 536 151 mtof;
#X obj 536 129 expr rint($f1);
#X msg 1088 661 \; \$0-array const \$1;
#X obj 242 312 pack f f f f, f 31;
#X msg 212 260 0;
#X msg 242 343 \; \$0-array bounds \$1 \$2 \$3 \$4;
#X obj 398 268 t b f;
#X obj 276 272 t b f;
#X msg 1248 69 \; \$0-array 0 \$1;
#X msg 1153 564 36;
#X msg 1080 439 84;
#X floatatom 1026 563 5 0 0 0 - - -, f 5;
#X floatatom 1025 509 5 0 0 0 - - -, f 5;
#N canvas 1093 414 622 604 map 0;
#X obj 162 -126 / 127;
#X floatatom 162 -104 5 0 0 0 - - -, f 5;
#X obj 102 -174 -;
#X obj 130 -217 t b f;
#X obj 95 -235 f;
#X obj 127 -11 *;
#X obj 122 23 +;
#X floatatom 122 45 5 0 0 0 - - -, f 5;
#X obj 280 -256 inlet value;
#X obj 132 123 outlet;
#X obj 79 -301 r \$0-UpperNote;
#X obj 152 -275 r \$0-LowerNote;
#X connect 0 0 1 0;
#X connect 0 0 5 0;
#X connect 2 0 5 1;
#X connect 3 0 4 0;
#X connect 3 1 2 1;
#X connect 4 0 2 0;
#X connect 5 0 6 0;
#X connect 6 0 7 0;
#X connect 7 0 9 0;
#X connect 8 0 0 0;
#X connect 10 0 4 0;
#X connect 11 0 3 0;
#X connect 11 0 6 1;
#X restore 1248 48 pd map;
#X obj 558 -191 inlet Clock;
#X obj 1248 24 inlet midi0;
#X obj 1337 24 inlet midi1;
#X obj 1427 24 inlet midi2;
#X obj 1516 24 inlet midi3;
#X obj 1606 23 inlet midi4;
#X obj 1695 23 inlet midi5;
#X obj 1785 23 inlet midi6;
#X obj 1874 23 inlet midi7;
#X msg 1337 69 \; \$0-array 1 \$1;
#X msg 1427 69 \; \$0-array 2 \$1;
#X msg 1516 69 \; \$0-array 3 \$1;
#X msg 1606 68 \; \$0-array 4 \$1;
#X msg 1695 68 \; \$0-array 5 \$1;
#X msg 1785 68 \; \$0-array 6 \$1;
#X msg 1874 68 \; \$0-array 7 \$1;
#X obj 612 -115 r \$0-size;
#X obj 376 33 r \$0-size;
#X obj 1055 460 s \$0-size;
#X obj 1051 613 bng 15 250 50 0 empty empty empty 17 7 0 10 -262144
-1 -1;
#X obj 1149 610 s \$0-LowerNote;
#X obj 1093 499 s \$0-UpperNote;
#X obj 2007 24 inlet stop0;
#X msg 2007 66 \; \$0-array 0 0;
#X msg 2007 45 bang;
#X msg 2092 45 bang;
#X msg 2177 45 bang;
#X msg 2262 45 bang;
#X msg 2347 45 bang;
#X msg 2432 45 bang;
#X msg 2517 45 bang;
#X msg 2602 45 bang;
#X msg 2092 66 \; \$0-array 1 0;
#X msg 2177 66 \; \$0-array 2 0;
#X msg 2262 66 \; \$0-array 3 0;
#X msg 2347 66 \; \$0-array 4 0;
#X msg 2432 65 \; \$0-array 5 0;
#X msg 2517 66 \; \$0-array 6 0;
#X msg 2602 66 \; \$0-array 7 0;
#X obj 2092 24 inlet stop1;
#X obj 2177 24 inlet stop2;
#X obj 2262 24 inlet stop3;
#X obj 2347 24 inlet stop4;
#X obj 2432 24 inlet stop5;
#X obj 2517 24 inlet stop6;
#X obj 2602 24 inlet stop7;
#X obj 691 150 mtof;
#X obj 536 173 outlet MidiNote_rounded;
#X obj 691 173 outlet MidiNote_exact;
#X obj 1103 526 inlet lowerNote;
#X obj 1158 376 inlet upperNote;
#X text 892 441 size;
#X obj 276 247 r \$0-UpperNote;
#X obj 398 245 r \$0-LowerNote;
#X obj 364 291 r \$0-size;
#X obj 215 -79 loadbang;
#X obj 215 -57 t b b b b b;
#X obj 278 -35 s \$0-bang1;
#X obj 215 48 s \$0-bang5;
#X obj 230 27 s \$0-bang4;
#X obj 246 7 s \$0-bang3;
#X obj 262 -14 s \$0-bang2;
#X obj 1020 278 r \$0-bang1;
#X obj 538 356 r \$0-bang2;
#X obj 1153 543 r \$0-bang4;
#X obj 1080 418 r \$0-bang5;
#X obj 1088 639 f;
#X floatatom 1015 612 5 12 120 0 - - -, f 5;
#X text 1014 592 reset all;
#X text 248 197 Set array bounds;
#X text 1009 488 upper note;
#X text 1008 545 lower note;
#N canvas 1093 414 622 604 map 0;
#X obj 162 -126 / 127;
#X floatatom 162 -104 5 0 0 0 - - -, f 5;
#X obj 102 -174 -;
#X obj 130 -217 t b f;
#X obj 95 -235 f;
#X obj 127 -11 *;
#X obj 122 23 +;
#X floatatom 122 45 5 0 0 0 - - -, f 5;
#X obj 280 -256 inlet value;
#X obj 132 123 outlet;
#X obj 79 -301 r \$0-UpperNote;
#X obj 152 -275 r \$0-LowerNote;
#X connect 0 0 1 0;
#X connect 0 0 5 0;
#X connect 2 0 5 1;
#X connect 3 0 4 0;
#X connect 3 1 2 1;
#X connect 4 0 2 0;
#X connect 5 0 6 0;
#X connect 6 0 7 0;
#X connect 7 0 9 0;
#X connect 8 0 0 0;
#X connect 10 0 4 0;
#X connect 11 0 3 0;
#X connect 11 0 6 1;
#X restore 1337 47 pd map;
#N canvas 1093 414 622 604 map 0;
#X obj 162 -126 / 127;
#X floatatom 162 -104 5 0 0 0 - - -, f 5;
#X obj 102 -174 -;
#X obj 130 -217 t b f;
#X obj 95 -235 f;
#X obj 127 -11 *;
#X obj 122 23 +;
#X floatatom 122 45 5 0 0 0 - - -, f 5;
#X obj 280 -256 inlet value;
#X obj 132 123 outlet;
#X obj 79 -301 r \$0-UpperNote;
#X obj 152 -275 r \$0-LowerNote;
#X connect 0 0 1 0;
#X connect 0 0 5 0;
#X connect 2 0 5 1;
#X connect 3 0 4 0;
#X connect 3 1 2 1;
#X connect 4 0 2 0;
#X connect 5 0 6 0;
#X connect 6 0 7 0;
#X connect 7 0 9 0;
#X connect 8 0 0 0;
#X connect 10 0 4 0;
#X connect 11 0 3 0;
#X connect 11 0 6 1;
#X restore 1427 47 pd map;
#N canvas 1093 414 622 604 map 0;
#X obj 162 -126 / 127;
#X floatatom 162 -104 5 0 0 0 - - -, f 5;
#X obj 102 -174 -;
#X obj 130 -217 t b f;
#X obj 95 -235 f;
#X obj 127 -11 *;
#X obj 122 23 +;
#X floatatom 122 45 5 0 0 0 - - -, f 5;
#X obj 280 -256 inlet value;
#X obj 132 123 outlet;
#X obj 79 -301 r \$0-UpperNote;
#X obj 152 -275 r \$0-LowerNote;
#X connect 0 0 1 0;
#X connect 0 0 5 0;
#X connect 2 0 5 1;
#X connect 3 0 4 0;
#X connect 3 1 2 1;
#X connect 4 0 2 0;
#X connect 5 0 6 0;
#X connect 6 0 7 0;
#X connect 7 0 9 0;
#X connect 8 0 0 0;
#X connect 10 0 4 0;
#X connect 11 0 3 0;
#X connect 11 0 6 1;
#X restore 1516 46 pd map;
#N canvas 1093 414 622 604 map 0;
#X obj 162 -126 / 127;
#X floatatom 162 -104 5 0 0 0 - - -, f 5;
#X obj 102 -174 -;
#X obj 130 -217 t b f;
#X obj 95 -235 f;
#X obj 127 -11 *;
#X obj 122 23 +;
#X floatatom 122 45 5 0 0 0 - - -, f 5;
#X obj 280 -256 inlet value;
#X obj 132 123 outlet;
#X obj 79 -301 r \$0-UpperNote;
#X obj 152 -275 r \$0-LowerNote;
#X connect 0 0 1 0;
#X connect 0 0 5 0;
#X connect 2 0 5 1;
#X connect 3 0 4 0;
#X connect 3 1 2 1;
#X connect 4 0 2 0;
#X connect 5 0 6 0;
#X connect 6 0 7 0;
#X connect 7 0 9 0;
#X connect 8 0 0 0;
#X connect 10 0 4 0;
#X connect 11 0 3 0;
#X connect 11 0 6 1;
#X restore 1606 46 pd map;
#N canvas 1093 414 622 604 map 0;
#X obj 162 -126 / 127;
#X floatatom 162 -104 5 0 0 0 - - -, f 5;
#X obj 102 -174 -;
#X obj 130 -217 t b f;
#X obj 95 -235 f;
#X obj 127 -11 *;
#X obj 122 23 +;
#X floatatom 122 45 5 0 0 0 - - -, f 5;
#X obj 280 -256 inlet value;
#X obj 132 123 outlet;
#X obj 79 -301 r \$0-UpperNote;
#X obj 152 -275 r \$0-LowerNote;
#X connect 0 0 1 0;
#X connect 0 0 5 0;
#X connect 2 0 5 1;
#X connect 3 0 4 0;
#X connect 3 1 2 1;
#X connect 4 0 2 0;
#X connect 5 0 6 0;
#X connect 6 0 7 0;
#X connect 7 0 9 0;
#X connect 8 0 0 0;
#X connect 10 0 4 0;
#X connect 11 0 3 0;
#X connect 11 0 6 1;
#X restore 1695 47 pd map;
#N canvas 1093 414 622 604 map 0;
#X obj 162 -126 / 127;
#X floatatom 162 -104 5 0 0 0 - - -, f 5;
#X obj 102 -174 -;
#X obj 130 -217 t b f;
#X obj 95 -235 f;
#X obj 127 -11 *;
#X obj 122 23 +;
#X floatatom 122 45 5 0 0 0 - - -, f 5;
#X obj 280 -256 inlet value;
#X obj 132 123 outlet;
#X obj 79 -301 r \$0-UpperNote;
#X obj 152 -275 r \$0-LowerNote;
#X connect 0 0 1 0;
#X connect 0 0 5 0;
#X connect 2 0 5 1;
#X connect 3 0 4 0;
#X connect 3 1 2 1;
#X connect 4 0 2 0;
#X connect 5 0 6 0;
#X connect 6 0 7 0;
#X connect 7 0 9 0;
#X connect 8 0 0 0;
#X connect 10 0 4 0;
#X connect 11 0 3 0;
#X connect 11 0 6 1;
#X restore 1785 45 pd map;
#N canvas 1093 414 622 604 map 0;
#X obj 162 -126 / 127;
#X floatatom 162 -104 5 0 0 0 - - -, f 5;
#X obj 102 -174 -;
#X obj 130 -217 t b f;
#X obj 95 -235 f;
#X obj 127 -11 *;
#X obj 122 23 +;
#X floatatom 122 45 5 0 0 0 - - -, f 5;
#X obj 280 -256 inlet value;
#X obj 132 123 outlet;
#X obj 79 -301 r \$0-UpperNote;
#X obj 152 -275 r \$0-LowerNote;
#X connect 0 0 1 0;
#X connect 0 0 5 0;
#X connect 2 0 5 1;
#X connect 3 0 4 0;
#X connect 3 1 2 1;
#X connect 4 0 2 0;
#X connect 5 0 6 0;
#X connect 6 0 7 0;
#X connect 7 0 9 0;
#X connect 8 0 0 0;
#X connect 10 0 4 0;
#X connect 11 0 3 0;
#X connect 11 0 6 1;
#X restore 1874 46 pd map;
#X text 149 457 low x \, high y \, high x \, low y;
#X obj 129 361 r \$0-bang3;
#X msg 119 420 \; \$0-array bounds 0 84 8 36;
#X obj 1057 376 + 1;
#X msg 1020 300 7;
#X floatatom 1020 460 5 0 0 0 - - -, f 5;
#X obj 2686 29 inlet List;
#X obj 1633 429 unpack f f f f f f f f f f f f f f f f;
#X obj 1633 495 pack f f;
#X obj 1633 451 t b f;
#X msg 1633 472 0;
#X msg 1529 533 \; \$0-array \$1 \$2;
#X obj 1648 566 pack f f;
#X obj 1648 522 t b f;
#X obj 1663 634 pack f f;
#X obj 1663 590 t b f;
#X obj 1681 704 pack f f;
#X obj 1681 660 t b f;
#X obj 1693 497 pack f f;
#X obj 1693 453 t b f;
#X obj 1708 568 pack f f;
#X obj 1708 524 t b f;
#X obj 1723 636 pack f f;
#X obj 1723 592 t b f;
#X obj 1741 706 pack f f;
#X obj 1741 662 t b f;
#X obj 1753 497 pack f f;
#X obj 1753 453 t b f;
#X obj 1768 568 pack f f;
#X obj 1768 524 t b f;
#X obj 1783 636 pack f f;
#X obj 1783 592 t b f;
#X obj 1801 706 pack f f;
#X obj 1801 662 t b f;
#X obj 1814 496 pack f f;
#X obj 1814 452 t b f;
#X obj 1829 567 pack f f;
#X obj 1829 523 t b f;
#X obj 1844 635 pack f f;
#X obj 1844 591 t b f;
#X obj 1862 705 pack f f;
#X obj 1862 661 t b f;
#X msg 1648 543 1;
#X msg 1663 611 2;
#X msg 1681 681 3;
#X msg 1693 474 4;
#X msg 1708 545 5;
#X msg 1723 613 6;
#X msg 1741 683 7;
#X msg 1753 474 8;
#X msg 1768 545 9;
#X msg 1783 613 10;
#X msg 1801 683 11;
#X msg 1814 473 12;
#X msg 1829 544 13;
#X msg 1844 612 14;
#X msg 1862 682 15;
#X msg 1548 610 \; \$0-array \$1 \$2;
#X msg 1558 672 \; \$0-array \$1 \$2;
#X msg 1612 738 \; \$0-array \$1 \$2;
#X msg 1409 574 \; \$0-array \$1 \$2;
#X msg 1428 629 \; \$0-array \$1 \$2;
#X msg 1446 691 \; \$0-array \$1 \$2;
#X msg 1496 745 \; \$0-array \$1 \$2;
#X msg 1898 519 \; \$0-array \$1 \$2;
#X msg 1909 585 \; \$0-array \$1 \$2;
#X msg 1918 642 \; \$0-array \$1 \$2;
#X msg 1929 703 \; \$0-array \$1 \$2;
#X msg 2020 528 \; \$0-array \$1 \$2;
#X msg 2026 593 \; \$0-array \$1 \$2;
#X msg 2031 657 \; \$0-array \$1 \$2;
#X msg 2035 733 \; \$0-array \$1 \$2;
#X connect 1 0 108 0;
#X connect 5 0 9 0;
#X connect 5 0 13 0;
#X connect 5 0 72 0;
#X connect 6 0 7 0;
#X connect 7 0 6 1;
#X connect 7 0 8 0;
#X connect 7 0 11 0;
#X connect 8 0 10 0;
#X connect 10 0 6 1;
#X connect 11 0 5 0;
#X connect 12 0 73 0;
#X connect 13 0 12 0;
#X connect 15 0 17 0;
#X connect 16 0 15 0;
#X connect 18 0 16 0;
#X connect 18 1 15 3;
#X connect 19 0 16 0;
#X connect 19 1 15 1;
#X connect 21 0 23 0;
#X connect 22 0 24 0;
#X connect 23 0 46 0;
#X connect 24 0 47 0;
#X connect 25 0 20 0;
#X connect 26 0 6 0;
#X connect 27 0 25 0;
#X connect 28 0 98 0;
#X connect 29 0 99 0;
#X connect 30 0 100 0;
#X connect 31 0 101 0;
#X connect 32 0 102 0;
#X connect 33 0 103 0;
#X connect 34 0 104 0;
#X connect 42 0 8 1;
#X connect 42 0 10 0;
#X connect 43 0 2 0;
#X connect 45 0 92 0;
#X connect 48 0 50 0;
#X connect 50 0 49 0;
#X connect 51 0 58 0;
#X connect 52 0 59 0;
#X connect 53 0 60 0;
#X connect 54 0 61 0;
#X connect 55 0 62 0;
#X connect 56 0 63 0;
#X connect 57 0 64 0;
#X connect 65 0 51 0;
#X connect 66 0 52 0;
#X connect 67 0 53 0;
#X connect 68 0 54 0;
#X connect 69 0 55 0;
#X connect 70 0 56 0;
#X connect 71 0 57 0;
#X connect 72 0 74 0;
#X connect 75 0 23 0;
#X connect 76 0 24 0;
#X connect 78 0 19 0;
#X connect 79 0 18 0;
#X connect 80 0 15 2;
#X connect 81 0 82 0;
#X connect 82 0 84 0;
#X connect 82 1 85 0;
#X connect 82 2 86 0;
#X connect 82 3 87 0;
#X connect 82 4 83 0;
#X connect 88 0 109 0;
#X connect 89 0 4 0;
#X connect 90 0 21 0;
#X connect 91 0 22 0;
#X connect 92 0 14 0;
#X connect 93 0 92 1;
#X connect 98 0 35 0;
#X connect 99 0 36 0;
#X connect 100 0 37 0;
#X connect 101 0 38 0;
#X connect 102 0 39 0;
#X connect 103 0 40 0;
#X connect 104 0 41 0;
#X connect 106 0 107 0;
#X connect 108 0 44 0;
#X connect 108 0 110 0;
#X connect 109 0 108 0;
#X connect 111 0 112 0;
#X connect 112 0 114 0;
#X connect 112 1 118 0;
#X connect 112 2 120 0;
#X connect 112 3 122 0;
#X connect 112 4 124 0;
#X connect 112 5 126 0;
#X connect 112 6 128 0;
#X connect 112 7 130 0;
#X connect 112 8 132 0;
#X connect 112 9 134 0;
#X connect 112 10 136 0;
#X connect 112 11 138 0;
#X connect 112 12 140 0;
#X connect 112 13 142 0;
#X connect 112 14 144 0;
#X connect 112 15 146 0;
#X connect 113 0 116 0;
#X connect 114 0 115 0;
#X connect 114 1 113 1;
#X connect 115 0 113 0;
#X connect 117 0 162 0;
#X connect 118 0 147 0;
#X connect 118 1 117 1;
#X connect 119 0 163 0;
#X connect 120 0 148 0;
#X connect 120 1 119 1;
#X connect 121 0 164 0;
#X connect 122 0 149 0;
#X connect 122 1 121 1;
#X connect 123 0 165 0;
#X connect 124 0 150 0;
#X connect 124 1 123 1;
#X connect 125 0 166 0;
#X connect 126 0 151 0;
#X connect 126 1 125 1;
#X connect 127 0 167 0;
#X connect 128 0 152 0;
#X connect 128 1 127 1;
#X connect 129 0 168 0;
#X connect 130 0 153 0;
#X connect 130 1 129 1;
#X connect 131 0 169 0;
#X connect 132 0 154 0;
#X connect 132 1 131 1;
#X connect 133 0 170 0;
#X connect 134 0 155 0;
#X connect 134 1 133 1;
#X connect 135 0 171 0;
#X connect 136 0 156 0;
#X connect 136 1 135 1;
#X connect 137 0 172 0;
#X connect 138 0 157 0;
#X connect 138 1 137 1;
#X connect 139 0 173 0;
#X connect 140 0 158 0;
#X connect 140 1 139 1;
#X connect 141 0 174 0;
#X connect 142 0 159 0;
#X connect 142 1 141 1;
#X connect 143 0 175 0;
#X connect 144 0 160 0;
#X connect 144 1 143 1;
#X connect 145 0 176 0;
#X connect 146 0 161 0;
#X connect 146 1 145 1;
#X connect 147 0 117 0;
#X connect 148 0 119 0;
#X connect 149 0 121 0;
#X connect 150 0 123 0;
#X connect 151 0 125 0;
#X connect 152 0 127 0;
#X connect 153 0 129 0;
#X connect 154 0 131 0;
#X connect 155 0 133 0;
#X connect 156 0 135 0;
#X connect 157 0 137 0;
#X connect 158 0 139 0;
#X connect 159 0 141 0;
#X connect 160 0 143 0;
#X connect 161 0 145 0;
#X coords 0 -1 1 1 300 220 1 772 413;
