#N canvas 0 49 1920 1008 10;
#X obj 168 -282 inlet frequency;
#X obj 248 637 outlet~ sound;
#X obj 195 -255 inlet Amplitude;
#X obj 285 226 min 1;
#X obj 285 180 abs;
#X obj 152 163 * -1;
#X obj 83 412 +~;
#X text 124 197 asc;
#X text 217 197 desc;
#X text 125 208 0:1;
#X text 219 207 1:0;
#X obj 215 68 loadbang;
#X text 200 88 dephase;
#X msg 229 113 0.5;
#X msg 195 113 0;
#X obj 57 269 *~ 2;
#X obj 152 269 *~ 2;
#X obj 57 291 -~ 1;
#X obj 152 291 -~ 1;
#X obj 57 203 phasor~ \$1;
#X obj 152 203 phasor~ \$1;
#X obj 199 500 *~ \$2;
#X obj 195 -40 hsl 40 15 0 1 0 0 empty empty empty -2 -8 0 10 -262144
-1 -1 0 1;
#X obj 168 -133 vsl 15 128 30 3000 1 0 empty empty empty 0 -9 0 10
-262144 -1 -1 0 1;
#X text 191 -55 amp;
#X text 166 -151 f;
#X text 191 -102 SQUARE;
#X floatatom 200 -22 5 0 0 0 - - -, f 5;
#X floatatom 165 6 5 0 0 0 - - -, f 5;
#X obj 230 8 tgl 15 0 empty empty empty 17 7 0 10 -262144 -1 -1 0 1
;
#X obj 342 549 line~;
#X obj 248 597 *~;
#X msg 342 522 \$1 50;
#X connect 0 0 23 0;
#X connect 2 0 22 0;
#X connect 3 0 21 1;
#X connect 4 0 3 0;
#X connect 5 0 20 0;
#X connect 6 0 21 0;
#X connect 11 0 14 0;
#X connect 11 0 13 0;
#X connect 13 0 20 1;
#X connect 14 0 19 1;
#X connect 15 0 17 0;
#X connect 16 0 18 0;
#X connect 17 0 6 0;
#X connect 18 0 6 1;
#X connect 19 0 15 0;
#X connect 20 0 16 0;
#X connect 21 0 31 0;
#X connect 22 0 4 0;
#X connect 22 0 27 0;
#X connect 23 0 19 0;
#X connect 23 0 5 0;
#X connect 23 0 28 0;
#X connect 29 0 32 0;
#X connect 30 0 31 1;
#X connect 31 0 1 0;
#X connect 32 0 30 0;
#X coords 0 -1 1 1 86 184 1 162 -159;
