#N canvas 832 99 1062 880 10;
#X obj 211 107 time, f 23;
#X floatatom 211 167 5 0 0 0 - - -, f 5;
#X text 172 167 hours;
#X obj 211 188 * 3.6e+06;
#X floatatom 256 217 5 0 0 0 - - -, f 5;
#X obj 256 238 * 60000;
#X floatatom 301 274 5 0 0 0 - - -, f 5;
#X obj 301 295 * 1000;
#X text 212 216 minutes;
#X text 253 274 seconds;
#X floatatom 346 325 5 0 0 0 - - -, f 5;
#X text 269 324 milliseconds;
#X obj 196 390 f;
#X obj 241 389 f;
#X obj 286 389 f;
#X obj 331 389 f;
#X obj 196 447 expr $f1 + $f2 + $f3 + $f4;
#X floatatom 196 478 13 0 0 0 - - -, f 13;
#X obj 148 55 t b b b b b;
#X obj 196 579 - 0;
#X floatatom 196 613 18 0 0 0 - - -, f 18;
#X obj 196 530 t f f;
#X obj 341 825 metro 500;
#X obj 341 873 bng 30 250 50 0 empty empty empty 17 7 0 10 -262144
-1 -1;
#X obj 317 721 t b b f, f 15;
#X msg 361 777 0;
#X msg 317 769 1;
#X obj 148 0 inlet tap;
#X obj 148 28 bng 15 250 50 0 empty empty empty 17 7 0 10 -262144 -1
-1;
#X obj 129 763 outlet tempo;
#X obj 341 923 outlet beats;
#X obj 196 640 average 3;
#X connect 0 0 1 0;
#X connect 0 1 4 0;
#X connect 0 2 6 0;
#X connect 0 3 10 0;
#X connect 1 0 3 0;
#X connect 3 0 12 1;
#X connect 4 0 5 0;
#X connect 5 0 13 1;
#X connect 6 0 7 0;
#X connect 7 0 14 1;
#X connect 10 0 15 1;
#X connect 12 0 16 0;
#X connect 13 0 16 1;
#X connect 14 0 16 2;
#X connect 15 0 16 3;
#X connect 16 0 17 0;
#X connect 17 0 21 0;
#X connect 18 0 12 0;
#X connect 18 1 13 0;
#X connect 18 2 14 0;
#X connect 18 3 15 0;
#X connect 18 4 0 0;
#X connect 19 0 20 0;
#X connect 20 0 31 0;
#X connect 21 0 19 1;
#X connect 21 1 19 0;
#X connect 22 0 23 0;
#X connect 23 0 30 0;
#X connect 24 0 26 0;
#X connect 24 1 25 0;
#X connect 24 2 22 1;
#X connect 25 0 22 0;
#X connect 26 0 22 0;
#X connect 27 0 28 0;
#X connect 28 0 18 0;
#X connect 31 0 24 0;
#X connect 31 0 29 0;
