#N canvas 0 49 1920 1008 10;
#X obj 497 234 soundfiler;
#N canvas 0 0 450 300 (subpatch) 0;
#X array arrayStore 20818 float 2 black black;
#X coords 0 1 20818 -1 200 140 1;
#X restore 813 136 graph;
#X floatatom 497 281 8 0 0 0 - - -, f 8;
#X msg 497 176 read -resize sounds/hah2.wav arrayStore;
#X floatatom 511 492 5 0 0 0 - - -, f 5;
#X obj 561 581 phasor~;
#X obj 561 662 tabread4~ arrayStore;
#X obj 559 711 dac~;
#X obj 561 616 *~ 44100;
#X msg 560 519 1;
#X msg 590 519 2;
#X obj 575 487 hsl 128 15 0 2 0 0 empty empty empty -2 -8 0 10 -262144
-1 -1 2100 1;
#X connect 0 0 2 0;
#X connect 3 0 0 0;
#X connect 4 0 5 0;
#X connect 5 0 8 0;
#X connect 6 0 7 0;
#X connect 6 0 7 1;
#X connect 8 0 6 0;
#X connect 9 0 5 0;
#X connect 10 0 5 0;
#X connect 11 0 5 0;
