#N canvas 0 49 1920 1008 10;
#X obj 138 603 *~;
#X obj 225 -173 vsl 15 128 0 12 0 0 empty empty empty 0 -9 0 10 -262144
-1 -1 5100 1;
#X floatatom 217 -37 5 0 0 0 - - -, f 5;
#X obj 211 173 osc~;
#X obj 211 367 clip~ -1 1;
#X obj 211 299 *~;
#X obj 272 -173 vsl 15 128 1 30 0 0 empty empty empty 0 -9 0 10 -262144
-1 -1 6500 1;
#X text 216 -188 speed;
#X text 263 -189 shape;
#X floatatom 266 -37 5 0 0 0 - - -, f 5;
#X text 214 191 -1:1;
#X obj 138 653 outlet~;
#X obj 315 -173 vsl 15 128 0 1 0 0 empty empty empty 0 -9 0 10 -262144
-1 -1 4400 1;
#X text 305 -189 depth;
#X floatatom 308 -37 5 0 0 0 - - -, f 5;
#X obj 211 498 *~;
#X obj 431 467 -;
#X msg 419 443 1;
#X obj 211 550 +~;
#X obj 211 213 +~ 1;
#X obj 211 249 /~ 2;
#X text 219 230 0:2;
#X text 222 267 0:1;
#X text 220 397 make it clip;
#X text 226 411 so change the waveshape;
#X text 217 331 0:shape;
#X text 216 450 0:1;
#X text 215 523 0:depth;
#X text 187 583 1-depth:1;
#X obj 99 91 inlet~ audio;
#X obj 99 197 spigot~;
#X text 65 233 bypass;
#X obj 358 -52 tgl 15 0 empty empty empty 17 7 0 10 -262144 -1 -1 0
1;
#X text 345 -70 on/off;
#X obj 419 416 t b f f;
#X connect 0 0 11 0;
#X connect 1 0 2 0;
#X connect 1 0 3 0;
#X connect 3 0 19 0;
#X connect 4 0 15 0;
#X connect 5 0 4 0;
#X connect 6 0 9 0;
#X connect 6 0 5 1;
#X connect 12 0 14 0;
#X connect 12 0 34 0;
#X connect 15 0 18 0;
#X connect 16 0 18 1;
#X connect 17 0 16 0;
#X connect 18 0 0 1;
#X connect 19 0 20 0;
#X connect 20 0 5 0;
#X connect 29 0 30 0;
#X connect 30 0 11 0;
#X connect 30 1 0 0;
#X connect 32 0 30 1;
#X connect 34 0 17 0;
#X connect 34 1 16 1;
#X connect 34 2 15 1;
#X coords 0 -1 1 1 180 190 1 205 -207;
