#N canvas 0 49 1920 1008 10;
#X obj 87 -346 inlet frequency;
#X obj 165 689 outlet~ sound;
#X obj 114 -309 inlet Amplitude;
#X obj 285 226 min 1;
#X obj 285 180 abs;
#X obj 57 272 -~ 1;
#X obj 57 237 *~ 2;
#X obj 57 312 clip~ 0 1;
#X obj 152 163 * -1;
#X obj 152 272 -~ 1;
#X obj 152 237 *~ 2;
#X obj 152 312 clip~ 0 1;
#X obj 83 412 +~;
#X msg 209 107 0;
#X obj 83 455 *~ 2;
#X obj 83 477 -~ 1;
#X text 121 196 asc;
#X text 217 198 desc;
#X text 84 271 -1:1;
#X text 122 207 0:1;
#X text 87 236 0:2;
#X text 180 237 2:0;
#X text 217 209 1:0;
#X text 182 271 1:-1;
#X text 194 88 sync phase;
#X obj 209 68 loadbang;
#X obj 57 201 phasor~ \$1;
#X obj 152 203 phasor~ \$1;
#X obj 165 561 *~ \$2;
#X obj 114 -137 hsl 40 15 0 1 0 0 empty empty empty -2 -8 0 10 -262144
-1 -1 2700 1;
#X obj 87 -200 vsl 15 128 30 3000 1 0 empty empty empty 0 -9 0 10 -262144
-1 -1 7100 1;
#X text 110 -154 amp;
#X text 85 -218 f;
#X text 110 -189 TRIANGLE;
#X floatatom 123 -118 5 0 0 0 - - -, f 5;
#X floatatom 81 -63 5 0 0 0 - - -, f 5;
#X msg 285 315 \$1 10;
#X obj 285 375 line;
#X obj 147 -62 tgl 15 0 empty empty empty 17 7 0 10 -262144 -1 -1 0
1;
#X obj 259 569 line~;
#X obj 165 617 *~;
#X msg 259 542 \$1 50;
#X connect 0 0 30 0;
#X connect 2 0 29 0;
#X connect 3 0 36 0;
#X connect 4 0 3 0;
#X connect 5 0 7 0;
#X connect 6 0 5 0;
#X connect 7 0 12 0;
#X connect 8 0 27 0;
#X connect 9 0 11 0;
#X connect 10 0 9 0;
#X connect 11 0 12 1;
#X connect 12 0 14 0;
#X connect 13 0 26 1;
#X connect 13 0 27 1;
#X connect 14 0 15 0;
#X connect 15 0 28 0;
#X connect 25 0 13 0;
#X connect 26 0 6 0;
#X connect 27 0 10 0;
#X connect 28 0 40 0;
#X connect 29 0 4 0;
#X connect 29 0 34 0;
#X connect 30 0 26 0;
#X connect 30 0 8 0;
#X connect 30 0 35 0;
#X connect 36 0 37 0;
#X connect 37 0 28 1;
#X connect 38 0 41 0;
#X connect 39 0 40 1;
#X connect 40 0 1 0;
#X connect 41 0 39 0;
#X coords 0 -1 1 1 86 184 1 79 -229;
