#N canvas 0 49 1920 1008 10;
#X obj 595 -87 phasor~;
#X obj 595 -111 expr 1/$f1;
#X obj 595 -133 / 1000;
#X obj 595 30 osc~, f 5;
#X obj 595 -54 *~;
#X obj 719 -200 t b f;
#X obj 595 8 +~;
#X obj 701 -160 expr $f2 - $f1;
#X obj 595 54 spigot~;
#X obj 595 -154 expr 2000 - $f1;
#X obj 664 -424 vsl 15 128 0 3000 0 0 empty empty empty 0 -9 0 10 -262144
-1 -1 5600 1;
#X obj 698 -424 vsl 15 128 0 3000 0 0 empty empty empty 0 -9 0 10 -262144
-1 -1 7100 1;
#X obj 664 -479 inlet FreqStart;
#X obj 698 -458 inlet FreqEnd;
#X obj 625 -504 inlet T;
#X obj 625 -424 vsl 15 128 2 0 0 0 empty empty empty 0 -9 0 10 -262144
-1 -1 6300 1;
#X obj 791 -496 inlet OnOff;
#X obj 634 79 outlet~;
#X floatatom 693 -287 5 0 0 0 - - -, f 5;
#X floatatom 657 -287 5 0 0 0 - - -, f 5;
#X floatatom 619 -287 5 0 0 0 - - -, f 5;
#X obj 726 -314 tgl 15 0 empty empty empty 17 7 0 10 -262144 -1 -1
1 1;
#X obj 595 -189 * 2000;
#X connect 0 0 4 0;
#X connect 1 0 0 0;
#X connect 2 0 1 0;
#X connect 2 0 15 0;
#X connect 3 0 8 0;
#X connect 4 0 6 0;
#X connect 5 0 7 0;
#X connect 5 1 7 1;
#X connect 6 0 3 0;
#X connect 7 0 4 1;
#X connect 8 1 17 0;
#X connect 9 0 2 0;
#X connect 10 0 6 1;
#X connect 10 0 7 0;
#X connect 10 0 19 0;
#X connect 11 0 5 0;
#X connect 11 0 18 0;
#X connect 12 0 10 0;
#X connect 13 0 11 0;
#X connect 14 0 22 0;
#X connect 15 0 20 0;
#X connect 16 0 21 0;
#X connect 21 0 8 1;
#X connect 22 0 9 0;
#X coords 0 -1 1 1 160 180 1 590 -447;
