#N canvas 0 49 1920 1008 10;
#X obj 165 -120 ctlin;
#X floatatom 282 -86 5 0 0 0 - - -, f 5;
#X floatatom 318 -86 5 0 0 0 - - -, f 5;
#X obj 153 -79 pack f f;
#X obj 153 10 s A1;
#X obj 167 31 s A2;
#X obj 182 51 s A3;
#X obj 196 71 s A4;
#X obj 211 91 s A5;
#X obj 226 111 s A6;
#X obj 240 131 s A7;
#X obj 255 151 s A8;
#X obj 265 8 s B1;
#X obj 279 28 s B2;
#X obj 293 48 s B3;
#X obj 307 68 s B4;
#X obj 321 88 s B5;
#X obj 335 107 s B6;
#X obj 351 127 s B7;
#X obj 364 147 s B8;
#X obj 391 27 s P2;
#X obj 405 47 s P3;
#X obj 419 67 s P4;
#X obj 433 87 s P5;
#X obj 447 106 s P6;
#X obj 462 126 s P7;
#X obj 477 146 s P8;
#X obj 377 7 s P1;
#X obj 489 10 s UP;
#X obj 503 31 s DOWN;
#X obj 517 60 s LEFT;
#X obj 532 83 s RIGHT;
#X obj 153 -27 route 13 14 15 16 17 18 19 20 29 30 31 32 33 34 35 36
49 50 51 52 53 54 55 56 104 105 106 107 77 78 79 81 82 83 84;
#X obj 545 6 s F1;
#X obj 559 25 s F2;
#X obj 573 44 s F3;
#X obj 587 63 s F4;
#X obj 601 82 s F5;
#X obj 615 101 s F6;
#X obj 631 120 s F7;
#X obj 647 139 s F8;
#X connect 0 0 1 0;
#X connect 0 0 3 1;
#X connect 0 1 2 0;
#X connect 0 1 3 0;
#X connect 3 0 32 0;
#X connect 32 0 4 0;
#X connect 32 1 5 0;
#X connect 32 2 6 0;
#X connect 32 3 7 0;
#X connect 32 4 8 0;
#X connect 32 5 9 0;
#X connect 32 6 10 0;
#X connect 32 7 11 0;
#X connect 32 8 12 0;
#X connect 32 9 13 0;
#X connect 32 10 14 0;
#X connect 32 11 15 0;
#X connect 32 12 16 0;
#X connect 32 13 17 0;
#X connect 32 14 18 0;
#X connect 32 15 19 0;
#X connect 32 16 27 0;
#X connect 32 17 20 0;
#X connect 32 18 21 0;
#X connect 32 19 22 0;
#X connect 32 20 23 0;
#X connect 32 21 24 0;
#X connect 32 22 25 0;
#X connect 32 23 26 0;
#X connect 32 24 28 0;
#X connect 32 25 29 0;
#X connect 32 26 30 0;
#X connect 32 27 31 0;
#X connect 32 28 33 0;
#X connect 32 29 34 0;
#X connect 32 30 35 0;
#X connect 32 31 36 0;
#X connect 32 32 37 0;
#X connect 32 33 38 0;
#X connect 32 34 39 0;
#X connect 32 35 40 0;
