#N canvas 0 49 1920 1008 10;
#X obj 612 200 notein;
#X floatatom 589 242 5 0 0 0 - - -, f 5;
#X floatatom 633 237 5 0 0 0 - - -, f 5;
#X obj 615 421 a_fm;
#X obj 589 310 mtof;
#X obj 579 946 dac~;
#X obj 765 142 pgmin;
#X floatatom 742 193 5 0 0 0 - - -, f 5;
#X floatatom 874 292 5 0 0 0 - - -, f 5;
#X obj 811 334 mtof;
#X obj 597 854 *~;
#X obj 676 713 / 127;
#X floatatom 911 293 5 0 0 0 - - -, f 5;
#X floatatom 789 171 5 0 0 0 - - -, f 5;
#X obj 992 206 bendin;
#X obj 1037 206 ctlin;
#X obj 1331 206 touchin;
#X obj 1205 206 polytouchin;
#X obj 1076 206 midiin;
#X obj 1280 206 sysexin;
#X floatatom 987 247 5 0 0 0 - - -, f 5;
#X floatatom 1035 249 5 0 0 0 - - -, f 5;
#X floatatom 1077 247 5 0 0 0 - - -, f 5;
#X floatatom 1206 248 5 0 0 0 - - -, f 5;
#X floatatom 1277 247 5 0 0 0 - - -, f 5;
#X floatatom 1323 245 5 0 0 0 - - -, f 5;
#X obj 895 249 ctlin;
#X text 959 36 USER - 2;
#X obj 884 336 list \$1 \$2;
#X obj 884 373 route 4 7;
#X obj 994 581 a_arpeggiator;
#X obj 999 436 notein;
#X obj 987 1196 dac~;
#X obj 1005 1104 *~;
#X obj 1184 991 / 127;
#X obj 812 787 a_square;
#X obj 1118 488 a_map;
#X msg 1115 435 0;
#X msg 1146 435 127;
#X floatatom 1179 1029 5 0 0 0 - - -, f 5;
#X floatatom 1103 528 5 0 0 0 - - -, f 5;
#X msg 1176 440 5000;
#X msg 1208 442 100;
#X obj 951 811 a_delay;
#X connect 0 0 1 0;
#X connect 0 1 2 0;
#X connect 1 0 4 0;
#X connect 3 0 10 0;
#X connect 4 0 3 0;
#X connect 6 0 7 0;
#X connect 6 1 13 0;
#X connect 8 0 28 1;
#X connect 9 0 3 1;
#X connect 10 0 5 1;
#X connect 10 0 5 0;
#X connect 11 0 10 1;
#X connect 12 0 28 0;
#X connect 14 0 20 0;
#X connect 15 0 21 0;
#X connect 16 0 25 0;
#X connect 17 0 23 0;
#X connect 18 0 22 0;
#X connect 19 0 24 0;
#X connect 26 0 8 0;
#X connect 26 1 12 0;
#X connect 28 0 29 0;
#X connect 29 0 9 0;
#X connect 29 0 36 0;
#X connect 29 1 11 0;
#X connect 29 1 34 0;
#X connect 29 2 36 0;
#X connect 30 0 43 0;
#X connect 31 0 30 0;
#X connect 33 0 32 1;
#X connect 33 0 32 0;
#X connect 34 0 33 1;
#X connect 34 0 39 0;
#X connect 36 0 30 1;
#X connect 36 0 40 0;
#X connect 37 0 36 1;
#X connect 38 0 36 2;
#X connect 41 0 36 3;
#X connect 42 0 36 4;
#X connect 43 0 33 0;
