#N canvas 1 48 1918 1008 10;
#X obj -233 -255 spigot;
#X msg -183 -288 1;
#X msg -150 -288 0;
#X floatatom -233 -233 5 0 0 0 - - -, f 5;
#X obj -233 -212 mtof;
#X obj -124 96 *~ 0.5;
#X msg -33 46 1;
#X msg 0 46 0;
#X obj -33 24 sel 77;
#X obj -66 74 spigot;
#X obj -66 -28 / 127;
#X obj -247 -506 ctlin, f 21;
#X floatatom -247 -481 5 0 0 0 - - -, f 5;
#X obj -247 -459 s CtlVal;
#X floatatom -186 -481 5 0 0 0 - - -, f 5;
#X obj -186 -459 s CtlChan;
#X obj -233 -396 r CtlVal;
#X obj -66 -50 r CtlVal;
#X obj -33 -3 r CtlChan;
#X obj -183 -335 r CtlChan;
#X obj -477 -243 spigot;
#X msg -427 -276 1;
#X msg -394 -276 0;
#X obj -477 -348 r CtlVal;
#X obj -427 -323 r CtlChan;
#X obj -359 -243 spigot;
#X msg -309 -276 1;
#X msg -276 -276 0;
#X obj -309 -298 sel 49;
#X obj -359 -348 r CtlVal;
#X obj -309 -323 r CtlChan;
#X obj -183 -310 sel 13;
#X obj -427 -298 sel 29;
#X msg -393 -69 0;
#X msg -363 -72 127;
#X floatatom -416 0 5 0 0 0 - - -, f 5;
#X floatatom -411 -116 5 0 0 0 - - -, f 5;
#X floatatom -439 -167 5 0 0 0 - - -, f 5;
#X msg -356 -190 0;
#X msg -327 -191 127;
#X obj -233 -132 phasor~;
#X floatatom -332 -128 5 0 0 0 - - -, f 5;
#X text -185 -125 read a table instead (and get triangles and drawings)
;
#X obj -313 50 sig~;
#X obj -177 52 vcf~;
#X msg -270 -202 50;
#X msg -301 -204 1;
#X msg -296 -71 2000;
#X msg -327 -73 200;
#X text 1737 -73 help C08: sequencer;
#X text 1736 -159 see F08;
#X text 1736 -135 see H05;
#X text 1737 -114 see H09;
#X text 1739 -195 example H15;
#X obj -233 -160 line;
#X msg -233 -182 \$1 5;
#X obj -462 -124 line;
#X msg -462 -146 \$1 5;
#X obj -399 -189 line;
#X msg -399 -211 \$1 5;
#X obj 1171 90 a_clock;
#X obj 583 372 a_fm;
#X obj 315 299 bng 15 250 50 0 empty empty empty 17 7 0 10 -262144
-1 -1;
#X obj 458 593 *~;
#X obj 1271 641 bng 15 250 50 0 empty empty empty 17 7 0 10 -262144
-1 -1;
#X obj 1408 956 *~;
#X obj 1539 653 a_am;
#X msg -250 -71 1;
#X obj -411 -34 m_scale;
#X msg -265 -234 1;
#X obj -385 -165 m_scale, f 20;
#X obj 315 347 a_adsr 1 0.8 100 200 400 300;
#X obj 662 766 a_fm;
#X obj 398 757 bng 15 250 50 0 empty empty empty 17 7 0 10 -262144
-1 -1;
#X obj 398 982 *~;
#X obj 398 1020 a_delay;
#X obj 398 803 a_adsr 1 0.45 57 18 76 20;
#X obj -94 605 a_triangle;
#X obj 1 605 a_square;
#X obj 96 605 a_sawtooth;
#X obj 222 821 spigot~;
#X obj 261 797 tgl 15 0 empty empty empty 17 7 0 10 -262144 -1 -1 1
1;
#X obj 222 752 noise~;
#X obj 1143 -251 a_fm;
#X obj 916 -269 bng 15 250 50 0 empty empty empty 17 7 0 10 -262144
-1 -1;
#X obj 916 87 *~;
#X obj 916 -229 a_adsr 1 0.8 100 200 400 300;
#X obj 916 145 a_flanger, f 30;
#X obj 1477 424 a_chorus;
#X text 974 -203 comment;
#X text 1741 -94 see J08;
#X obj 1705 34 a_fm;
#X obj 1477 36 bng 15 250 50 0 empty empty empty 17 7 0 10 -262144
-1 -1;
#X obj 1477 392 *~;
#X obj 1477 76 a_adsr 1 0.8 100 200 400 300;
#X text 1535 102 comment;
#X obj 29 914 a_resfilt 0 30;
#X obj 911 404 dac~;
#X obj 449 623 dac~;
#X obj 17 1191 dac~;
#X obj 388 1224 dac~;
#X obj 1467 596 dac~;
#X obj 1312 1180 dac~;
#X obj 1319 138 a_sawtooth 220 0;
#X obj 1271 702 a_adsr 1 0.8 100 200 200 100;
#X obj 1322 1040 a_reverb;
#X obj 464 -659 bng 15 250 50 0 empty empty empty 17 7 0 10 -262144
-1 -1;
#X obj 464 -303 *~;
#X obj 464 -619 a_adsr 1 0.8 100 200 400 300;
#X text 522 -593 comment;
#X obj 459 14 dac~;
#X obj 772 -141 a_sawtooth 220 0;
#X obj 320 -531 a_sawtooth 220 0;
#X obj 705 -544 a_fm;
#X obj 623 -322 noise~;
#X obj 465 -245 a_phaser, f 30;
#X obj 623 -291 spigot~;
#X obj 676 -324 tgl 15 0 empty empty empty 17 7 0 10 -262144 -1 -1
1 1;
#X obj 559 1562 dac~;
#X floatatom 888 1547 5 0 0 0 - - -, f 5;
#X floatatom 1223 1557 5 0 0 0 - - -, f 5;
#X obj 1301 1521 a_fm;
#X obj 1187 2578 dac~;
#X obj 568 1337 a_arpeggiator;
#X obj 716 1165 notein;
#X obj 852 1164 ctlin;
#X obj 850 1216 pack \$1 \$2;
#X obj 1037 1290 a_map;
#X msg 1092 1267 100;
#X msg 1077 1244 5000;
#X msg 1060 1221 127;
#X msg 1046 1200 0;
#X floatatom 889 1115 5 0 0 0 - - -, f 5;
#X obj 1204 2485 *~;
#X obj 1088 1650 / 127;
#X obj 1151 2264 a_delay;
#X obj 1275 1746 a_flanger;
#X obj 1291 1973 a_resfilt 0 30;
#X obj 1162 1688 / 127;
#X floatatom 1152 1817 11 0 0 0 - - -, f 11;
#X obj 1071 1165 loadbang;
#X obj 851 1238 route 77 13 84 78 29;
#X obj 1325 1458 a_map;
#X msg 1348 1389 127;
#X msg 1334 1368 0;
#X obj 1359 1333 loadbang;
#X msg 1365 1412 0;
#X msg 1380 1435 500;
#X obj 1163 1738 * 15000;
#X obj 844 2191 a_lp;
#X obj -331 204 a_triangle;
#X obj -357 505 a_disto;
#X obj -353 717 dac~;
#X obj 92 1551 a_sampler;
#X obj 165 2036 dac~;
#X obj 98 1492 notein;
#X obj -17 212 a_sampler2;
#X obj -30 426 dac~;
#X obj 162 1771 a_delay;
#X obj 36 1808 dac~;
#X obj 292 -239 a_tremolo;
#X obj 158 -238 a_vibrato;
#X connect 0 0 3 0;
#X connect 1 0 0 1;
#X connect 2 0 0 1;
#X connect 3 0 4 0;
#X connect 4 0 55 0;
#X connect 6 0 9 1;
#X connect 7 0 9 1;
#X connect 8 0 6 0;
#X connect 8 1 7 0;
#X connect 9 0 5 1;
#X connect 10 0 9 0;
#X connect 11 0 12 0;
#X connect 11 1 14 0;
#X connect 12 0 13 0;
#X connect 14 0 15 0;
#X connect 16 0 0 0;
#X connect 17 0 10 0;
#X connect 18 0 8 0;
#X connect 19 0 31 0;
#X connect 20 0 37 0;
#X connect 20 0 57 0;
#X connect 21 0 20 1;
#X connect 22 0 20 1;
#X connect 23 0 20 0;
#X connect 24 0 32 0;
#X connect 25 0 59 0;
#X connect 26 0 25 1;
#X connect 27 0 25 1;
#X connect 28 0 26 0;
#X connect 28 1 27 0;
#X connect 29 0 25 0;
#X connect 30 0 28 0;
#X connect 31 0 1 0;
#X connect 31 1 2 0;
#X connect 32 0 21 0;
#X connect 32 1 22 0;
#X connect 33 0 68 1;
#X connect 34 0 68 2;
#X connect 36 0 68 0;
#X connect 38 0 70 1;
#X connect 39 0 70 2;
#X connect 40 0 44 0;
#X connect 43 0 44 1;
#X connect 44 0 5 0;
#X connect 45 0 70 4;
#X connect 46 0 70 3;
#X connect 47 0 68 4;
#X connect 48 0 68 3;
#X connect 54 0 40 0;
#X connect 55 0 54 0;
#X connect 56 0 68 0;
#X connect 57 0 56 0;
#X connect 58 0 70 0;
#X connect 59 0 58 0;
#X connect 61 0 63 0;
#X connect 62 0 71 0;
#X connect 63 0 98 0;
#X connect 63 0 98 1;
#X connect 64 0 104 0;
#X connect 65 0 105 0;
#X connect 66 0 65 1;
#X connect 67 0 68 5;
#X connect 68 0 35 0;
#X connect 68 0 43 0;
#X connect 69 0 70 5;
#X connect 70 0 41 0;
#X connect 70 0 44 2;
#X connect 71 0 63 1;
#X connect 72 0 74 1;
#X connect 73 0 76 0;
#X connect 74 0 75 0;
#X connect 75 0 100 0;
#X connect 75 0 100 1;
#X connect 76 0 74 0;
#X connect 77 0 96 0;
#X connect 78 0 96 0;
#X connect 79 0 96 0;
#X connect 80 1 96 0;
#X connect 81 0 80 1;
#X connect 82 0 80 0;
#X connect 83 0 85 1;
#X connect 84 0 86 0;
#X connect 85 0 87 0;
#X connect 86 0 85 0;
#X connect 87 0 97 0;
#X connect 87 0 97 1;
#X connect 88 0 101 0;
#X connect 88 0 101 1;
#X connect 91 0 93 1;
#X connect 92 0 94 0;
#X connect 93 0 88 0;
#X connect 94 0 93 0;
#X connect 96 0 99 0;
#X connect 96 0 99 1;
#X connect 103 0 88 0;
#X connect 104 0 65 0;
#X connect 105 0 102 0;
#X connect 105 0 102 1;
#X connect 106 0 108 0;
#X connect 107 0 115 0;
#X connect 108 0 107 0;
#X connect 111 0 87 0;
#X connect 112 0 115 0;
#X connect 112 0 160 0;
#X connect 112 0 161 0;
#X connect 113 0 107 1;
#X connect 114 0 116 0;
#X connect 115 0 110 0;
#X connect 115 0 110 1;
#X connect 116 1 115 0;
#X connect 117 0 116 1;
#X connect 121 0 136 0;
#X connect 123 0 118 0;
#X connect 123 1 119 0;
#X connect 123 1 121 1;
#X connect 123 2 120 0;
#X connect 123 2 121 0;
#X connect 124 0 123 0;
#X connect 125 0 126 1;
#X connect 125 1 126 0;
#X connect 125 1 132 0;
#X connect 126 0 141 0;
#X connect 127 0 123 1;
#X connect 128 0 127 4;
#X connect 129 0 127 3;
#X connect 130 0 127 2;
#X connect 131 0 127 1;
#X connect 133 0 122 0;
#X connect 133 0 122 1;
#X connect 134 0 133 1;
#X connect 135 0 133 0;
#X connect 136 0 137 0;
#X connect 136 0 149 0;
#X connect 138 0 148 0;
#X connect 139 0 149 1;
#X connect 140 0 131 0;
#X connect 140 0 130 0;
#X connect 140 0 129 0;
#X connect 140 0 128 0;
#X connect 141 0 127 0;
#X connect 141 1 123 0;
#X connect 141 2 134 0;
#X connect 141 3 138 0;
#X connect 141 4 142 0;
#X connect 142 0 121 2;
#X connect 143 0 142 2;
#X connect 144 0 142 1;
#X connect 145 0 144 0;
#X connect 145 0 143 0;
#X connect 145 0 146 0;
#X connect 145 0 147 0;
#X connect 146 0 142 3;
#X connect 147 0 142 4;
#X connect 148 0 137 1;
#X connect 148 0 139 0;
#X connect 149 0 133 0;
#X connect 150 0 151 0;
#X connect 151 0 152 0;
#X connect 151 0 152 1;
#X connect 153 0 158 0;
#X connect 153 0 159 0;
#X connect 153 0 159 1;
#X connect 155 0 153 0;
#X connect 156 0 157 0;
#X connect 156 0 157 1;
#X connect 158 0 154 0;
#X connect 158 0 154 1;
#X connect 160 0 110 0;
#X connect 160 0 110 1;
#X connect 161 0 110 0;
#X connect 161 0 110 1;
