#N canvas 2747 242 450 725 10;
#X obj 63 79 inlet;
#X text 53 62 x1;
#X obj 117 78 inlet;
#X text 107 61 x2;
#X obj 194 78 inlet;
#X obj 248 77 inlet;
#X text 184 61 y1;
#X text 245 58 y2;
#X obj 235 179 -;
#X floatatom 255 132 5 0 0 0 - - -, f 5;
#X floatatom 194 109 5 0 0 0 - - -, f 5;
#X floatatom 235 226 5 0 0 0 - - -, f 5;
#X obj 102 194 -;
#X floatatom 122 147 5 0 0 0 - - -, f 5;
#X floatatom 61 124 5 0 0 0 - - -, f 5;
#X floatatom 102 241 5 0 0 0 - - -, f 5;
#X text 245 205 y2-y1;
#X text 115 220 x2-x1;
#X obj 107 335 /;
#X obj 102 260 t b f;
#X floatatom 112 369 5 0 0 0 - - -, f 5;
#X text 152 356 a=(y2-y1)/(x2-x1);
#X obj 67 450 *;
#X obj 61 148 t b f f;
#X text 80 477 a*x1;
#X floatatom 68 498 5 0 0 0 - - -, f 5;
#X obj 157 620 -;
#X obj 194 133 t b f f;
#X obj 195 546 f;
#X obj 122 504 t b f;
#X floatatom 157 642 5 0 0 0 - - -, f 5;
#X text 192 631 b=y1-a*x1;
#X obj 105 424 outlet;
#X obj 163 670 outlet;
#X connect 0 0 14 0;
#X connect 2 0 13 0;
#X connect 4 0 10 0;
#X connect 5 0 9 0;
#X connect 8 0 11 0;
#X connect 9 0 8 0;
#X connect 10 0 27 0;
#X connect 11 0 18 0;
#X connect 12 0 15 0;
#X connect 13 0 12 0;
#X connect 14 0 23 0;
#X connect 15 0 19 0;
#X connect 18 0 20 0;
#X connect 18 0 22 0;
#X connect 18 0 32 0;
#X connect 19 0 11 0;
#X connect 19 1 18 1;
#X connect 22 0 25 0;
#X connect 22 0 29 0;
#X connect 23 0 13 0;
#X connect 23 1 12 1;
#X connect 23 2 22 1;
#X connect 26 0 30 0;
#X connect 26 0 33 0;
#X connect 27 0 9 0;
#X connect 27 1 8 1;
#X connect 27 2 28 1;
#X connect 28 0 26 0;
#X connect 29 0 28 0;
#X connect 29 1 26 1;
