#N canvas 699 192 1413 661 10;
#X obj 168 124 soundfiler;
#N canvas 0 0 450 300 (subpatch) 0;
#X array sound 77735 float 0 black black;
#X coords 0 1 77734 -1 200 140 1;
#X restore 398 132 graph;
#X obj 24 320 tabplay~ sound;
#X obj 24 423 *~;
#X obj 38 401 line~, f 6;
#X msg 38 360 0.8 10;
#X msg 54 381 0 10;
#X obj 14 466 dac~;
#X obj 24 263 bng 15 250 50 0 empty empty empty 17 7 0 10 -262144 -1
-1;
#X obj 794 384 tabread4~ sound;
#X obj 794 492 *~;
#X obj 808 470 line~, f 6;
#X msg 808 429 0.8 10;
#X msg 824 450 0 10;
#X obj 785 519 dac~;
#X text 902 248 start sample;
#X text 901 257 end sample;
#X text 901 266 time from start to end (ms);
#X obj 794 318 line~;
#X obj 220 158 s length;
#X obj 805 79 r length;
#X obj 428 -27 loadbang;
#X msg 428 -5 44100;
#X obj 428 17 s sr;
#X obj 603 49 map, f 20;
#X obj 233 208 r sr;
#X obj 211 247 /;
#X obj 212 289 s dur;
#X obj 1057 40 r dur;
#X floatatom 1057 62 5 0 0 0 - - -, f 5;
#X obj 1157 75 tgl 15 0 empty empty empty 17 7 0 10 -262144 -1 -1 0
1;
#X floatatom 579 -3 5 0 0 0 - - -, f 5;
#X msg 614 19 0;
#X obj 616 -15 loadbang;
#X msg 644 19 1;
#X msg 678 18 0;
#X obj 725 -3 r length;
#X floatatom 744 31 5 0 0 0 - - -, f 5;
#X obj 603 72 i;
#X floatatom 603 94 5 0 0 0 - - -, f 5;
#X obj 571 -53 / 127;
#X floatatom 569 -90 5 0 0 0 - - -, f 5;
#X obj 890 -43 vsl 15 128 10 2500 0 0 empty empty empty 0 -9 0 10 -262144
-1 -1 0 1;
#X floatatom 899 107 5 0 0 0 - - -, f 5;
#X msg 624 213 range \$1 \$2;
#X obj 624 240 vsl 15 128 0 77735 0 0 empty empty empty 0 -9 0 10 -262144
-1 -1 0 1;
#X obj 624 189 pack f f, f 10;
#X msg 624 159 0;
#X obj 654 132 r length;
#X obj 654 154 t b f;
#X text 463 293 just to visualize where we start from;
#X obj 759 179 pack f f f f;
#X obj 759 209 route 0 1, f 24;
#X msg 759 231 \$1 \$2 \$3;
#X msg 829 231 \$2 \$1 \$3;
#X obj 759 254 pack f f f;
#X msg 759 277 \$1 \, \$2 \$3;
#X obj 829 254 pack f f f, f 11;
#X msg 829 277 \$1 \, \$2 \$3;
#X obj 1157 96 s Direction;
#X text 1169 133 play;
#X obj 1148 156 s Go;
#X obj 1148 134 bng 15 250 50 0 empty empty empty 17 7 0 10 -262144
-1 -1;
#X obj 759 149 f;
#X obj 774 119 r Direction;
#X obj 759 97 r Go;
#X obj 1157 29 pgmin;
#X obj 1076 -92 ctlin;
#X obj 1090 -11 sel 7 4 64;
#X text 1119 16 hold;
#X obj 877 -73 map, f 20;
#X msg 901 -106 0;
#X obj 903 -140 loadbang;
#X msg 931 -106 1;
#X obj 1024 -33 / 127;
#X obj 1024 -62 f;
#X msg 963 -105 10;
#X msg 990 -105 2500;
#X text 1025 -83 expr;
#X obj 600 -122 f;
#X text 558 -140 vol knob;
#X obj 1157 52 mod 2;
#X floatatom 1008 15 5 0 0 0 - - -, f 5;
#X floatatom 1106 -52 5 0 0 0 - - -, f 5;
#X obj 1038 116 notein;
#X msg 168 86 read -resize sounds/karate.wav sound;
#X connect 0 0 19 0;
#X connect 0 0 26 0;
#X connect 2 0 3 0;
#X connect 3 0 7 0;
#X connect 3 0 7 1;
#X connect 4 0 3 1;
#X connect 5 0 4 0;
#X connect 6 0 4 0;
#X connect 8 0 2 0;
#X connect 9 0 10 0;
#X connect 10 0 14 0;
#X connect 10 0 14 1;
#X connect 11 0 10 1;
#X connect 12 0 11 0;
#X connect 13 0 11 0;
#X connect 18 0 9 0;
#X connect 20 0 51 2;
#X connect 21 0 22 0;
#X connect 22 0 23 0;
#X connect 24 0 38 0;
#X connect 25 0 26 1;
#X connect 26 0 27 0;
#X connect 28 0 29 0;
#X connect 30 0 59 0;
#X connect 31 0 24 0;
#X connect 32 0 24 1;
#X connect 33 0 32 0;
#X connect 33 0 34 0;
#X connect 34 0 24 2;
#X connect 35 0 24 3;
#X connect 36 0 24 4;
#X connect 36 0 37 0;
#X connect 38 0 39 0;
#X connect 38 0 45 0;
#X connect 38 0 51 1;
#X connect 40 0 31 0;
#X connect 41 0 40 0;
#X connect 42 0 43 0;
#X connect 42 0 51 3;
#X connect 44 0 45 0;
#X connect 46 0 44 0;
#X connect 47 0 46 0;
#X connect 48 0 49 0;
#X connect 49 0 47 0;
#X connect 49 1 46 1;
#X connect 51 0 52 0;
#X connect 52 0 53 0;
#X connect 52 1 54 0;
#X connect 53 0 55 0;
#X connect 54 0 57 0;
#X connect 55 0 56 0;
#X connect 56 0 18 0;
#X connect 57 0 58 0;
#X connect 58 0 18 0;
#X connect 62 0 61 0;
#X connect 63 0 51 0;
#X connect 64 0 63 1;
#X connect 65 0 63 0;
#X connect 66 0 81 0;
#X connect 67 0 75 1;
#X connect 67 0 79 1;
#X connect 67 1 68 0;
#X connect 67 1 83 0;
#X connect 68 0 79 0;
#X connect 68 1 75 0;
#X connect 68 2 62 0;
#X connect 70 0 42 0;
#X connect 71 0 70 1;
#X connect 72 0 71 0;
#X connect 72 0 73 0;
#X connect 73 0 70 2;
#X connect 74 0 70 0;
#X connect 75 0 74 0;
#X connect 75 0 82 0;
#X connect 76 0 70 3;
#X connect 77 0 70 4;
#X connect 79 0 41 0;
#X connect 81 0 30 0;
#X connect 84 0 62 0;
#X connect 85 0 0 0;
