#N canvas 1 48 1918 1008 10;
#X obj 505 337 a_sampler2;
#X obj 411 -173 ctlin;
#X obj 399 -96 pack f f;
#X obj 399 -16 s A1;
#X obj 413 5 s A2;
#X obj 428 25 s A3;
#X obj 442 45 s A4;
#X obj 457 65 s A5;
#X obj 472 85 s A6;
#X obj 486 105 s A7;
#X obj 501 125 s A8;
#X obj 511 -18 s B1;
#X obj 525 2 s B2;
#X obj 539 22 s B3;
#X obj 553 42 s B4;
#X obj 567 62 s B5;
#X obj 581 81 s B6;
#X obj 597 101 s B7;
#X obj 610 121 s B8;
#X obj 637 1 s P2;
#X obj 651 21 s P3;
#X obj 665 41 s P4;
#X obj 679 61 s P5;
#X obj 693 80 s P6;
#X obj 708 100 s P7;
#X obj 723 120 s P8;
#X obj 623 -19 s P1;
#X obj 735 -16 s UP;
#X obj 749 5 s DOWN;
#X obj 763 34 s LEFT;
#X obj 778 57 s RIGHT;
#X obj 791 -20 s F1;
#X obj 805 -1 s F2;
#X obj 819 18 s F3;
#X obj 833 37 s F4;
#X obj 847 56 s F5;
#X obj 861 75 s F6;
#X obj 877 94 s F7;
#X obj 893 113 s F8;
#X obj 1022 -124 notein;
#X obj 1007 -27 s TF1;
#X obj 1026 -8 s TF2;
#X obj 1046 11 s TF3;
#X obj 1066 30 s TF4;
#X obj 1085 49 s TF5;
#X obj 1105 68 s TF6;
#X obj 1125 87 s TF7;
#X obj 1144 106 s TF8;
#X obj 1007 -47 route 41 42 43 44 57 58 59 60 73 74 75 76 89 90 91
92;
#X obj 1164 -27 s TC1;
#X obj 1184 -8 s TC2;
#X obj 1203 11 s TC3;
#X obj 1223 30 s TC4;
#X obj 1243 49 s TC5;
#X obj 1262 68 s TC6;
#X obj 1282 87 s TC7;
#X obj 1302 106 s TC8;
#X obj 1007 -78 pack f f;
#X obj 399 -122 pipe 1;
#X floatatom 483 -128 5 0 0 0 - - -, f 5;
#X obj 399 -53 route 13 14 15 16 17 18 19 20 29 30 31 32 33 34 35 36
49 50 51 52 53 54 55 56 104 105 106 107 77 78 79 80 81 82 83 84;
#X obj 561 1128 dac~;
#X obj 505 264 r TC1;
#X obj 556 271 r TC2;
#X obj 569 563 a_delay;
#X obj 634 810 a_phaser;
#X obj 465 796 a_resfilt;
#X obj 1041 473 a_arpeggiator;
#X obj 1040 785 a_fm;
#X obj 1135 736 mtof;
#X obj 187 763 noise~;
#X obj 187 833 a_flanger;
#X obj 211 492 a_woosh;
#X obj 207 321 r TF1;
#X connect 0 0 64 0;
#X connect 1 0 2 1;
#X connect 1 1 58 0;
#X connect 1 1 59 0;
#X connect 2 0 60 0;
#X connect 39 0 57 0;
#X connect 39 1 57 1;
#X connect 48 0 40 0;
#X connect 48 1 41 0;
#X connect 48 2 42 0;
#X connect 48 3 43 0;
#X connect 48 4 44 0;
#X connect 48 5 45 0;
#X connect 48 6 46 0;
#X connect 48 7 47 0;
#X connect 48 8 49 0;
#X connect 48 9 50 0;
#X connect 48 10 51 0;
#X connect 48 11 52 0;
#X connect 48 12 53 0;
#X connect 48 13 54 0;
#X connect 48 14 55 0;
#X connect 48 15 56 0;
#X connect 57 0 48 0;
#X connect 58 0 2 0;
#X connect 60 0 3 0;
#X connect 60 1 4 0;
#X connect 60 2 5 0;
#X connect 60 3 6 0;
#X connect 60 4 7 0;
#X connect 60 5 8 0;
#X connect 60 6 9 0;
#X connect 60 7 10 0;
#X connect 60 8 11 0;
#X connect 60 9 12 0;
#X connect 60 10 13 0;
#X connect 60 11 14 0;
#X connect 60 12 15 0;
#X connect 60 13 16 0;
#X connect 60 14 17 0;
#X connect 60 15 18 0;
#X connect 60 16 26 0;
#X connect 60 17 19 0;
#X connect 60 18 20 0;
#X connect 60 19 21 0;
#X connect 60 20 22 0;
#X connect 60 21 23 0;
#X connect 60 22 24 0;
#X connect 60 23 25 0;
#X connect 60 24 27 0;
#X connect 60 25 28 0;
#X connect 60 26 29 0;
#X connect 60 27 30 0;
#X connect 60 28 31 0;
#X connect 60 29 32 0;
#X connect 60 30 33 0;
#X connect 60 31 34 0;
#X connect 60 32 35 0;
#X connect 60 33 36 0;
#X connect 60 34 37 0;
#X connect 60 35 38 0;
#X connect 62 0 0 0;
#X connect 63 0 0 1;
#X connect 64 0 65 0;
#X connect 64 0 66 0;
#X connect 65 0 61 1;
#X connect 66 0 61 0;
#X connect 67 1 69 0;
#X connect 68 0 61 1;
#X connect 69 0 68 0;
#X connect 70 0 71 0;
#X connect 71 0 61 0;
#X connect 72 0 66 0;
#X connect 72 0 71 0;
#X connect 73 0 72 0;
