#N canvas 621 178 655 449 10;
#X obj 245 333 a_looper;
#X obj 202 113 *~ 10;
#X obj 202 69 adc~ 1;
#X obj 346 50 ctlin;
#X floatatom 358 93 5 0 0 0 - - -, f 5;
#X floatatom 320 92 5 0 0 0 - - -, f 5;
#X obj 441 28 notein;
#X obj 423 66 pack f f;
#X floatatom 492 76 5 0 0 0 - - -, f 5;
#X obj 423 135 route 41 42 73 74;
#X obj 423 156 sel 127;
#X obj 447 177 sel 127;
#X obj 472 200 sel 127;
#X obj 497 221 sel 127;
#X obj 222 397 dac~ 1 2;
#X obj 390 165 bng 15 250 50 0 empty empty empty 17 7 0 10 -262144
-1 -1;
#X obj 441 214 bng 15 250 50 0 empty empty empty 17 7 0 10 -262144
-1 -1;
#X obj 464 230 bng 15 250 50 0 empty empty empty 17 7 0 10 -262144
-1 -1;
#X obj 495 252 bng 15 250 50 0 empty empty empty 17 7 0 10 -262144
-1 -1;
#X obj 153 113 env~;
#X floatatom 153 135 5 0 0 0 - - -, f 5;
#X connect 0 0 14 1;
#X connect 1 0 0 0;
#X connect 1 0 14 0;
#X connect 2 0 1 0;
#X connect 2 0 19 0;
#X connect 3 0 5 0;
#X connect 3 1 4 0;
#X connect 6 0 7 0;
#X connect 6 0 8 0;
#X connect 6 1 7 1;
#X connect 7 0 9 0;
#X connect 9 0 10 0;
#X connect 9 1 11 0;
#X connect 9 2 12 0;
#X connect 9 3 13 0;
#X connect 10 0 0 1;
#X connect 10 0 15 0;
#X connect 11 0 0 2;
#X connect 11 0 16 0;
#X connect 12 0 0 3;
#X connect 12 0 17 0;
#X connect 13 0 0 4;
#X connect 13 0 18 0;
#X connect 19 0 20 0;
