#N canvas 0 49 1920 1008 10;
#X obj 2084 1081 dac~;
#X obj 740 114 noise~;
#X obj 779 186 a_resfilt;
#X obj 2090 1008 *~;
#X obj 740 142 spigot~;
#X obj 779 86 tgl 15 0 empty empty empty 17 7 0 10 -262144 -1 -1 127
127;
#X obj -21 -169 a_arpeggiator;
#X obj 196 39 mtof;
#X obj 293 304 a_fm;
#X obj 339 151 a_map;
#X msg 353 62 0;
#X msg 367 85 127;
#X msg 381 106 20;
#X msg 395 130 2000;
#X obj 402 80 bng 15 250 50 0 empty empty empty 17 7 0 10 -262144 -1
-1;
#X obj 385 283 a_map;
#X msg 398 201 0;
#X msg 413 222 127;
#X obj 462 225 bng 15 250 50 0 empty empty empty 17 7 0 10 -262144
-1 -1;
#X msg 427 243 0;
#X msg 441 262 500;
#X obj 1094 863 a_phaser;
#X obj 1138 793 a_map;
#X msg 1151 714 0;
#X msg 1166 734 127;
#X obj 1209 727 bng 15 250 50 0 empty empty empty 17 7 0 10 -262144
-1 -1;
#X msg 1180 753 0;
#X msg 1194 771 3;
#X obj 1182 840 / 127;
#X obj 1226 840 / 127;
#X obj 1271 840 / 127;
#X msg -21 -213 33;
#X obj 632 -193 sel 127;
#X obj 2144 870 line~ \$1 10;
#X obj 339 -249 a_map;
#X msg 354 -334 0;
#X msg 367 -314 127;
#X obj 402 -321 bng 15 250 50 0 empty empty empty 17 7 0 10 -262144
-1 -1;
#X msg 381 -293 1000;
#X msg 395 -273 100;
#X obj 1611 836 a_resfilt;
#X obj 779 63 sel 127;
#X obj 799 161 mtof;
#X obj 779 865 a_flanger;
#X obj 983 804 - 1;
#X obj 983 826 / 127;
#X obj 814 571 a_map;
#X msg 828 493 0;
#X msg 842 513 127;
#X obj 873 501 bng 15 250 50 0 empty empty empty 17 7 0 10 -262144
-1 -1;
#X msg 856 532 0;
#X msg 870 551 30;
#X obj 849 707 a_map;
#X msg 863 626 0;
#X msg 876 647 127;
#X obj 909 644 bng 15 250 50 0 empty empty empty 17 7 0 10 -262144
-1 -1;
#X msg 891 667 0;
#X msg 905 687 50;
#X obj 885 832 a_map;
#X msg 899 755 0;
#X msg 913 774 127;
#X obj 945 766 bng 15 250 50 0 empty empty empty 17 7 0 10 -262144
-1 -1;
#X msg 927 793 0;
#X msg 941 812 50;
#X obj 973 889 sel 127;
#X obj 186 -255 a_taptempo;
#X obj 178 -352 bng 65 250 50 0 empty empty empty 17 7 0 10 -262144
-1 -1;
#X floatatom 252 -254 11 0 0 0 - - -, f 11;
#X obj 178 -373 sel 127;
#X obj 1392 859 a_delay;
#X obj 1532 882 sel 127;
#X obj 1709 967 a_map;
#X msg 1726 886 0;
#X msg 1737 906 127;
#X obj 1772 887 bng 15 250 50 0 empty empty empty 17 7 0 10 -262144
-1 -1;
#X msg 1751 926 100;
#X obj 1711 860 - 1;
#X obj 312 -889 ctlin;
#X obj 300 -812 pack f f;
#X obj 300 -732 s A1;
#X obj 314 -711 s A2;
#X obj 329 -691 s A3;
#X obj 343 -671 s A4;
#X obj 358 -651 s A5;
#X obj 373 -631 s A6;
#X obj 387 -611 s A7;
#X obj 402 -591 s A8;
#X obj 412 -734 s B1;
#X obj 426 -714 s B2;
#X obj 440 -694 s B3;
#X obj 454 -674 s B4;
#X obj 468 -654 s B5;
#X obj 482 -635 s B6;
#X obj 498 -615 s B7;
#X obj 511 -595 s B8;
#X obj 538 -715 s P2;
#X obj 552 -695 s P3;
#X obj 566 -675 s P4;
#X obj 580 -655 s P5;
#X obj 594 -636 s P6;
#X obj 609 -616 s P7;
#X obj 624 -596 s P8;
#X obj 524 -735 s P1;
#X obj 636 -732 s UP;
#X obj 650 -711 s DOWN;
#X obj 664 -682 s LEFT;
#X obj 679 -659 s RIGHT;
#X obj 692 -736 s F1;
#X obj 706 -717 s F2;
#X obj 720 -698 s F3;
#X obj 734 -679 s F4;
#X obj 748 -660 s F5;
#X obj 762 -641 s F6;
#X obj 778 -622 s F7;
#X obj 794 -603 s F8;
#X obj 2144 826 r F8;
#X obj 799 140 r F7;
#X obj 1711 836 r F2;
#X obj 923 -840 notein;
#X obj 908 -743 s TF1;
#X obj 927 -724 s TF2;
#X obj 947 -705 s TF3;
#X obj 967 -686 s TF4;
#X obj 986 -667 s TF5;
#X obj 1006 -648 s TF6;
#X obj 1026 -629 s TF7;
#X obj 1045 -610 s TF8;
#X obj 908 -763 route 41 42 43 44 57 58 59 60 73 74 75 76 89 90 91
92;
#X obj 1065 -743 s TC1;
#X obj 1085 -724 s TC2;
#X obj 1104 -705 s TC3;
#X obj 1124 -686 s TC4;
#X obj 1144 -667 s TC5;
#X obj 1163 -648 s TC6;
#X obj 1183 -629 s TC7;
#X obj 1203 -610 s TC8;
#X obj 908 -794 pack f f;
#X obj 300 -838 pipe 1;
#X obj 402 -345 loadbang;
#X floatatom 2182 849 5 0 0 0 - - -, f 5;
#X floatatom 384 -844 5 0 0 0 - - -, f 5;
#X obj 300 -769 route 13 14 15 16 17 18 19 20 29 30 31 32 33 34 35
36 49 50 51 52 53 54 55 56 104 105 106 107 77 78 79 80 81 82 83 84
;
#X obj 2144 848 / 127;
#X obj 1209 706 loadbang;
#X obj 1772 865 loadbang;
#X obj 462 205 loadbang;
#X obj 402 60 loadbang;
#X obj 779 42 r TF1;
#X obj 873 480 loadbang;
#X obj 909 624 loadbang;
#X obj 945 745 loadbang;
#X obj 293 272 mtof;
#X obj 293 251 r F6;
#X obj 632 -216 r TF2;
#X obj 937 220 a_sampler2;
#X obj 1039 159 / 127;
#X obj 1039 184 * 10;
#X obj 1425 791 / 127;
#X obj 1469 791 / 127;
#X obj 1514 791 / 127;
#X obj 1425 813 * 2;
#X obj 814 471 r P1;
#X obj 849 601 r P2;
#X obj 885 731 r P3;
#X obj 983 782 r P4;
#X obj 1329 883 sel 127;
#X obj 1138 673 r P5;
#X obj 1182 818 r P6;
#X obj 1226 818 r P7;
#X obj 1271 818 r P8;
#X obj 1425 769 r B1;
#X obj 1469 769 r B2;
#X obj 1514 769 r B3;
#X obj 178 -393 r UP;
#X obj 1532 861 r TC3;
#X obj 1329 861 r TC2;
#X obj 973 867 r TC1;
#X msg 1765 945 8000;
#X obj 1685 786 sel 127;
#X obj 1685 765 r TC4;
#X obj 937 175 r TF3;
#X obj 1039 134 r F5;
#X obj 988 174 r TF4;
#X obj 1267 -280 r A7;
#X obj 1267 -258 / 127;
#X obj 1318 -258 / 127;
#X obj 1318 -236 * 3000;
#X obj 1318 -280 r A8;
#X obj 1216 -256 / 127;
#X obj 1216 -278 r A6;
#X obj 1844 843 a_disto;
#X obj 1267 -236 * 3000;
#X obj 2012 773 sel 127;
#X obj 2012 752 r TC5;
#X obj 339 40 r B7;
#X obj 385 174 r B8;
#X msg -16 -193 59;
#X msg 1984 -164 59;
#X msg 2024 -157 58;
#X msg 2071 -143 62;
#X obj 1983 -113 mtof;
#X obj 1979 155 *~;
#X obj 2039 -97 bng 15 250 50 0 empty empty empty 17 7 0 10 -262144
-1 -1;
#X obj 1963 -281 key;
#X floatatom 1905 -249 5 0 0 0 - - -, f 5;
#X obj 1905 -192 t b b;
#X obj 1966 -197 t b b;
#X obj 2026 -194 t b b;
#X obj 2073 116 a_triangle;
#X obj 2090 -196 t b b;
#X obj 2145 -203 t b b;
#X msg 2114 -139 61;
#X msg 2159 -135 65;
#X obj 2176 -167 t b b;
#X obj 1905 -228 sel 113 119 101 117 105 111;
#X obj 1952 205 *~ 3;
#X obj 2005 -33 a_adsr 1 1 10 20 600 10;
#X msg 52 -357 62;
#X obj 1216 -176 a_woosh;
#X obj 1369 -270 r TF6;
#X obj 1369 -248 sel 127;
#X connect 1 0 4 0;
#X connect 2 0 43 0;
#X connect 3 0 0 0;
#X connect 3 0 0 1;
#X connect 4 1 2 0;
#X connect 5 0 4 1;
#X connect 6 1 7 0;
#X connect 6 3 8 3;
#X connect 7 0 8 0;
#X connect 8 0 43 0;
#X connect 9 0 8 1;
#X connect 10 0 9 1;
#X connect 11 0 9 2;
#X connect 12 0 9 3;
#X connect 13 0 9 4;
#X connect 14 0 10 0;
#X connect 14 0 11 0;
#X connect 14 0 12 0;
#X connect 14 0 13 0;
#X connect 15 0 8 2;
#X connect 16 0 15 1;
#X connect 17 0 15 2;
#X connect 18 0 16 0;
#X connect 18 0 17 0;
#X connect 18 0 19 0;
#X connect 18 0 20 0;
#X connect 19 0 15 3;
#X connect 20 0 15 4;
#X connect 21 0 69 0;
#X connect 22 0 21 1;
#X connect 23 0 22 1;
#X connect 24 0 22 2;
#X connect 25 0 23 0;
#X connect 25 0 24 0;
#X connect 25 0 26 0;
#X connect 25 0 27 0;
#X connect 26 0 22 3;
#X connect 27 0 22 4;
#X connect 28 0 21 2;
#X connect 29 0 21 3;
#X connect 30 0 21 4;
#X connect 31 0 6 0;
#X connect 32 0 6 2;
#X connect 33 0 3 1;
#X connect 34 0 6 1;
#X connect 35 0 34 1;
#X connect 36 0 34 2;
#X connect 37 0 35 0;
#X connect 37 0 36 0;
#X connect 37 0 38 0;
#X connect 37 0 39 0;
#X connect 38 0 34 3;
#X connect 39 0 34 4;
#X connect 40 0 190 0;
#X connect 41 0 5 0;
#X connect 42 0 2 1;
#X connect 43 0 21 0;
#X connect 44 0 45 0;
#X connect 45 0 43 4;
#X connect 46 0 43 1;
#X connect 47 0 46 1;
#X connect 48 0 46 2;
#X connect 49 0 47 0;
#X connect 49 0 48 0;
#X connect 49 0 50 0;
#X connect 49 0 51 0;
#X connect 50 0 46 3;
#X connect 51 0 46 4;
#X connect 52 0 43 2;
#X connect 53 0 52 1;
#X connect 54 0 52 2;
#X connect 55 0 53 0;
#X connect 55 0 54 0;
#X connect 55 0 56 0;
#X connect 55 0 57 0;
#X connect 56 0 52 3;
#X connect 57 0 52 4;
#X connect 58 0 43 3;
#X connect 59 0 58 1;
#X connect 60 0 58 2;
#X connect 61 0 59 0;
#X connect 61 0 60 0;
#X connect 61 0 62 0;
#X connect 61 0 63 0;
#X connect 62 0 58 3;
#X connect 63 0 58 4;
#X connect 64 0 43 5;
#X connect 65 0 67 0;
#X connect 65 0 6 1;
#X connect 66 0 65 0;
#X connect 68 0 66 0;
#X connect 69 0 40 0;
#X connect 70 0 69 4;
#X connect 71 0 40 1;
#X connect 72 0 71 1;
#X connect 73 0 71 2;
#X connect 74 0 72 0;
#X connect 74 0 73 0;
#X connect 74 0 75 0;
#X connect 74 0 177 0;
#X connect 75 0 71 3;
#X connect 76 0 71 0;
#X connect 77 0 78 1;
#X connect 77 1 137 0;
#X connect 77 1 140 0;
#X connect 78 0 141 0;
#X connect 115 0 142 0;
#X connect 116 0 42 0;
#X connect 117 0 76 0;
#X connect 118 0 136 0;
#X connect 118 1 136 1;
#X connect 127 0 119 0;
#X connect 127 1 120 0;
#X connect 127 2 121 0;
#X connect 127 3 122 0;
#X connect 127 4 123 0;
#X connect 127 5 124 0;
#X connect 127 6 125 0;
#X connect 127 7 126 0;
#X connect 127 8 128 0;
#X connect 127 9 129 0;
#X connect 127 10 130 0;
#X connect 127 11 131 0;
#X connect 127 12 132 0;
#X connect 127 13 133 0;
#X connect 127 14 134 0;
#X connect 127 15 135 0;
#X connect 136 0 127 0;
#X connect 137 0 78 0;
#X connect 138 0 37 0;
#X connect 141 0 79 0;
#X connect 141 1 80 0;
#X connect 141 2 81 0;
#X connect 141 3 82 0;
#X connect 141 4 83 0;
#X connect 141 5 84 0;
#X connect 141 6 85 0;
#X connect 141 7 86 0;
#X connect 141 8 87 0;
#X connect 141 9 88 0;
#X connect 141 10 89 0;
#X connect 141 11 90 0;
#X connect 141 12 91 0;
#X connect 141 13 92 0;
#X connect 141 14 93 0;
#X connect 141 15 94 0;
#X connect 141 16 102 0;
#X connect 141 17 95 0;
#X connect 141 18 96 0;
#X connect 141 19 97 0;
#X connect 141 20 98 0;
#X connect 141 21 99 0;
#X connect 141 22 100 0;
#X connect 141 23 101 0;
#X connect 141 24 103 0;
#X connect 141 25 104 0;
#X connect 141 26 105 0;
#X connect 141 27 106 0;
#X connect 141 28 107 0;
#X connect 141 29 108 0;
#X connect 141 30 109 0;
#X connect 141 31 110 0;
#X connect 141 32 111 0;
#X connect 141 33 112 0;
#X connect 141 34 113 0;
#X connect 141 35 114 0;
#X connect 142 0 33 0;
#X connect 142 0 139 0;
#X connect 143 0 25 0;
#X connect 144 0 74 0;
#X connect 145 0 18 0;
#X connect 146 0 14 0;
#X connect 147 0 41 0;
#X connect 148 0 49 0;
#X connect 149 0 55 0;
#X connect 150 0 61 0;
#X connect 151 0 8 0;
#X connect 152 0 151 0;
#X connect 153 0 32 0;
#X connect 154 0 43 0;
#X connect 155 0 156 0;
#X connect 156 0 154 2;
#X connect 157 0 160 0;
#X connect 158 0 69 2;
#X connect 159 0 69 3;
#X connect 160 0 69 1;
#X connect 161 0 46 0;
#X connect 162 0 52 0;
#X connect 163 0 58 0;
#X connect 164 0 44 0;
#X connect 165 0 21 5;
#X connect 166 0 22 0;
#X connect 167 0 28 0;
#X connect 168 0 29 0;
#X connect 169 0 30 0;
#X connect 170 0 157 0;
#X connect 171 0 158 0;
#X connect 172 0 159 0;
#X connect 173 0 68 0;
#X connect 174 0 70 0;
#X connect 175 0 165 0;
#X connect 176 0 64 0;
#X connect 177 0 71 4;
#X connect 178 0 40 4;
#X connect 179 0 178 0;
#X connect 180 0 154 0;
#X connect 181 0 155 0;
#X connect 182 0 154 1;
#X connect 183 0 184 0;
#X connect 184 0 191 0;
#X connect 185 0 186 0;
#X connect 186 0 218 2;
#X connect 187 0 185 0;
#X connect 188 0 218 0;
#X connect 189 0 188 0;
#X connect 190 0 3 0;
#X connect 191 0 218 1;
#X connect 192 0 190 4;
#X connect 193 0 192 0;
#X connect 194 0 9 0;
#X connect 195 0 15 0;
#X connect 196 0 6 0;
#X connect 197 0 200 0;
#X connect 198 0 200 0;
#X connect 199 0 200 0;
#X connect 200 0 208 0;
#X connect 201 0 215 0;
#X connect 202 0 216 0;
#X connect 203 0 204 0;
#X connect 204 0 214 0;
#X connect 205 0 202 0;
#X connect 205 1 198 0;
#X connect 206 0 202 0;
#X connect 206 1 197 0;
#X connect 207 0 202 0;
#X connect 207 1 199 0;
#X connect 208 0 201 0;
#X connect 209 0 202 0;
#X connect 209 1 199 0;
#X connect 210 0 202 0;
#X connect 210 1 211 0;
#X connect 211 0 200 0;
#X connect 212 0 200 0;
#X connect 213 0 202 0;
#X connect 213 1 212 0;
#X connect 214 0 205 0;
#X connect 214 1 206 0;
#X connect 214 2 207 0;
#X connect 214 3 210 0;
#X connect 214 4 209 0;
#X connect 214 5 213 0;
#X connect 215 0 43 0;
#X connect 216 0 201 1;
#X connect 217 0 6 0;
#X connect 218 0 43 0;
#X connect 219 0 220 0;
#X connect 220 0 218 3;
