#N canvas 1 28 1918 1028 10;
#X obj 575 749 osc~;
#X obj 575 771 *~;
#X obj 591 568 vsl 15 128 0 1 0 0 empty empty empty 0 -9 0 10 -262144
-1 -1 4000 1;
#X obj 562 835 dac~;
#X obj 753 117 ctlin;
#X obj 732 222 pack f f;
#X obj 752 182 f;
#X obj 750 148 t b f;
#X obj 846 310 / 127;
#X obj 697 456 / 127;
#X floatatom 774 434 5 0 0 0 - - -, f 5;
#X obj 846 336 + 0.01;
#X obj 845 359 * 400;
#X obj 742 530 metro 200;
#X obj 739 482 tgl 15 0 empty empty empty 17 7 0 10 -262144 -1 -1 1
1;
#X text 698 533 clock;
#X obj 1083 73 ctlin;
#X obj 1058 234 route 77 78 79 80 81 82 83 84, f 40;
#X obj 1062 178 pack f f;
#X obj 1082 138 f;
#X obj 1080 104 t b f;
#X obj 1061 616 a_sequencer3;
#X obj 1412 59 notein;
#X obj 1415 197 sel 41 42 43 44 57 58 59 60, f 62;
#X obj 986 368 ctlin;
#X obj 965 473 pack f f;
#X obj 985 433 f;
#X obj 983 399 t b f;
#X floatatom 853 173 5 0 0 0 - - -, f 5;
#X floatatom 1312 159 5 0 0 0 - - -, f 5;
#X text 1100 207 sliders;
#X text 1477 170 TF buttons;
#X text 754 262 A1;
#X text 787 260 B2;
#X obj 961 528 route 36 20;
#X text 991 506 B8;
#X text 1019 508 A8;
#X obj 802 890 a_fm;
#X obj 629 773 *~;
#X obj 728 278 route 13 29 14, f 40;
#X text 808 258 A2;
#X obj 642 559 / 127;
#X obj 642 588 vsl 15 128 0 1 0 0 empty empty empty 0 -9 0 10 -262144
-1 -1 0 1;
#X msg 1523 680 51 54 56 54 61 59 61 63;
#X connect 0 0 1 0;
#X connect 1 0 3 0;
#X connect 1 0 3 1;
#X connect 2 0 1 1;
#X connect 4 0 7 0;
#X connect 4 1 6 1;
#X connect 4 1 28 0;
#X connect 5 0 39 0;
#X connect 6 0 5 0;
#X connect 7 0 6 0;
#X connect 7 1 5 1;
#X connect 8 0 11 0;
#X connect 9 0 2 0;
#X connect 10 0 13 1;
#X connect 11 0 12 0;
#X connect 12 0 10 0;
#X connect 13 0 21 0;
#X connect 14 0 13 0;
#X connect 16 0 20 0;
#X connect 16 1 19 1;
#X connect 17 0 21 3;
#X connect 17 1 21 4;
#X connect 17 2 21 5;
#X connect 17 3 21 6;
#X connect 17 4 21 7;
#X connect 17 5 21 8;
#X connect 17 6 21 9;
#X connect 17 7 21 10;
#X connect 18 0 17 0;
#X connect 19 0 18 0;
#X connect 20 0 19 0;
#X connect 20 1 18 1;
#X connect 21 0 0 0;
#X connect 21 1 37 0;
#X connect 22 0 23 0;
#X connect 22 0 29 0;
#X connect 23 0 21 11;
#X connect 23 1 21 12;
#X connect 23 2 21 13;
#X connect 23 3 21 14;
#X connect 23 4 21 15;
#X connect 23 5 21 16;
#X connect 23 6 21 17;
#X connect 23 7 21 18;
#X connect 24 0 27 0;
#X connect 24 1 26 1;
#X connect 25 0 34 0;
#X connect 26 0 25 0;
#X connect 27 0 26 0;
#X connect 27 1 25 1;
#X connect 34 0 21 1;
#X connect 34 1 21 2;
#X connect 37 0 38 0;
#X connect 38 0 3 0;
#X connect 38 0 3 1;
#X connect 39 0 9 0;
#X connect 39 1 8 0;
#X connect 39 2 41 0;
#X connect 41 0 42 0;
#X connect 42 0 38 1;
#X connect 43 0 21 19;
