#N canvas 0 93 1920 987 12;
#X obj 866 155 tgl 15 0 harm_oct empty oct 17 7 0 10 -262144 -1 -1
0 1;
#X obj 173 131 vradio 15 1 0 16 empty empty empty 0 -8 0 10 -262144
-1 -1 0;
#X text 174 84 channel;
#X obj 173 376 + 1;
#X obj 173 401 s chan;
#X obj 102 58 loadbang;
#X msg 102 83 0;
#X obj 866 176 tgl 15 0 harm_5d4u empty 5/4 17 7 0 10 -262144 -1 -1
0 1;
#X obj 866 197 tgl 15 0 harm_4d3u empty 4/3 17 7 0 10 -262144 -1 -1
0 1;
#X obj 866 218 tgl 15 0 harm_5d7u empty 5/7 17 7 0 10 -262144 -1 -1
0 1;
#X obj 866 239 tgl 15 0 harm_5d6u empty 5/6 17 7 0 10 -262144 -1 -1
0 1;
#X obj 866 260 tgl 15 0 harm_4d5u empty 4/5 17 7 0 10 -262144 -1 -1
0 1;
#X obj 866 281 tgl 15 0 harm_3d4u empty 3/4 17 7 0 10 -262144 -1 -1
0 1;
#X obj 866 302 tgl 15 0 harm_3d3u empty 3/3 17 7 0 10 -262144 -1 -1
0 1;
#X obj 866 323 tgl 15 0 harm_2d3u empty 2/3 17 7 0 10 -262144 -1 -1
0 1;
#X obj 883 366 tgl 15 0 shallow empty shallow 17 7 0 10 -262144 -1
-1 0 1;
#X obj 994 156 tgl 15 0 wham_15u empty 15u 17 7 0 10 -262144 -1 -1
0 1;
#X obj 994 177 tgl 15 0 wham_8u empty 8u 17 7 0 10 -262144 -1 -1 0
1;
#X obj 994 198 tgl 15 0 wham_5u empty 5u 17 7 0 10 -262144 -1 -1 0
1;
#X obj 994 219 tgl 15 0 wham_4u empty 4u 17 7 0 10 -262144 -1 -1 0
1;
#X obj 994 240 tgl 15 0 wham_2d empty 2d 17 7 0 10 -262144 -1 -1 0
1;
#X obj 994 261 tgl 15 0 wham_4d empty 4d 17 7 0 10 -262144 -1 -1 0
1;
#X obj 994 282 tgl 15 0 wham_5d empty 5d 17 7 0 10 -262144 -1 -1 0
1;
#X obj 994 303 tgl 15 0 wham_8d empty 8d 17 7 0 10 -262144 -1 -1 0
1;
#X obj 994 324 tgl 15 0 wham_15d empty 15d 17 7 0 10 -262144 -1 -1
0 1;
#X obj 961 366 tgl 15 0 deep empty deep 17 7 0 10 -262144 -1 -1 0 1
;
#X text 861 125 HARMONY;
#X text 984 125 WHAMMY;
#N canvas 0 93 1920 987 topgm 0;
#X obj 28 40 r harm_oct;
#X obj 28 71 sel 0 1;
#X obj 35 150 s pgm;
#X obj 124 71 sel 0 1;
#X obj 131 150 s pgm;
#X msg 28 96 42;
#X msg 51 121 21;
#X msg 124 96 41;
#X msg 147 121 20;
#X obj 124 40 r harm_5d4u;
#X obj 220 71 sel 0 1;
#X obj 227 150 s pgm;
#X obj 316 71 sel 0 1;
#X obj 323 150 s pgm;
#X obj 29 219 sel 0 1;
#X obj 36 298 s pgm;
#X obj 125 219 sel 0 1;
#X obj 132 298 s pgm;
#X obj 221 219 sel 0 1;
#X obj 228 298 s pgm;
#X obj 317 219 sel 0 1;
#X obj 324 298 s pgm;
#X obj 99 377 sel 0 1;
#X obj 106 456 s pgm;
#X obj 99 346 r shallow;
#X msg 99 402 33;
#X msg 122 427 12;
#X obj 220 40 r harm_4d3u;
#X obj 316 40 r harm_5d7u;
#X obj 29 188 r harm_5d6u;
#X obj 125 188 r harm_4d5u;
#X obj 221 188 r harm_3d4u;
#X obj 317 188 r harm_3d3u;
#X obj 404 219 sel 0 1;
#X obj 411 298 s pgm;
#X obj 404 188 r harm_2d3u;
#X msg 220 96 40;
#X msg 243 121 19;
#X msg 316 96 39;
#X msg 339 121 18;
#X msg 29 244 38;
#X msg 52 269 17;
#X msg 125 244 37;
#X msg 148 269 16;
#X msg 221 244 36;
#X msg 244 269 15;
#X msg 317 244 35;
#X msg 340 269 14;
#X msg 404 244 34;
#X msg 427 269 13;
#X obj 765 73 sel 0 1;
#X obj 772 152 s pgm;
#X obj 765 42 r wham_15u;
#X obj 777 377 sel 0 1;
#X obj 784 456 s pgm;
#X obj 777 346 r deep;
#X msg 800 427 11;
#X msg 777 402 32;
#X msg 765 98 22;
#X msg 788 123 1;
#X obj 849 73 sel 0 1;
#X obj 856 152 s pgm;
#X obj 849 42 r wham_8u;
#X msg 849 98 23;
#X msg 872 123 2;
#X obj 926 72 sel 0 1;
#X obj 933 151 s pgm;
#X obj 926 41 r wham_5u;
#X msg 926 97 24;
#X msg 949 122 3;
#X obj 999 72 sel 0 1;
#X obj 1006 151 s pgm;
#X obj 999 41 r wham_4u;
#X msg 999 97 25;
#X msg 1022 122 4;
#X obj 769 211 sel 0 1;
#X obj 776 290 s pgm;
#X obj 853 211 sel 0 1;
#X obj 860 290 s pgm;
#X obj 930 210 sel 0 1;
#X obj 937 289 s pgm;
#X obj 1003 210 sel 0 1;
#X obj 1010 289 s pgm;
#X obj 1076 212 sel 0 1;
#X obj 1083 291 s pgm;
#X obj 769 180 r wham_2d;
#X obj 853 180 r wham_4d;
#X obj 930 179 r wham_5d;
#X obj 1003 179 r wham_8d;
#X obj 1076 181 r wham_15d;
#X msg 769 236 26;
#X msg 792 261 5;
#X msg 853 236 27;
#X msg 876 261 6;
#X msg 930 235 28;
#X msg 953 260 7;
#X msg 1003 235 29;
#X msg 1026 260 8;
#X msg 1076 237 30;
#X msg 1099 262 9;
#X obj 1157 212 sel 0 1;
#X obj 1164 291 s pgm;
#X obj 1157 181 r wham_dive;
#X msg 1157 237 31;
#X msg 1180 262 10;
#X obj 525 669 pgmout;
#X obj 525 595 pack f 1;
#X obj 578 565 r chan;
#X obj 525 529 r pgm;
#X connect 0 0 1 0;
#X connect 1 0 5 0;
#X connect 1 1 6 0;
#X connect 3 0 7 0;
#X connect 3 1 8 0;
#X connect 5 0 2 0;
#X connect 6 0 2 0;
#X connect 7 0 4 0;
#X connect 8 0 4 0;
#X connect 9 0 3 0;
#X connect 10 0 36 0;
#X connect 10 1 37 0;
#X connect 12 0 38 0;
#X connect 12 1 39 0;
#X connect 14 0 40 0;
#X connect 14 1 41 0;
#X connect 16 0 42 0;
#X connect 16 1 43 0;
#X connect 18 0 44 0;
#X connect 18 1 45 0;
#X connect 20 0 46 0;
#X connect 20 1 47 0;
#X connect 22 0 25 0;
#X connect 22 1 26 0;
#X connect 24 0 22 0;
#X connect 25 0 23 0;
#X connect 26 0 23 0;
#X connect 27 0 10 0;
#X connect 28 0 12 0;
#X connect 29 0 14 0;
#X connect 30 0 16 0;
#X connect 31 0 18 0;
#X connect 32 0 20 0;
#X connect 33 0 48 0;
#X connect 33 1 49 0;
#X connect 35 0 33 0;
#X connect 36 0 11 0;
#X connect 37 0 11 0;
#X connect 38 0 13 0;
#X connect 39 0 13 0;
#X connect 40 0 15 0;
#X connect 41 0 15 0;
#X connect 42 0 17 0;
#X connect 43 0 17 0;
#X connect 44 0 19 0;
#X connect 45 0 19 0;
#X connect 46 0 21 0;
#X connect 47 0 21 0;
#X connect 48 0 34 0;
#X connect 49 0 34 0;
#X connect 50 0 58 0;
#X connect 50 1 59 0;
#X connect 52 0 50 0;
#X connect 53 0 57 0;
#X connect 53 1 56 0;
#X connect 55 0 53 0;
#X connect 56 0 54 0;
#X connect 57 0 54 0;
#X connect 58 0 51 0;
#X connect 59 0 51 0;
#X connect 60 0 63 0;
#X connect 60 1 64 0;
#X connect 62 0 60 0;
#X connect 63 0 61 0;
#X connect 64 0 61 0;
#X connect 65 0 68 0;
#X connect 65 1 69 0;
#X connect 67 0 65 0;
#X connect 68 0 66 0;
#X connect 69 0 66 0;
#X connect 70 0 73 0;
#X connect 70 1 74 0;
#X connect 72 0 70 0;
#X connect 73 0 71 0;
#X connect 74 0 71 0;
#X connect 75 0 90 0;
#X connect 75 1 91 0;
#X connect 77 0 92 0;
#X connect 77 1 93 0;
#X connect 79 0 94 0;
#X connect 79 1 95 0;
#X connect 81 0 96 0;
#X connect 81 1 97 0;
#X connect 83 0 98 0;
#X connect 83 1 99 0;
#X connect 85 0 75 0;
#X connect 86 0 77 0;
#X connect 87 0 79 0;
#X connect 88 0 81 0;
#X connect 89 0 83 0;
#X connect 90 0 76 0;
#X connect 91 0 76 0;
#X connect 92 0 78 0;
#X connect 93 0 78 0;
#X connect 94 0 80 0;
#X connect 95 0 80 0;
#X connect 96 0 82 0;
#X connect 97 0 82 0;
#X connect 98 0 84 0;
#X connect 99 0 84 0;
#X connect 100 0 103 0;
#X connect 100 1 104 0;
#X connect 102 0 100 0;
#X connect 103 0 101 0;
#X connect 104 0 101 0;
#X connect 106 0 105 0;
#X connect 107 0 106 1;
#X connect 108 0 106 0;
#X restore 583 115 pd topgm;
#X obj 994 344 tgl 15 0 wham_dive empty dive_bomb 17 7 0 10 -262144
-1 -1 0 1;
#X obj 487 497 ctlout;
#X obj 487 319 vsl 15 128 0 127 0 0 empty empty empty 0 -9 0 10 -262144
-1 -1 0 1;
#X obj 487 454 pack f 11;
#X obj 389 108 metro 1000;
#X obj 389 133 f 0;
#X obj 389 158 + 1;
#X obj 389 183 % 2;
#X obj 389 208 sel 0 1;
#X obj 401 300 line;
#X obj 389 67 tgl 15 0 empty empty empty 17 7 0 10 -262144 -1 -1 0
1;
#X floatatom 480 27 5 0 0 0 - - -;
#X msg 463 261 127 200;
#X msg 396 234 set 0 \$1;
#X msg 389 258 0 200;
#X msg 463 236 set 127 \$1;
#X obj 480 51 t f f f;
#X obj 811 558 midiin;
#X obj 811 583 print;
#X connect 1 0 3 0;
#X connect 3 0 4 0;
#X connect 5 0 6 0;
#X connect 6 0 1 0;
#X connect 31 0 32 0;
#X connect 32 0 30 0;
#X connect 33 0 34 0;
#X connect 34 0 35 0;
#X connect 35 0 36 0;
#X connect 35 0 34 1;
#X connect 36 0 37 0;
#X connect 37 0 43 0;
#X connect 37 1 41 0;
#X connect 38 0 31 0;
#X connect 39 0 33 0;
#X connect 40 0 45 0;
#X connect 41 0 38 0;
#X connect 42 0 43 0;
#X connect 43 0 38 0;
#X connect 44 0 41 0;
#X connect 45 0 33 1;
#X connect 45 1 42 0;
#X connect 45 2 44 0;
#X connect 46 0 47 0;
